<?xml version="1.0" encoding="UTF-8" standalone="no"?>
<!-- Created with Inkscape (http://www.inkscape.org/) -->

<svg
   xmlns:dc="http://purl.org/dc/elements/1.1/"
   xmlns:cc="http://creativecommons.org/ns#"
   xmlns:rdf="http://www.w3.org/1999/02/22-rdf-syntax-ns#"
   xmlns:svg="http://www.w3.org/2000/svg"
   xmlns="http://www.w3.org/2000/svg"
   xmlns:sodipodi="http://sodipodi.sourceforge.net/DTD/sodipodi-0.dtd"
   xmlns:inkscape="http://www.inkscape.org/namespaces/inkscape"
   width="28.4226mm"
   height="28.422958mm"
   viewBox="0 0 28.4226 28.422958"
   version="1.1"
   id="svg3080"
   inkscape:version="0.92.2 5c3e80d, 2017-08-06"
   sodipodi:docname="brco-7.svg">
  <defs
     id="defs3074">
    <clipPath
       id="clipPath1506"
       clipPathUnits="userSpaceOnUse">
      <path
         inkscape:connector-curvature="0"
         id="path1504"
         d="m 207.891,313.591 h 80.568 v 80.568 h -80.568 z" />
    </clipPath>
  </defs>
  <sodipodi:namedview
     id="base"
     pagecolor="#ffffff"
     bordercolor="#666666"
     borderopacity="1.0"
     inkscape:pageopacity="0.0"
     inkscape:pageshadow="2"
     inkscape:zoom="0.35"
     inkscape:cx="-232.00229"
     inkscape:cy="-277.7159"
     inkscape:document-units="mm"
     inkscape:current-layer="layer1"
     showgrid="false"
     fit-margin-top="0"
     fit-margin-left="0"
     fit-margin-right="0"
     fit-margin-bottom="0"
     inkscape:window-width="1280"
     inkscape:window-height="755"
     inkscape:window-x="0"
     inkscape:window-y="1"
     inkscape:window-maximized="1" />
  <metadata
     id="metadata3077">
    <rdf:RDF>
      <cc:Work
         rdf:about="">
        <dc:format>image/svg+xml</dc:format>
        <dc:type
           rdf:resource="http://purl.org/dc/dcmitype/StillImage" />
        <dc:title></dc:title>
      </cc:Work>
    </rdf:RDF>
  </metadata>
  <g
     inkscape:label="レイヤー 1"
     inkscape:groupmode="layer"
     id="layer1"
     transform="translate(2.1160619,-46.931377)">
    <path
       inkscape:connector-curvature="0"
       id="path1498"
       style="fill:#ffffff;fill-opacity:1;fill-rule:nonzero;stroke:none;stroke-width:0.35277775"
       d="M 26.306538,75.354335 H -2.1160619 v -28.4226 H 26.306538 Z" />
    <g
       transform="matrix(0.35277777,0,0,-0.35277777,-75.455384,185.98191)"
       id="g1500">
      <g
         clip-path="url(#clipPath1506)"
         id="g1502">
        <g
           transform="translate(246.7573,385.5349)"
           id="g1508">
          <path
             inkscape:connector-curvature="0"
             id="path1510"
             style="fill:#332d2b;fill-opacity:1;fill-rule:nonzero;stroke:none"
             d="m 0,0 c -5.939,0 -10.598,-2.048 -13.977,-6.144 -3.379,-4.095 -5.069,-9.182 -5.069,-15.256 0,-6.144 1.723,-11.264 5.171,-15.36 3.446,-4.096 8.174,-6.144 14.182,-6.144 6.006,0 10.752,2.115 14.233,6.349 3.208,3.958 4.813,9.011 4.813,15.155 0,6.211 -1.639,11.263 -4.915,15.154 C 10.956,-2.083 6.144,0 0,0 m 0.307,-56.727 c -10.24,0 -18.723,3.328 -25.446,9.983 -6.724,6.656 -10.086,15.104 -10.086,25.344 0,10.102 3.311,18.533 9.933,25.291 6.621,6.758 15.017,10.137 25.189,10.137 10.24,0 18.755,-3.294 25.548,-9.881 6.792,-6.588 10.189,-15.036 10.189,-25.343 0,-10.377 -3.295,-18.892 -9.882,-25.548 -6.588,-6.655 -15.069,-9.983 -25.445,-9.983" />
        </g>
      </g>
    </g>
  </g>
</svg>
