<?xml version="1.0" encoding="UTF-8" standalone="no"?>
<!-- Created with Inkscape (http://www.inkscape.org/) -->

<svg
   xmlns:dc="http://purl.org/dc/elements/1.1/"
   xmlns:cc="http://creativecommons.org/ns#"
   xmlns:rdf="http://www.w3.org/1999/02/22-rdf-syntax-ns#"
   xmlns:svg="http://www.w3.org/2000/svg"
   xmlns="http://www.w3.org/2000/svg"
   xmlns:sodipodi="http://sodipodi.sourceforge.net/DTD/sodipodi-0.dtd"
   xmlns:inkscape="http://www.inkscape.org/namespaces/inkscape"
   width="28.4226mm"
   height="28.4226mm"
   viewBox="0 0 28.4226 28.4226"
   version="1.1"
   id="svg3676"
   inkscape:version="0.92.2 5c3e80d, 2017-08-06"
   sodipodi:docname="brco-8.svg">
  <defs
     id="defs3670">
    <clipPath
       id="clipPath1634"
       clipPathUnits="userSpaceOnUse">
      <path
         inkscape:connector-curvature="0"
         id="path1632"
         d="m 294.016,313.591 h 80.568 v 80.568 h -80.568 z" />
    </clipPath>
  </defs>
  <sodipodi:namedview
     id="base"
     pagecolor="#ffffff"
     bordercolor="#666666"
     borderopacity="1.0"
     inkscape:pageopacity="0.0"
     inkscape:pageshadow="2"
     inkscape:zoom="0.35"
     inkscape:cx="-198.29028"
     inkscape:cy="-32.575317"
     inkscape:document-units="mm"
     inkscape:current-layer="layer1"
     showgrid="false"
     fit-margin-top="0"
     fit-margin-left="0"
     fit-margin-right="0"
     fit-margin-bottom="0"
     inkscape:window-width="1280"
     inkscape:window-height="755"
     inkscape:window-x="0"
     inkscape:window-y="1"
     inkscape:window-maximized="1" />
  <metadata
     id="metadata3673">
    <rdf:RDF>
      <cc:Work
         rdf:about="">
        <dc:format>image/svg+xml</dc:format>
        <dc:type
           rdf:resource="http://purl.org/dc/dcmitype/StillImage" />
        <dc:title></dc:title>
      </cc:Work>
    </rdf:RDF>
  </metadata>
  <g
     inkscape:label="レイヤー 1"
     inkscape:groupmode="layer"
     id="layer1"
     transform="translate(180.36903,-111.79185)">
    <path
       inkscape:connector-curvature="0"
       id="path1626"
       style="fill:#ffffff;fill-opacity:1;fill-rule:nonzero;stroke:none;stroke-width:0.35277775"
       d="m -151.94643,140.21445 h -28.4226 v -28.4226 h 28.4226 z" />
    <g
       transform="matrix(0.35277777,0,0,-0.35277777,-284.09134,250.84203)"
       id="g1628">
      <g
         clip-path="url(#clipPath1634)"
         id="g1630">
        <g
           transform="translate(327.6094,306.7746)"
           id="g1636">
          <path
             inkscape:connector-curvature="0"
             id="path1638"
             style="fill:#332d2b;fill-opacity:1;fill-rule:nonzero;stroke:none"
             d="m 0,0 c 7.03,0 12.39,1.672 16.076,5.017 3.686,3.344 5.529,8.464 5.529,15.359 0,6.69 -1.878,11.776 -5.631,15.258 -3.755,3.481 -9.011,5.222 -15.769,5.222 H -6.553 V 0 Z m 0.103,54.475 c 11.33,0 20.307,-2.8 26.93,-8.397 7.098,-6.008 10.649,-14.576 10.649,-25.702 0,-11.058 -3.414,-19.592 -10.24,-25.598 -6.486,-5.735 -15.326,-8.602 -26.521,-8.602 h -22.834 v 68.299 z" />
        </g>
      </g>
    </g>
  </g>
</svg>
