<svg xmlns="http://www.w3.org/2000/svg" viewBox="0 0 61.9 83.62"><defs><style>.cls-1,.cls-2{fill-rule:evenodd;}.cls-2{fill:#fff;}</style></defs><title>goods</title><g id="レイヤー_2" data-name="レイヤー 2"><g id="レイヤー_1-2" data-name="レイヤー 1"><path class="cls-1" d="M54.46,76a7.06,7.06,0,0,0,1.81-.23,5,5,0,0,0,.22-1.58c-.22-.67-.45-1.35-.67-2-1.43-2.41-3.26-3.92-3.17-7.46,2.6-1.89,1.23-2.4,5.42-2.71.64,1.61,2.31,2.26,2.72,4.3a4.09,4.09,0,0,0-.68.9,7.5,7.5,0,0,0-1.58,0c-.4-1.19-.94-2.58-2.49-2.71a3.47,3.47,0,0,0-.45,2C56.9,68.32,60.4,75.28,59,77.36c-1.41,1.49-4,1.23-6.33.67a2.65,2.65,0,0,1-.45-1.58c.1-.3-.14-1.66,0-2.48a4.14,4.14,0,0,1,1.13-.68c.57.47.83.31,1.13,1.13a9.63,9.63,0,0,1,0,1.58Z"/><path class="cls-1" d="M24.4,64v-.68H23.27c-1.09-2.56-3.88-3-6.33-4.29-3.87-2-8.71-3.57-12.42-5.65C3.67,52.85.36,52.15,0,51.52V35.93c.23-2.93.45-5.87.68-8.81a28.39,28.39,0,0,0,.45-7C1,16.31,2.05,13,2,8.59a2.78,2.78,0,0,1,2-.67c1.9,2,6.57-.56,8.81-1.36l3.39-.45C21,4.67,25,4.41,29.82,3,31.4,2.47,34.92-.18,36.37,0c2.75.36,4.8,1.42,7.23,2,2.18.55,5.25.65,7.68,1.59,2.65,1,7.58,4.34,10.17,4.29.13.71,0,.55.45.9-2,3-.5,8-1.35,11.52s-.51,9.07-.68,11.75c-.09,1.35.7,6,.45,6.78,0,.09-.63.53-.68.68A14.13,14.13,0,0,0,59.42,42c0,1.79.53,3.42.45,4.52.67-.15.69-.07,1.36.23V47H61c-.52.33-1,.12-1.36.68.3.13.17,0,.23.23-.93,2.25-6.66,2.85-9.49,4.06-4.15,1.78-10,3.68-13.55,6.1-.43.29-.52,1-.91,1.36-1.68,1.39-3.84,2.14-5.65,3.39-1.12.77-1.81,2.15-3.38,2.48-.44-.21-.27-.08-.91,0a2.77,2.77,0,0,1,.23-.9H26c-.47.07-.78-.26-1.58-.45Z"/><path class="cls-1" d="M49.26,71.48c.12,4.78-2.65,9.43-5,11.75a18.53,18.53,0,0,1-2.71-1.36A38,38,0,0,0,40.23,78c-1-3.3-.5-11.32.45-15.13L42,62.67c1.08,1,2.84,1.38,3.84,2.49a47.12,47.12,0,0,1,2.72,4.06c.38.76.23,1.63.67,2.26Z"/><path class="cls-2" d="M45.87,71.93c-.82-1.27-.87-2.93-2.25-3.61v-.23h-.23v1.58c.31.64-.25,2.35-.23,3.39,0,1.69-.09,6.2.46,7,.56-2.74,1.72-5.78,2.25-8.14Z"/><path class="cls-2" d="M26.89,21.47a49,49,0,0,1,0,12C26.36,37,26.57,43.59,26,47.23c-.65,4,0,8.09-.22,11.52h.45C29,56.81,34,56.11,37.28,54.68c4-1.73,7.34-4.38,11.07-6.1,1.89-.87,7.71-1.9,8.58-3.61h-.22c-.44-.84-.36.12-.68-.68-1.49-2.25.3-6.93-.45-9.94a28.62,28.62,0,0,1,.22-12.43,8,8,0,0,0-.22-2.71c-.18-1.56.4-2.95.22-4.06a16.77,16.77,0,0,1-.45-3.39H54.9c-1.55,1.14-4,1.29-5.87,2-2.4.93-5.33,2.36-7.69,3.16h-2c-3.86,1.28-7.61,4.41-12.42,4.52Z"/><path class="cls-2" d="M36.6,14.69c2.4-.3,5.11-1.55,7.23-2.25,3.57-1.18,7-1.58,10.17-2.94V9.27c-6.23-.13-11.83-3.18-17.17-4.52V7.69c.71,1.12-.19,4.73-.23,7Z"/><path class="cls-1" d="M32.06,69.22a4.75,4.75,0,0,1,2.26.23c.08-.47,0-.43.23-.68.48.66.31.23,1.12,0,.5,1.84,2.65,4.14,1.81,6.78-.37,1.16-1.31,2.18-1.81,3.39a24.74,24.74,0,0,1-3.61.22c-.35-.94-1.29-1.55-1.58-2.48-.94-3,1.13-5.57,1.58-7.46Z"/><path class="cls-2" d="M33.64,76.45c.47-.08.44,0,.68-.22.34-.34.56-.8.9-1.13.05-1.41-.26-3.12-1.13-3.62v1.36c-.49.75-.46,2.45-.45,3.61Z"/><path class="cls-1" d="M27.85,73.83c-.34,2-.92,4.42-2.26,5.42a3.88,3.88,0,0,1-3.84.23c-2.29-3.44-1.85-6.79.45-9.94.47.11.87.09,1.59.23,0-.63-.27-.49.67-.68v-.23c.23-.22.23.22.23.23,1.81,1.21,1.93,2.92,3.16,4.74Z"/><path class="cls-2" d="M32.41,12.2c.16,0,0-7.37.12-7.9h-.22c-1.89,1.25-4.58,1.14-7,1.81-3.48,1-8.19,2.16-11.07,2.94-1.8.48-6.51,1.22-7.23,2.48a47,47,0,0,1,5,1.58c3.6,1,6.66,2.72,9.54.23a5.58,5.58,0,0,1,7.41.37A3.35,3.35,0,0,1,32.41,12.2Z"/><path class="cls-2" d="M25.14,73.38c-.37-.41-.48-1-.9-1.36V71.8C24,71.57,24,72,24,72c-1.39,1.47-.85,3.47-.45,5.2l.45.23a5.75,5.75,0,0,0,1.13-4.07Z"/><path class="cls-2" d="M23.72,21.7c-5.11-.47-10.09-4.2-14.46-5.87-1-.4-4.29-1.36-4.29-1.36-.77,1.21-.43,3.58-.68,5.2a37.83,37.83,0,0,0,.23,8.81c.12.85-.38,2.8-.23,4.06.21,1.71.39,7.29.68,8.81.57,2.95-.28,6.61.23,9.27,2.52.59,4.77,2.14,7.23,2.93,1.84.6,3.32.26,5.19.91a16.75,16.75,0,0,1,4.07,2.48c-.38.67-.23,0-.23.91l1.36.22v-.22H23c-.62-2.16.67-8.26.23-12.66-.68-6.79.45-15.26.45-23.49Z"/><path class="cls-1" d="M15.86,83.6c-1.72.06-.31-.06-1.58-.68-.42-.2-.48.14-.9,0-.47-1.06-.94-4.09-1.58-5-.86,1.15-4.54,2.47-6.33,1.13C.09,77.71.26,61.93,6.83,61.69c.74-.51,2.6-.18,3.38,0v.22h.23c.08.53.15,1.06.23,1.58h-.23v.23a9.31,9.31,0,0,1-3.16,0c-.56.68-1,.4-1.13,1.58-3.06,3.22.45,10.52,2.48,12,2-1.22,3.29-.36,3.17-3.85h-.46c-.68-.38-2.55-.42-3.61-.9-.16-3.76,1.67-1.09,4.07-2,1.18-.47.65-1.12,2.71-.68v.68l4.06.45v.23h-.22a3.1,3.1,0,0,1,.22.9c-.65.35-.61.55-1.58.68a5.23,5.23,0,0,1-2.26.45v7a10.9,10.9,0,0,1,1.13,3.39Z"/></g></g></svg>