<svg xmlns="http://www.w3.org/2000/svg" viewBox="0 0 157.9 176.18"><defs><style>.cls-1{fill:#6c5d6f;}.cls-1,.cls-2,.cls-3,.cls-4,.cls-5,.cls-6{fill-rule:evenodd;}.cls-2{fill:#ffd100;}.cls-4{fill:#fff;}.cls-5{fill:#3b6c7f;}.cls-6{fill:#2f1b26;}</style></defs><title>アセット 4</title><g id="レイヤー_2" data-name="レイヤー 2"><g id="レイヤー_1-2" data-name="レイヤー 1"><path class="cls-1" d="M88.29,7.48a6.93,6.93,0,0,0,6.41-.91c1.3-1,2.22-2.38,3.5-3.37,3.48-2.7,8.6-1.67,12.45.45,3.15,1.73,6.19,4.57,6.28,8.16.07,3-1.94,5.64-3.85,8l-4.77,5.85a2.57,2.57,0,0,1-.94.83c-1.34.57-2.5-1.33-2.23-2.77s1.25-2.7,1.26-4.16a2.32,2.32,0,0,1-2.2-.84c-.38,1.52-1.18,3.16-2.69,3.58s-3.33-1.44-2.34-2.66a16.63,16.63,0,0,1-7.72,7.58l-1-2.76A12.63,12.63,0,0,1,80,29.53,4.62,4.62,0,0,0,76.36,25a8.32,8.32,0,0,0-6.22,1.82c-1,.86-1.9,2-3.15,2.5A3.77,3.77,0,0,1,62.61,28C61,29.42,61,32.49,58.88,32.88s-3.17-2.4-3.24-4.51c-.26-7.75,2.88-16.55,10.15-19.24C64.63,7,68,5.33,69,3.15a11.61,11.61,0,0,1,.84-2C70.65,0,72.27,0,73.62.2c3,.57,5.26,3.68,8.69,3.18C84.88,3,87,0,89.68,2.14A16.46,16.46,0,0,0,88.29,7.48Z"/><path class="cls-2" d="M63.78,125.76l58.67-4.44a8.8,8.8,0,0,0,4.36-1.1c1.86-1.25,2.48-3.68,2.89-5.89a112.53,112.53,0,0,0,1.83-20.56c0-3.71-.25-7.41-.58-11.11-.14-1.57.89-6.15-.26-7.08a5.13,5.13,0,0,0-3.12-.77c-21.26-.59-42.39.17-63.63,1-16.23.65-29.6,2.16-42.06,13.86-6.8,6.38-13.81,14.34-13,23.63.53,6.4,4.77,12.19,4.63,18.62,2.24-2.4,5.85-2.8,9.13-3.05Z"/><path class="cls-3" d="M102.63,1.4c.41.21.38.33.69.58v.18h-.18a18.9,18.9,0,0,1-4.21,4.08c-.41-.29-.68-.12-1.26-.08l0-.36c.66-.32.56-1,1-1.56,1-1.26,3-1.55,3.95-2.83Z"/><path class="cls-3" d="M107.13,1.67l.36,0A2,2,0,0,0,107.41,3c-1.46.34-1.68,1.74-3.35,1.79a.87.87,0,0,1-.69-.59l1-1.2c1-.58,2-.45,2.78-1.28Z"/><path class="cls-3" d="M88.5,0l.9.05,0,.36A24.73,24.73,0,0,0,86.3,3.48c-.6.9-.4,2-1.41,2.44-.4-.47-.66-.2-1-.43h-.18c.72-1.54,1.45-3.67,2.79-4.52.64-.41,1.52-.43,2-1Z"/><path class="cls-3" d="M57.26,144.45a2,2,0,0,1,.83-1.76c.32-.25.22.23.56-.32.2-.16,0,0,.19-.17l-.36,0c-.13.31,0,.18-.2.35l0-.54c.79-.6.63-2,1.59-2.43.09.24,0,.14.17.19.15-.17.07,0,.2-.34-.33-.24-.22,0-.16-.37.25-.62.35.13.59-.69-.06-.05.29-7.24.14-8.47l-.54,0c-.34.27-.47.28-1.1.29V130c.43-.41,1.17-1,1.36-1.54a15.94,15.94,0,0,1-2.31-3.57,3.81,3.81,0,0,1-2.14-.49c-.13-.19-.06,0-.16-.37.35-.26.27-.14.41-.7l-.36,0c-1.49-1.31-5.73-1.31-7.53-.81-6.23,1.74-10.09,4.93-12.73,10.6-.49,1-.92,2.23-1.27,3.17s.29,2.77,0,3.07c-.83.59-1,.32-1.8-.11A31.81,31.81,0,0,1,33,134l-.36,0c-1,.66-2.38.48-3.66.86-2.19.64-7.33,2.1-9.66,1.58l-2.34,0-2.1-1.21c-.63-.84-.51-2.21-1.64-2.62-1.87.6-2.55-3.85-2.34-6.1,4.28-1.78,12.07-1.88,17.33-3.1,1.41-.33,2.33.09,3.61-.15l4.84.47a6.69,6.69,0,0,1,2.73-.37l2,.3c.68-.16,1.3-.85,1.87-1.16a23.66,23.66,0,0,1,6.62-1.94,17.72,17.72,0,0,1,7,1c.5.31,1.54,1.52,2.24,1.76.13,0,6.63-.44,7.61-.63l1.62.1c3.38-.57,6.82.27,9.94-.31l2.7.17c5.9-1.13,13.17-1.27,18.73-2.49L106,120l2.52.15c.51-.14,1.18-.78,1.68-1,1.28-.49,2.33-.6,3.68-1,.5-.16,1.68-1,2.56-.57,0,.19.09.37.14.55s1-.4,1.46-.27a8,8,0,0,1,1.77.65c1.39.9,1.91,3.12,3.56,3.82,1.26-1,4.46-.68,4.84-2.6,1.66-1.63.44-5.1,1.21-8a55.33,55.33,0,0,0,.78-10.06l.32-5.21a23,23,0,0,1,0-3.43c0-.24.3-.43.24-.89-.18-1.33.13-3.06,0-3.78a39.82,39.82,0,0,1,.2-9.19h-.18c-.79.5-2.31.2-3.11.71a3.76,3.76,0,0,0-.29,1.79c.31.57.35,6.12.12,7a19,19,0,0,0-.1,4.69c.45,2.66-.64,5.53-.29,7.74.21,1.35-.16,3,.09,4.51a25.63,25.63,0,0,1,.1,7.41c-1,.18-2.17.8-3.14,1.07a2.15,2.15,0,0,1-1.25-.07c-3.16.92-7.07.7-10.55,1.35l-2-.12c-2.62.43-5.62-.06-8.49.21l-4.67-.28c-5.13.86-11.17.29-16,1.2l-3.61,0a31.51,31.51,0,0,1-6.35.52c-1.06-.07-2.69.73-3.46.51-2.39.68-5.41,1.43-7.8.8l0-.72c.82-1.12.29-4.92.2-6.31.42-.83.11-3,.08-4.32,0-1.52.6-4.85.28-7.74a27.56,27.56,0,0,1,.06-6.86c.43-2.09-.77-5.25.59-6.82.5.33.71.13,1.43.09.13.44.06.3.33.56a9.1,9.1,0,0,0-.23,3.78,17.44,17.44,0,0,1-.38,3.4c-.07.77.32,2.64.15,3.44a28,28,0,0,0-.36,9c.12.88-.32,3.37-.26,4.31.15,2.29.69,5.44-.07,7.21l.54,0c1.32-.76,3.3-.41,4.92-.79,3.27-.76,7.53-.79,10.72-1.34l3.43,0c5.67-1,11.9-.78,17.22-1.31l4.31.26c1.35-.23,2.82-.17,3.81-.32l3.78.23c2.17-.36,4.65,0,7.24-.47l7.48-1.35c.07-.12.14-.23.2-.35-.53-.63.12-1.76.17-2.7a22.6,22.6,0,0,0-.49-4l.12-2c-.4-2.51.06-4.83.26-7.2a20.06,20.06,0,0,0-.31-4c-.27-1.6.37-3.89.52-5.56.18-2.14-.38-4.67-.33-6.52h-.18c-.87.5-2.43.23-3.46.51.79,1.33.28,3,.61,4.91.54,3.3,1,8.2-.3,11-6.43,3.16-16.57,2.55-24.6,3.93l-3.77-.22c-1.91.31-4.23.18-5.62.38l-3.77-.23-2.19.41-6.67-.22a14.72,14.72,0,0,1-2.18.23c-1.77,0-3.28,0-3.32-1.64-.5-.95.06-2.39-.15-3.62-.44-2.62-.25-7.47-.45-10.49-3.42-.06-12.59,1.53-13.31-.62-.94-1.18,1.25-5.33,1.65-6.58l-1.07-.06c-.54.27-1.42-.08-2.17,0-1.66.29-3.38.23-5.27.59-2.22.41-4.8.73-7.11,1.19l-3.8.13c-2.06.4-3.51,1.14-5.28,1-.8,1-2.18,1.57-3,2.52C26.93,86.39,23.89,90,21,93.73c-1.11,1.43-2.79,2.64-3.52,4.48l.36,0c.22-.13.31-.12.73-.13.84,3.93-.47,8.88.28,13.36a24.33,24.33,0,0,1-.2,3.24c.19,1.46.76,2.81,1,4,.51,2.32,0,5-.89,5.9a2.91,2.91,0,0,1-1.06-.42c-.13-.22-.12-.31-.14-.73,1.37-1.78,0-5.87-.43-7.79s.57-4.51.08-7.39a43.3,43.3,0,0,1-.55-8.87l-.35,0,0,.36a10.79,10.79,0,0,0-1.61,2.79c0,.73,0,1.45.05,2.17-.29,1-.79,2.4-1.11,3.54-.25.86.43,2.47.36,2.91-.16,1.19.12,3.55,0,6.14l.54,0c-.16.59-.21.41-.42.88.37.09.35.06.53.21l-.54,0c-.11,2.29.66,4.95,0,6.49-.44-.17-1.19-.14-1.43-.27-.87-1.07-.54-3.86-.75-5.45l-.54,0c-1,.81-3.08.53-3-1.26-.55-1,.09-2.66-.12-4a13.36,13.36,0,0,1-.49-3.81h.18v-.18a4.65,4.65,0,0,0,1.29-.47l2.31.5a10.45,10.45,0,0,0,0-3.06c-.41.13-.27.13-.56.32l0-.72c1.9-1.89,1.78-4.73,3.31-7C16.61,96,19.67,93,22.11,89.83a40.44,40.44,0,0,1,2.95-4c.54-.55,1.41-.92,1.89-1.51,1.46-1.77,3.87-4.89,5.94-5.78h2.89c1.6-.28,3.35-.29,5.27-.58,5.44-.82,11.28-2.19,17.79-1.82a21.52,21.52,0,0,1,1-1.92c.14-.21.58-.16.74-.32l.65-1.76a3.84,3.84,0,0,1,3.89-1.75v.17a3.23,3.23,0,0,0-1.2,1.92h.18c1.25-.92,3.42-.76,5.12-1.14,3.56-.78,6.92-.45,10.72-1.16,2.56-.48,5.22-.69,7.82-1.15l2.34.14c2.74-.46,6.89-.24,9.23-.53l7.59-.08c4-.72,7.46-1.31,10.95-2,2-.43,3.69.15,5.41,0,2.26-.25,4.13-.76,5.62-.38,1.3,2.79,2.18,5.77,3.65,8.34.54,1,.47,2.06,1.65,2.44l0,.72a3.77,3.77,0,0,0-1.33,1.18c.53,1-.44,2.85-.26,4.32.3,2.51-.49,5.48-.24,9.91.17,2.91-.66,9.58-.46,13.68.17,3.57-1.71,6-.55,9.17a8.14,8.14,0,0,0-.76,3.56,12.17,12.17,0,0,0-.85,2.12c-1,.35-5,1.46-5.36,2.2s.88,3.21.24,5.07-2.26,3.17-3.17,4.68l.36,0c2.19-1.57,5.62-2.42,8.65-2.91v-.18c-1.36-.83-3.77-1.59-3.94-3.48.44-.17.33-.15.57-.51,2,0,3-.5,5.61-.2.95.11,2.34.84,3,.54-1.65-.64-1.69-2.21-2.68-3.41a46.32,46.32,0,0,1,2.51-5.62c1.11-2.44,1.57-5.31,2.62-7.6.68-1.49.42-3.4,2.2-3.66.24.47.06.28.7.4-.06,1.55-1.24,2.84-1.88,4.22-.36.78-.73,3.23-1,4.09-.71,2.6-2.55,4.6-3,7.76,1.47,1.77,2.73,5.25,5.81,5.4.72-.33,1.47.73,2.11,1,1.18-1.38,3.29-2,4.53-3.33,2.42-2.63,4.67-8.16,6.29-11.71a34.23,34.23,0,0,0,1.42-5.51c.27-1.07.08-4,.5-5.38-.06-1-.12-1.94-.19-2.9.92-4-.13-8.28-1.1-11.62-.64-2.19-.67-4-1.44-6a43.71,43.71,0,0,0-6.55-11.22c-.43-.53-.51-1.34-1-1.86-1.71-2-5.68-4.3-7.94-5.89-5.28-3.71-12.93-6.13-19.7-8.4l-8.23-1.22a5.06,5.06,0,0,0-1.45.1l-.16,2.69c-1.12.37-1.9,1.9-2.86,2.54a29,29,0,0,1-5.6,3.09c-1.89.7-3.8.69-5.85,1.27-5.78,1.65-13,3.7-19.64,2.61-.91-.15-2.77.49-3.81.31-3.86-.64-8.54-3.5-11.57-5.56,1.29-3.36,1.71-7.43,2.61-10.49.5,0,.66,0,.94-.67-.09-.14-.12-.65-.29-1.1-.87.48-1.57,1.36-2.79,1.46-.75.06-1.51-.78-1.94-.84,0,0-3.75.82-3.84.85a121.91,121.91,0,0,0-20.43,9.78,35.9,35.9,0,0,0-7.81,6.75c-1,1.09-2.47,1.91-3.43,3-2.91,3.42-6,6.74-8.57,10.49-2,2.85-2.84,6-4.36,9.48-1.11,2.53-2.13,4.8-3.31,7.2-.74,1.49-1.52,6.79-2,8.54C.38,118.76,1.56,130.58,7,140.16c.79,1.4,1.11,2.75,1.92,4.09.43.72,1.38,1.24,1.87,1.91.18.26.1.7.3.92a19.29,19.29,0,0,0,3.65,2.39c.17.07.62-.19,1.08.06s1.11,1.1,1.72,1.37a5,5,0,0,0,1.79.29c.24,0,.67.68.85.77a29.39,29.39,0,0,0,5,1.56c3.62,1,6.71-1.07,9.75-.13a14,14,0,0,0,.45-1.42,61.25,61.25,0,0,1-1-8.18l-.54,0c-.12-.59.1-.27-.33-.56-1.47,1-8.62,1.67-9.92,0,.87-.12.77-.56,1.31-.83l2,.3c2.72-.13,6.79-1.12,9.22-.35a10.21,10.21,0,0,1,6-3.61,2.41,2.41,0,0,1,.28,1.46c.16.35-.57,2.34-.74,3.21h.18c1.14-1.51,5.13-4.59,7.33-4.79a19.8,19.8,0,0,1-.85,5c1.23-.11,1.69-.59,3.28-.53a1.9,1.9,0,0,1,.3,1.1,1.83,1.83,0,0,1-.29,1.79c-.53,1.28-1.9,1.55-2.85,2.35-2.21,1.9-6,6.36-10.91,4.4a1.52,1.52,0,0,1-1,1.56c-1.8,1.24-6.11.51-8.72.92-3.86.61-6.86-1.09-10.13-2.59-.72-.33-1.23-.15-1.95-.48a21.13,21.13,0,0,1-10.24-9.82c-.59-1.2-.68-2.31-1.23-3.5C2.76,134.88,1.15,132.07.15,128c-.39-1.57.28-2.35.07-4.14a35.29,35.29,0,0,1,1.43-14.71,11.57,11.57,0,0,0,.16-2.7,40.3,40.3,0,0,1,.82-4.64C4.1,97.26,5.5,93.67,7.15,89.65c.71-1.72.92-3.27,1.74-4.94.49-1,1.48-2,2-2.95l.86-2.3c2.76-3.91,6.1-7.37,9.14-11,1.1-1.31,4.51-3.59,5-5.12l.54,0c.86-1.65,5.05-4,6.8-5s3.07-2.39,4.71-3.32c1.83-1.05,3.8-1.4,5.9-2.18.77-.28,1.56-1,2.24-1.3,1.63-.69,3.2-.76,4.79-1.52a18.69,18.69,0,0,1,2-1.14L56,48.56c.2-.15,0,0,.19-.16C54,46.62,52.83,39.85,53.43,37c.34-1.57-.29-3.49.49-5,.62-1.24,2.31-1.64,2.52-2.91-.54-.93-.37-3.11-.31-4,.08-1-.31-3,.08-4.33A30.9,30.9,0,0,1,59,14.1c.69-1.14,2.09-2,2.71-3.08-.38-.32-.52-.34-.31-.74.77-1.91,3.29-2.52,5.91-2.35.09.69.18.52.49.93-2.46,0-5.37,0-5.91,2.17l.36,0c1.14-.94,2.89-.41,4.35-.28a2.74,2.74,0,0,0,.49.93l-.9,0c-1.31.43-2.87-.34-4.18.47-1,.64-1.52,2-2.17,3.11a22,22,0,0,0-2.57,6.71,8.43,8.43,0,0,0,.34,3.26l-.13,2.16a9.08,9.08,0,0,1,.2,2.72,4,4,0,0,1,1.71,1.55c.57-.12.51-.33.91-.13.71,1.14-.37,4.57.16,6.33.65,2.15,1.11,4.75,1.93,7,.6,1.64,1.93,3.5,2.2,5.36.1.67-.57,1.12-.84,1.94-.58,1.8.33,4.32.95,5.29,2.06,3.2,5.6,3,10.46,3.15,1,.72,7.35-.41,9.25-.89,2.06-.51,3.77-1,5.68-1.46l1.45-.09c3.42-1.21,6.22-3.84,9.18-5.59.63-.37.93,0,1.46-.27.33-.19.14-.61.41-.88l.73-.13.42-1.06.75-.32c.27-.34.13-.76.42-1.05.72.21,1.22-.85,1.52-1.35.11-.21,0-.15,0-.72.51-.18.49-1.08,1-1.21l.17.19,0-.36c1.46-1.45,1.07-5.53,0-6.49.07-.28,0-1.57.11-1.8s.28-.66.41-.88l.36,0c.53-1.06.36-5.74.58-6.65.39-1.58-.13-2-.36-2.9-.49-1.83,1-3.75,1.54-4.6a1.34,1.34,0,0,1-.86-.78c.69.09,1,.27,1.44.09,1.94-.52,2.23-2.19,3-4.15,1.63-4.43,1-5.78-1.06-9.27a10.59,10.59,0,0,0-1.65-2.62c-.32-.28-.88-.23-1.24-.44-1.91-1.13-3.95-3-6.71-2.39-1.63.36-2.58,1.26-4.58,1.17-.16-.42-.28-.41-.5-.75a25.06,25.06,0,0,1,6.25-1.79c2.23-.33,3.75,1.08,4.94,1.74,4.25,2.35,6.56,4.65,7.53,9.84.36,1.88-1.57,6.2-2.44,7.61-.39.63-1,.8-1.19,1.73,1.46.81,1.18,3.11,1.51,5,.62,3.54.33,10-1.62,12a6.87,6.87,0,0,1-2.62,1.47c-.08,3-1.31,6.76-3,8.3.15.7.62,1.37.78,2,.27,1.17-.26,1.82.21,2.54.65-.65,6.48.06,7.91.47,6.76,1.95,16.25,4.29,21.14,8.49a5.66,5.66,0,0,1,1.23.44,78.4,78.4,0,0,1,7.61,5.51,29.5,29.5,0,0,1,4.34,5.85,25.54,25.54,0,0,0,.93,2.58c2.84,4.33,4.17,10,5.74,15.5.76,2.66-.06,5.36.4,8.33a33.78,33.78,0,0,1-1.13,12.92c-1.55,4.38-4.5,10.72-7.53,14.16-1.21,1.37-5.29,2.87-6,4.15h-.17c-.19.17.16.19.16.19a2.42,2.42,0,0,1,.44,1.83c-1.08,1.23-1.32,2.88-2.76,3.8a27.19,27.19,0,0,1-15.74,3.75,2,2,0,0,1-.45-1.47c-.25-.57.11-.62.42-1.06l-.36,0a1.65,1.65,0,0,0-1.79-.29,10.49,10.49,0,0,1-.09-1.45,1.93,1.93,0,0,0,.77-.85c-1.89-.12-2.59-.86-3.7-1.49-6,5.06-21.88,1.48-17.34-8.62l-2.88-.17c-1.19.79-4.76.51-7.27,1-3.8.75-8.19.53-12.17,1.26L77.74,128c-1.62.27-3.79.19-5.08.41a11.54,11.54,0,0,1-2.88-.17,21.62,21.62,0,0,0-6.58,1.41c-.15.2-.15.29-.22.71.46.78,0,2,.18,3.07.41,2.95-2.29,11.17-5.9,11Z"/><path class="cls-3" d="M75,7.85A6.83,6.83,0,0,1,71,6.52c-.5-.38-1.29-1.53-2.26-1.4-1.29.19-1.19,1.8-2.46,2a2.41,2.41,0,0,1-.14-.73c1-.63.61-1.83,1.4-2.26.63-1.1,1.21-.25,2.39-.76.54-.23.89-1.21,1.36-1.54C72.82.73,75,.8,77.42,1.14,78.79,3,82.11,4.21,82.11,7.19c-.15.18-.07,0-.2.35a6.52,6.52,0,0,0-1.46.28c-.23-2.1-3.82-5.67-6.51-5.81a12.3,12.3,0,0,1-2.82,2l0,.36c1,.35,4,2.16,3.94,3.48Z"/><path class="cls-3" d="M103.32,23.62c0,.43.06.85.1,1.27-.21.15,0,0-.19.17a30.63,30.63,0,0,1-6.13,0c.15-.55.14-.37.4-.69-.65,0-.89.16-1.26-.08l.36,0c.27-.19.68-.27.93-.48-.65-.31-1.63-1-1.16-1.7l0-.36.18,0a1.9,1.9,0,0,0,.12,1.09,12.15,12.15,0,0,0,4.87-9.09c.58.13.43,0,1.27-.11a4.89,4.89,0,0,1,.08,1.63c.82,1.51-2.06,6-3,7-.47.57-1.23.91-1.71,1.52l1.26.08c.78-.44,2.79-.32,3.81-.32Z"/><path class="cls-3" d="M88.91,26.19l.72,0c2.67-3.05,6.93-5.55,6.63-11.33.57.07.15,0,.57-.51.25.31.57.67.85,1-.12,5.12-2,6.41-4.35,9.3-1.08,1.3-2.18,2.89-4.13,2.64a2.66,2.66,0,0,0-1-1.33c-1.12,1.71-3,3.64-5.8,3.44-.25-.6-1.05-1.47-1.14-2,0-.23.16-.72.06-1.08-.79.46-1.11.9-2,.78a4.24,4.24,0,0,1-.45-1.47,4.74,4.74,0,0,0,.41-.88c.56.3.21.23.89.24.37-1,1.37-1.34,1.93-2.05,1.19-1.52,2.17-3.28,3.16-4.5a2.74,2.74,0,0,0,.12.91h.18c.19-.58-.07-.28.39-.52l0,.36c1,1.66-3.26,5.91-4.17,6.42a17.53,17.53,0,0,0,.06,2,6.25,6.25,0,0,0,1.77.47c1-1.12,2.67-2,3.63-3.21s2.28-4.22,3.42-5.93c.31-.47.15-1.36.47-1.77.28.75.34,0,.69.4,1.59,2.3-2.77,6.85-2.86,8.67Z"/><path class="cls-3" d="M103.48,19l.72.05c.64-1.61,2.32-2.29,3-4.16h.18l-.06,1.08c-.79,1.15-1.36,4.44-3.17,4.68-.34-.62-.61-.67-.62-1.66Z"/><path class="cls-3" d="M69.05,26.44a5.08,5.08,0,0,0-.59-2.2v.18c-1.11,1-1.72,4-3.5,4.11-.15-.49-.21-.32-.3-.92-.19-.41.5-1.39.83-1.93.45-.73,1.32-1.21,1.74-1.88.83-1.32,1.19-3.08,2.24-4.2,0,.68-.13.63.3.92.35-.13.14-.07.54,0a14.57,14.57,0,0,0-1.46,3.34c.6,0,.45-.36.71.22-.37.28-.32.24-.42.88l.36,0a29.5,29.5,0,0,0,2.85-2.36c1.27-1.55,1.65-3.35,2.81-4.7.36.45.45.31,1.06.43a6,6,0,0,1,.07,1.8c-2.38,1.73-3.57,6.68-7.23,6.25Z"/><path class="cls-3" d="M79.44,18.58c.13.22.12.31.14.73.51,0,.38-.17.72,0,.76,1.07-.11,2.09-.53,2.86-1.07,1.92-2.14,5.12-4.82,5.12a4.68,4.68,0,0,0-.82-1.49c.14-.33.31-1.09.45-1.42l.36,0a3.39,3.39,0,0,0-.08,1.26l.37-.16c1.12-1.91,3.84-4.46,4.21-7Z"/><path class="cls-4" d="M111.85,22.69c-1.84,2.8,0,4.08-1,7.7a40.83,40.83,0,0,0-.87,8.43l.36,0v-.18c3.42-.94,3.07-10.95,2.61-13.37-.2-1-.39-1.67-.57-2.56l-.54,0Z"/><path class="cls-3" d="M63.43,20.87a2.42,2.42,0,0,1,0,2.16,73.75,73.75,0,0,1-2.78,7.23l-.36,0c-.2-.45-.3-.29-.5-.75s0-1.31.3-2c.73-1.91,1.23-5.13,2.56-6.52v.18c.34.32-.14.2.33.38a2.38,2.38,0,0,1,.41-.69Z"/><path class="cls-3" d="M101.4,25.49a4.94,4.94,0,0,1,1.95.48,2.94,2.94,0,0,0,.13.91c-1.62-.13-5.68.82-6.41,1.6-.21.15,0,0-.19.17l.9.05c1.47-1.19,5-1.31,7.07-.65a3.82,3.82,0,0,0,.31.92C102.07,28.9,96,31.53,95,30.7c-.36-.24-.33-.14-.51-.57.21-.15,0,0,.2-.17.4.09.18.18.53,0a19.91,19.91,0,0,0,1.54-1.53,1.39,1.39,0,0,1-1.74-1c.89-.28,2-.93,3-1.26,1.1-.4,2.53-.12,3.47-.7Z"/><path class="cls-3" d="M73.87,31.11l0,.72c-1.56.11-2.68,1-3.89,1.57l0,.36h.18c1.31-1.18,3.41-1.28,5.48-1.11a2.77,2.77,0,0,1,.14.73,30,30,0,0,0-3.48.87A21.72,21.72,0,0,0,70,35.93c-.55.36-1.25.9-1.84.61a1.5,1.5,0,0,1-.65-1.12h.18c.31-.67,1.26-1,1.88-1.33v-.18l-1.08-.07a1.48,1.48,0,0,1-1.81.08,1.1,1.1,0,0,1-.33-.38c1.49-.73,2.29-2.73,3.81-3.38,0,.64-.29.35.33.56v-.18h.18a2.17,2.17,0,0,0,.13.73c1.22-.53,1.42-.43,3.08-.18Z"/><path class="cls-3" d="M101.45,32.35a7,7,0,0,1,1.87.64,6.89,6.89,0,0,1,.44,1.41c1.32,2.71-4.6,4.42-7,4.26-1-.89-2-1.16-2.08-2.9,1.29-1.14,2.43-2.42,4.17-3,.69-.25,2,0,2.62-.37Z"/><path class="cls-4" d="M101.21,33.55c-.47.28-.93.13-1.25.62a2.26,2.26,0,0,1,.86,0,2.37,2.37,0,0,0,.42,1.76,7.66,7.66,0,0,0,.64-2,2.23,2.23,0,0,1-.67-.39Z"/><path class="cls-4" d="M56,31.24C54,35.06,55.26,41.62,56.56,45c.65,1.66.84,3.54,2.83,4,.87-.74,1.66-.74,1.94-2.23-1.51-1.84-1.45-4.89-2.26-7.35-.23-.7-.78-1.73-.94-2.4l-.27-4.53c-.68-.53-.75-1-1.91-1.2Z"/><path class="cls-4" d="M99.27,34.13c-.22.13-.3.12-.71.13l0,.35a2.86,2.86,0,0,1,.81,1.09h.17l0-.7c-.11-.18-.18-.7-.29-.88Z"/><path class="cls-3" d="M77,35.45c-3.89,0-5.38,3.54-8.87,3.44v-.18H68c0-.37-.07-.73-.11-1.09,2.69-1.16,5-3.47,9.21-3.24v.18h.18c-.08.3-.15.6-.23.89Z"/><path class="cls-4" d="M97.81,35.26l-.52,0c-.31.4-.67.51-.92,1,.14.24-.08.21.14.53.22.66.63.6,1.52.61v-.17h.18c-.37-1-.49-.72-.41-1.93Z"/><path class="cls-3" d="M84.83,46c-.37-.09-.34-.07-.53-.21.08-.06,1.4-2.26,1.4-2.27a55.16,55.16,0,0,0-1.21-6.92l.54,0c.19.38.11.34.51.57.3-.31.17-.24.74-.32l.15.55c.58,1,.18,4.54.95,5.11.62-.37.93-.16,1.81-.07a4.55,4.55,0,0,1,.27,1.64c-.49.15-.33.21-.92.31a1.89,1.89,0,0,0-.67-1c-.75.63-1.8,1.13-2.29,2H85.4c-.11-.59.11-.27-.32-.56-.09.36-.17.71-.25,1.07Z"/><path class="cls-3" d="M100.73,39.84a4.9,4.9,0,0,1,2,.63c-.19.94-.73,1.05-1,1.67,0,.54-.07,1.08-.11,1.63-1.2,2-4.05,2.42-6.33,3.52a150.42,150.42,0,0,1-16.46,7.2,13.21,13.21,0,0,1-3.41.33c-.21,0-1-.48-1.1-.5-.42,0-.75.36-1.42.43a1.86,1.86,0,0,1-.41-1.07C71,52,74.39,48.91,74.91,51.23a4.75,4.75,0,0,0-1,1.85l.36,0c.3-.13,4.13,0,5.39-.41,4.46-1.51,9.39-4.31,13.61-6.36,2-1,4.6-1.46,6-3,.79-.86.87-2.47,1.47-3.49Z"/><path class="cls-3" d="M70.52,39.88a8.13,8.13,0,0,1,2.55.32,3.17,3.17,0,0,1,2,3c-1,1.05-1.9,1.49-2.88,2.39-1.33,0-2.75-.12-4.43-.26-.25-.35-.76-.42-1-.75-.38-.55-.61-1.39-.91-1.93.44-.52.32-1,.28-1.7a13.83,13.83,0,0,1,1.41-.77c.93-.24,2.16.11,2.93-.33Z"/><path class="cls-4" d="M70.26,41.4c-.21.25-.19.13-.37.49h.17v.17l.34,0a2.55,2.55,0,0,0,.38-.66l-.51,0Z"/><path class="cls-4" d="M72.82,41.64c.23.83-.12,1.3-.31,2.14l.36,0c.35-.45.85-.86.63-1.41a1.34,1.34,0,0,0-.68-.76Z"/><path class="cls-4" d="M69.74,41.54l-1.21.1a1.76,1.76,0,0,0-.4,1,5,5,0,0,0-.06,1,3.21,3.21,0,0,0,.82.57,24.15,24.15,0,0,1,.85-2.69Z"/><path class="cls-3" d="M107.45,44.8c.14.19.07.06.16.37h-.18l0-.36Z"/><path class="cls-4" d="M70.64,43.65c.14.53-.24.43.47.71a1,1,0,0,1,.36-.32v-.17l-.84-.22Z"/><path class="cls-4" d="M105.65,50.83c-1.18,2.23-4.24,3.66-6.43,4.84s-4.25,3-6.72,3.75a134.22,134.22,0,0,1-13.17,3l-3.77-.23c-6.31,1-11.44-1.14-13-5.29l-.36,0c-.14,1.66-.78,2.71-1,4.28,2.58,1.42,4.63,3,7.69,4.07,2.4.81,4-.39,6.84.23,3.06.66,8.39-.46,11.45-1.3,1-.29,1.79-.09,2.91-.37.7-.17,1.57-.71,2.22-.94,1.33-.48,2.51-.25,4-.67A28.43,28.43,0,0,0,104.68,58a18.46,18.46,0,0,1,1.58-2.25c.14-1.61.09-3.94-.61-4.91Z"/><path class="cls-3" d="M101.81,51.68l.36,0v.18c-.31-.13-.17,0-.35-.2Z"/><path class="cls-5" d="M125.38,67.71c-1.35.68-6.24-.13-8.32.4-12.26,3.15-27.2,1.31-39.56,3.76L73.34,72a66.48,66.48,0,0,0-7.13,1.56c-.63.19-1.36.34-1.83.43-.3.06-1.13-.38-1.24-.26A4.24,4.24,0,0,0,61.74,76c.13.2.06.06.16.37a6,6,0,0,0,1.92,1c1.93.86,4.85-2.76,6.14-3.06.36.23,1.06-.39,1.81-.07s1.82,1.39,2.6,1.78c1.54.78,3.89-.12,5.27-.76,2.18-1,2.67-3,6-2.89,1.1,2.59,5,2.44,7.84,1.73,2.11-.53,6-2.89,7.38-2.8s2.34,1.9,4.24,1.51a22,22,0,0,0,4.23-1.37c1-.59.61-1.22,2.43-1.29,2.42,2.55,7.63.44,10-.67,1.07-.51,2,.12,2.86.36a6.89,6.89,0,0,1,1.72-1.52c.34.32.8.33,1,.78-.64.7-.91,1.57-1.92,1.87-1.4,1.07-1.73-.37-2.88-.17-.65.11-1.72,1.07-2.42,1.29-1.42.47-2.94.34-4.37.64a23.86,23.86,0,0,1-4.48-.45,28.75,28.75,0,0,1-5.17,1.86c-.91.23-2.07,0-2.54.21-1.21-.17-2.17-1.39-3.54-1.12-3.11.61-6.69,3.58-11,2.77a10.2,10.2,0,0,1-3.2-.74c-.6-.3-1-.9-1.74-1.18-1.56,2.33-5.29,3.42-8.15,3.66-1.49.12-4.87-1.82-5-1.74a22.5,22.5,0,0,1-6.31,2.86c-1.57.35-3.78-1.25-3.9-1.13a2.1,2.1,0,0,0-.6,1c1.18.42,1.69,1.57,3.12,2,3.76,1.11,4.69-2.17,7.54-2.26a3.42,3.42,0,0,0,2.56,2.32c.47.28,4.53-.92,5.14-1.31.12-.09,1.15-1.2,1.15-1.2,1.88-1.12,3.68,1.79,5.49,1.78a17.17,17.17,0,0,0,6.39-1.24c1.29-.67,2.2-2.43,3.93-2.47a1.51,1.51,0,0,1,.91-.13c2.06,4,9-.44,11.81-1.27,1.8-.53,3.09-.14,3.91,1,2.9.27,7-1.88,9.73-2.84,1-.34,3-1.14,3.44-.15-1.79,1.43-4.32,1.81-6.66,2.66-1.88.69-3.64,1.87-6.07,2-1.57.07-2.15-1.15-3.71-1.3-1.16,1.17-7.69,3-9.93,3.19-1.19.12-3-1.33-3.73-1.13-1.18.31-2,1.29-3,1.81a17,17,0,0,1-6.94,1.39c-2.27-.07-3.34-1.47-5.13-1.76-1.07.87-4.77,1.68-5.38,2.57a2,2,0,0,1,.66.94c9.93-1.06,19.1-.92,28.5-2.8,1.42-.28,3.7.11,5-.06,3-.36,6.35-.62,9.1-1.25,3-.68,6.62-.52,9.81-1.22,1.38-.3,2.66,0,3.65-.68.15-.18.12-.16.22-.53-.82-.45-2.55-4-2.77-5,.59-.11.27.11.56-.32l-.36,0v-.18l-.18,0c-.09.37-.06.35-.21.53v-.18c-.79-1.23-.46-3.59-2.48-3.75-.33.14-.33,0-.9-.06Z"/><path class="cls-3" d="M127.72,67.85a3,3,0,0,0,1,2l0-.53c-.39-.5-.4-1.16-1-1.51Z"/><path class="cls-4" d="M119,80.5c-.22,4.9,0,9.77-.91,15.1a24.61,24.61,0,0,0-5.29,1,30.27,30.27,0,0,1-11-.3l-.16-.37a1.64,1.64,0,0,0,.57-.51c2.76.34,11.91.6,14.13-1,.9-1.21.67-7,.62-7.36-.1-.87.32-1.71.15-2.51-.28-1.43.27-3.21-.5-3.64-.79.46-1.82.17-2.91.37-3.3.59-7.17-.06-10.68.62s-7.83.42-12,1.26c-2.75.55-5.85.38-8.9.91a28.27,28.27,0,0,1-6.34.52,41.76,41.76,0,0,0,.62,4.55c-.18,2-.35,4-.53,5.92a31.5,31.5,0,0,0,5.58.16c.92-.08,2.55.62,3.77.4,3.29-.59,7.42-1.46,10.54-1.35v-.18c-.66-1.2.22-2.65-.09-4.51a20.76,20.76,0,0,1-.4-5.26A3.93,3.93,0,0,1,97,84.23v.18h.17c-.13,4.53,1,10,.45,13.56a1.88,1.88,0,0,1-1.1.29c-.72-.67-.9-.71-.77-2.21.12-.17,0-.34.06-.9a14.67,14.67,0,0,0-3.11.72,17.37,17.37,0,0,1-3.44.15c-1.12.11-2.51.49-3.65.68a14.25,14.25,0,0,1-4.85-.29c-2.83-.58-4.84.11-6.68,0V96.2h-.18c-.08-.55-.17-1.09-.26-1.64.34-1.88.94-3.88.55-6.1-.21-1.17-.5-2.4-.68-3.65l-1.8-.11a10.77,10.77,0,0,0,.38,2.73c.43,2.4-.35,4.29-.17,5.76.21,1.68-.77,4.82.38,5.62s3.37-.3,5,.12a22.14,22.14,0,0,0,6.86-.13l5.23.14A55.51,55.51,0,0,1,99,98.78c.06-1.7,1-5,.93-6.44a45.66,45.66,0,0,0-.2-5.78,14,14,0,0,1-.49-3.82l.36,0a2.39,2.39,0,0,1,1.27-.1l.15.55c.49.74.27,2,.5,3.63.53,3.86.47,9.11-1.42,11.65l1.26.07c1-.58,2.58-.22,3.82-.49,4.08-.89,8.7-.63,12.18-1.61,1.55-.44,3,0,3.36-1.79,1-1.6-.83-10.54.2-12.43h-.18v-.18c-.63.17-.67.46-1.3.64v-.18c.43-.52.28-1.12,1-1.38.2-.13.17-.1.55-.15l0-.54-2,.06Z"/><path class="cls-5" d="M58.37,83.89c5,.23,9.51-.81,14.83-.55l0-.72h.18a1,1,0,0,0,.49.75L74,82.3A6.62,6.62,0,0,1,70.1,81l-.33-.56c-.1-.15-.72.65-.76.67a14.71,14.71,0,0,1-4,1c-2.32.44-5.25-1.56-5.69-1.42a5.26,5.26,0,0,0-.92,3.19Z"/><path class="cls-3" d="M47.82,85.42l1.79.29,0,.36c.77,1.3.25,2.68.64,4.37.26,1.11.7,3.06,1,4.57.35,1.8,0,4,.19,5.78a5.89,5.89,0,0,1,.06,2.17l-1.28,3.17A34.1,34.1,0,0,1,45,107.81l-3.25,0c-1.66.27-3.43.66-4.93,1-1,.19-1.72-.11-2.54.21-1.09.43-.69,2-1.43,2.8-.91,1-4.72,2.17-6.42,1.78a15.16,15.16,0,0,1-1.13-2.24c-.48-1.72,0-2.45-.48-4-1-3.7-2.37-5.8-1.21-9.82,1.52-.31,2.35-2.16,3-2.52l.71,0c.23-.15.35-.7.6-.87A17.16,17.16,0,0,0,31.36,92c.67-.66,2.23-3.28,2.93-3.61l.9,0c1.16-.35,2.59-1,3.87-1.39a36,36,0,0,1,4.18-.47c1.55-.32,3.21-.08,4.38-.82.15-.17.06,0,.2-.35Z"/><path class="cls-4" d="M47.88,87.41c-2.91-.15-10.17.86-12,2-1.36.83-2.77,3.85-4.45,5S25.55,98,25,99.74c-.43,1.24.24,3.17.48,4,.86,3,1,5.67,2,8.42l.53.21c.41-.27,1-.21,1.47-.45,1.46-.74,1.83-2,2.36-3.28,3.3-1.35,8-1.66,11.14-2.22,1.66-.3,4.82-.33,5.3-1.13,1.84-1.59.59-3.35,1-5.53.82-3.85-1.33-8.26-1.42-12.35Z"/><path class="cls-3" d="M99.37,98.26l0,.36.36,0v-.17l-.35-.21Z"/><path class="cls-3" d="M43.76,104.84c.05.31.09.61.13.91-.69.06-.77.21-1.46.28-.59-.62-1.68-.77-2.26-1.4s-.8-1.43-1.35-1.53c-.86.86-.88,2.13-2.48,2.2-1,.59-2.15-.47-2.84-.71-1.44-3.37,0-9.12,4-9,.19-.13.06-.06.37-.15l0,.36A4,4,0,0,0,37,97l.36,0c.43-.94,1.19-1.06,2.58-.92a1.88,1.88,0,0,1,.29,1.1c.71,1.26-1,3.46-.61,4.11.88.87,2.89,3.21,4.12,3.49Z"/><path class="cls-4" d="M37.72,97.26l0,.36a2.14,2.14,0,0,0-1.45.1,5.45,5.45,0,0,0-.82,1.75l.36,0c.25-.16.42.1.54,0,.31-.2.36-.77.6-1-.07.64-.21,1-.08,1.26.33.17.13.09.54,0a1.19,1.19,0,0,0,.49.93c-.16.3-.49.3-.21.53s0,.07.35.2c.26-1.58.31-2.57.58-3.75-.46-.17-.41-.24-.88-.42Z"/><path class="cls-3" d="M37.65,98.52a.54.54,0,0,1,0,.72l0-.72Z"/><path class="cls-3" d="M37.43,99.23c.12.2.09.18.14.55h-.18l0-.54Z"/><path class="cls-4" d="M35,100.53a10.66,10.66,0,0,0-.3,2,3.2,3.2,0,0,1,.47,1.29,2.79,2.79,0,0,0,.69.4A17.23,17.23,0,0,1,37.8,102l0-.36A7.69,7.69,0,0,1,35,100.53Z"/><path class="cls-4" d="M11.59,111.75a5.1,5.1,0,0,1-1.94-.66l-.08,1.26c.73,1.2.16,4.33.37,6l.36,0c.76-.44,1.4-.11,1.69-1.16-.33-.6-.41-4.62-.4-5.44Z"/><path class="cls-4" d="M114.36,119c-1.25,1-3,1.13-4.44,1.9-3.73,2-9.38,10.17-3,13.35s13.82-.56,15.66-5.37l-.18-3.08c0-1.09-3.77-6.06-5-6.26-.87-.7-1,0-1.63.09-.78.16-.07-.73-1.25-.26-.1-.32,0-.17-.16-.37Z"/><path class="cls-6" d="M105.56,121.37c-1.8.89-5.09-.06-7.43.45-2.92.65-5.3.49-8.36,1.13a44.53,44.53,0,0,1-6.19.89c-2.23,0-6,0-8.13.23-4,.48-6.81-.29-10.31.28-1.63.27-3.72-.67-4.53.45.73.82,1.53,3.26,2.49,3.58,3.4-2,8.94-.64,13.61-1.35,3.76-.56,8.12.09,12.31-.7,5-1,9.78-1.37,14.55-1.83a10.09,10.09,0,0,1,2.52-2.92l-.53-.21Z"/><path class="cls-3" d="M112.66,123.24c1.76.08,2.42.71,3.72,1.13.28.43.55.87.83,1.31-.09,2.95-2.12,5.5-4.83,5.3-.59-.4-.82,0-1.28.28-.09-.57-.1-.38-.32-.74a1,1,0,0,0,.38-.33l-1.39-.81c-.33-3.27-.66-2.66,1.37-4.79.42-.44.34-.78,1-1,.15-.12.42-.21.56-.33Z"/><path class="cls-4" d="M112.58,124.68a2.36,2.36,0,0,1-.56.33c-.14.91-.5,1.35-.68,2.3a18.88,18.88,0,0,1,1.32,2.06h.18v-.18a6.67,6.67,0,0,0,1.7-1.34,2.86,2.86,0,0,0,.32-2.32,2.87,2.87,0,0,0-.7-.41,2.38,2.38,0,0,0-1.59-.45Z"/><path class="cls-4" d="M141.56,131.83l-.89-.23c-.18-.49-.32-.4-.49-.93.46-.2,1.21-.42,1.66-.62v-.18l-.71-.05a.86.86,0,0,0-.9,0c-.39.27.11.22-.38.34-1.4.4-8-4.62-11.05-2.29H129V128c1.51.77,3.67,1.6,4.13,3.32l-.18,0c-1,.92-2.17.47-3.66.87-2.1.55-4,1.89-6.1,2.34v.18l.72,0c.74.48,2.67.15,4-.12a3.13,3.13,0,0,0,.49.75c-.13.31,0,.17-.2.35-.69.79-2.24.53-2.79,1.45h-.18v.18c1.13,0,2.5-.06,2.84.72h.18c.17.19-.19.16-.19.16-.24.4-1.37,1.45-1.18,1.56a1.26,1.26,0,0,0,.71.22c1.39-.71,2.61-.08,4.18-.47,4.23-1,10.29-2.62,9.85-7.71Z"/><path class="cls-3" d="M39.16,124.41c-.22.14-.31.13-.73.14l0,.36.9,0c.19-.13,0-.06.37-.15v-.18l-.53-.22Z"/><path class="cls-6" d="M12.83,127.16c-.15,1.81.44,3.64,2.3,3.75.62-.52,2.66-.5,3.84-.85,3.09-.92,7.84-2.84,11.13-2,.73.18,2.52-.36,2.89,0,.14.38.09.65-.41.88-1.53,1-3.56-.06-5.62.38a96.09,96.09,0,0,0-10.82,3,8.31,8.31,0,0,0,1.29,2.43c1.75,1.54,10.42-1,13.1-1.74,1.46-.41,2.87-.36,3.69-1.41,1.61-2,2.48-4.72,4.7-6v-.18l-.9,0c-1.47.58-4.81-1-7.36-.62-4.68.76-12.12,2.2-17.84,2.53Z"/><path class="cls-3" d="M50.06,129.22c3.14,1.13,3.83,1,4.42,4.41a2,2,0,0,1-.08,1.44c-.55,1.35-1.82,1.44-2.67,2.37-1.44-.25-3.15.25-4.63-1l.36,0c.64-.79,3.3.48,4.42-1.54.58-.52.65-1.32.69-2.48-1.43-.95-2-1.75-4.58-1.9l-1.15,1.19a4.45,4.45,0,0,0,.21,2.54l-1.44-.09c-.2-.15-.29-.15-.71-.22a3.54,3.54,0,0,1-.26-1.64c1-1.12,1.33-2.38,2.88-2.89.93-.31,1.66.28,2.54-.21Z"/><path class="cls-3" d="M1.23,128.09c.05.24.09.48.14.73h.18l0-.72-.36,0Z"/><path class="cls-3" d="M46.57,136.23c.37.09.34.06.53.21-.37-.09-.35-.07-.53-.21Z"/><path class="cls-4" d="M46.36,145.78c-.12-.6.1-.27-.33-.57v.18l-.35-.2-.15-.55c.73-.85.94-2.48,1.48-3.52l-.36,0A22.47,22.47,0,0,1,42.07,145c-.46.3-1.35,1.35-1.86,1s-.38-.44-1.05-.61c.21-1.67.84-2.78,1-4.63H40a10.25,10.25,0,0,1-3.63,3.39c.11,1.12.59,7,1.19,7.29a5.1,5.1,0,0,0,2,.3,7.67,7.67,0,0,0,2,.12c2.52-.59,4.71-2.9,6.24-4.68.9-1.05,2-1,2.51-2.73l-.36,0a6.82,6.82,0,0,1-3.51,1.42Z"/><path class="cls-3" d="M76.79,164c0-1.38,0-2.76.07-4.15a1.1,1.1,0,0,0,.38-.33c.31.13.17,0,.35.2.79.28,1,.59,1,1.68-.32.59,0,2.31,0,3.43a29.32,29.32,0,0,1-.69,5.55l-.54,0c-.28-.66-.56-.38-.64-1.31-.37-.65-.06-2.46,0-3.42-1.64-.11-2.07.44-3.46.51-.06,1.65-.08,3.75-.65,4.83-.57-.25-.38-.39-1-.6-.07-3.73-.32-8.1.73-12.23l.54,0c.4.58.86.63,1,1.5-.64.89-.43,3.59-.45,4.48l.36,0a4.46,4.46,0,0,1,3.08-.17Z"/><path class="cls-3" d="M108.41,160.32c.63.16.84.2,1,.78.63,1.24.1,5.14,1.09,5.84.15-1.46,2.25-3.37,1.72-4.59a1.93,1.93,0,0,1,1.66-.62,1.71,1.71,0,0,0,.69.58c0,.84.3,2.91.88,3.3.09-2,.87-4.36,2.62-4.53.3.48.42.32.48,1.11-1.49,1.43-1.72,5.23-2.43,7.43a3.33,3.33,0,0,1-.94.49c-.49-.45-.74-.11-1-.61-.72-1-.36-3.37-1.38-4.05l0,.36c-.77.94-1.85,5.31-3.17,4.68-.92-.37-1.26-.7-1.14-2.05a55.1,55.1,0,0,1-1-7.1,3.79,3.79,0,0,1,.42-.88c.37,0,.34,0,.55-.14Z"/><path class="cls-3" d="M138.76,162.68c1.6.16,3.35,1.33,3.24,3.08h-.18c.05.13.1.25.16.37h-.18c-1.3,2-3.27,1.56-5.3,1.13a2.45,2.45,0,0,0-.23.71c.67.75.73,1.53,2.06,1.74v-.18h.18c.06.79.28.87.11,1.27s0,.21-.56.33c-1.27.69-3.13-1.58-3.47-2.37a5.89,5.89,0,0,1,0-3.25c.69-.47,1-1.42,1.73-1.88a13.37,13.37,0,0,0,1.5-.81,1.5,1.5,0,0,0,.91-.13Z"/><path class="cls-3" d="M98.47,169.46a27.51,27.51,0,0,0-.26-4.52,8.51,8.51,0,0,1-1.82.25l-.15-.55a1.13,1.13,0,0,1-.12-1.09c.3-.44.41-.34,1.1-.3.19-.11.74-.19.92-.3s.12-.17.22-.53a1.69,1.69,0,0,1-.45-1.65l1.8.11c.1.54.32,2.08.76,2.39.85.76,2,.19,2.8,1.43h.18c.17.19-.19.17-.19.17-.75.63-2,.48-3.08.17l-.12,2a5.91,5.91,0,0,1,0,2.53l-.55.15c-.16,0-.43-.15-1.07-.25Z"/><path class="cls-3" d="M54,159.23c.61.36,1,.37,1,1.32-.64.82-.8,2.42-1.28,3.35a4.2,4.2,0,0,0-1.43-.26l0-.36c.45-.67-.52-1.56.16-2.7.43-.72,1.13-.93,1.53-1.35Z"/><path class="cls-4" d="M138.83,164.49c-.56.38-1.31.39-1.69,1a5.53,5.53,0,0,0,2.66.88,2.69,2.69,0,0,0,.61-1.22l-.36,0a2.25,2.25,0,0,0-1.22-.62Z"/><path class="cls-3" d="M39.47,167.19c0-.55-.07-1.8-.07-1.8,1.53-2.09,3.4-4.18,4.9-6.39a11.37,11.37,0,0,1,1.23.44c.19.31.08.95.29,1.28,0,.05,2.27,2.4,2.37,2.49.75.62,1.43.45,1.53,1.71-.16.18-.07.05-.21.35-.36-.08-1.27-.06-1.42-.26-1.3-.86-2.39-2.5-3.43-3.1v.18c-1.43,1.42-2.15,4.84-4.46,5.15-.21-.15-.17,0-.72-.05Z"/><path class="cls-3" d="M81,162.28c2.38,0,6.64.1,6.5,2.92-.71.41-1,.9-2,1a5.57,5.57,0,0,1-3.62.14l0,.36c.41.52.38,1.32,1,1.68.81.56,1.45-.29,2-.06l.35.2v.18H85a2.86,2.86,0,0,1-1.89,1.51c-.47-.42-1.31-.54-1.75-1s-.49-1.24-1-1.69c.12-.66-.51-2.14-.16-3.26a15.51,15.51,0,0,0,.83-1.93Z"/><path class="cls-3" d="M131.57,165.14l.54,0c.33.49.54.36.66,1.12-1.4,1-2.34,3.1-3.34,4.49-.4-.09-1.17-.2-1.25-.25-.91-.77-1.27-3.09-1.38-4.06-.42-.06-.51-.06-.71-.22.16-.2.16-.29.22-.71a3.54,3.54,0,0,1,1.64-.26c.18.16,0,.07.35.2.23.6.74,2.1,1.3,2.43a10.86,10.86,0,0,1,2-2.77Z"/><path class="cls-3" d="M120.74,165.21a13.36,13.36,0,0,1,3,.72c.32,1.09,2.27,2.8,1.94,3.73-.07.17-.14.35-.22.52-.57,0-.58.15-.89-.05-.82-.29-.78-.73-1.57-1-.77,1.46-2,1.68-3.7,1.59-1-2,.1-4.1,1.41-5.51Z"/><path class="cls-3" d="M91.06,163.78c.5.34,1,.88,1.55,1.18.19,0,.39-.33.73-.14a7.9,7.9,0,0,1,1.6,3.35c-.36.3-.58.3-1.28.28-.2-.31-.66-.81-.86-.59-.54.47-1.7,1.94-2.44,1.48a2.42,2.42,0,0,1-1.67-2.27,2.11,2.11,0,0,1,1.82-3.14c.18.15.16.12.53.21l0-.36Z"/><path class="cls-3" d="M17.79,161.74a4.6,4.6,0,0,1,1.44.09c-.52.88-1.35,1-1.57,2.07a7,7,0,0,1,.23,2.18A6.5,6.5,0,0,1,19.94,168c-.18.23,0,.23-.21.53s.07.13-.38.34a1.93,1.93,0,0,0-1.07-.24c0,.9,0,1.8,0,2.7-.21.16,0,0-.19.17a2.35,2.35,0,0,0-.73.14c-.23-.53-.54-.54-1-.78.24-.85.4-2.61-.35-3.09a1.74,1.74,0,0,1-1.69,1c-.35-.51-1.09-.47-1.38-1a8.36,8.36,0,0,0,3.05-2.7,13.19,13.19,0,0,0-.07-1.81,5.45,5.45,0,0,1-1.76-.83l.36,0c.38-.82.84-.76,1.49-.81a5.82,5.82,0,0,1-.07-1.81,2.22,2.22,0,0,1,1.65-.44,2,2,0,0,1,.31.92,4,4,0,0,0-.09,1.44Z"/><path class="cls-3" d="M38.4,161a5.23,5.23,0,0,1-.68,2.3,2.7,2.7,0,0,0-1.43-.09V163a4.25,4.25,0,0,0,.31-2.14c.64,0,0,0,.56-.33a7.86,7.86,0,0,0,1.23.44Z"/><path class="cls-3" d="M62.34,162.07c.52.13.83.17,1,.61a2.79,2.79,0,0,1,0,2.35l.54,0a1.13,1.13,0,0,1,1.09-.12c.52.18.49.11.69.59l-.18,0c-.63.77-1.85.72-2.1,1.86a6.34,6.34,0,0,0-.34,2.69c.24.47.06.28.7.4.59-.33,1.05.08,1.6.28l0,.36-.36,0c-1.52,1.1-5.29,1.35-6.48-.21.8,0,2.75.26,3.28-.53-.56-.15-.37-.14-.7-.4a10,10,0,0,0,.38-3.23,3.14,3.14,0,0,1-1.73-1.36c.31,0,1.82-.42,1.83-.43.16-.18.07,0,.2-.35-.08-.28-.13-1.57-.22-2.18.56-.07.43,0,.74-.32Z"/><path class="cls-4" d="M83.48,163.69c-.2.12-.17.1-.54.15a1.55,1.55,0,0,1-.58.5l0,.36.36,0c.55.41,1.45.16,2.16.12l.21-.52-1.59-.64Z"/><path class="cls-4" d="M121.91,166.72l-.72,0a3.15,3.15,0,0,0-.46,1.77c.1.17,0,.36.13.73l.74-.31c.11-.72.21-1.43.31-2.15Z"/><path class="cls-4" d="M91.32,165.42l-.72,0,0,.36c-.49.54-.32.94-.29,1.79l.36,0v-.18c.5-.45.61-1,.66-2Z"/><path class="cls-3" d="M23.39,161.72c.76-.15,1.53-.62,2,.29a4.66,4.66,0,0,1-.06,1.08,9,9,0,0,1,1.41.45v.18c-.36.39-.32.39-.23.89-.72-.07-1-.16-1.28.28a2.88,2.88,0,0,0-.27,1.43l.54,0c.51-.07.65-.11.68.76a2.55,2.55,0,0,0-1.21,2.1l.9,0c.6,1,2.54,1.46,2.75,2.33-.16.17-.07,0-.21.35a6.62,6.62,0,0,1-2,.06,1.93,1.93,0,0,0-1.23-.62,5,5,0,0,1-.46,1.6c-.49-.36-1-.29-1.76-.65a4.71,4.71,0,0,0,.41-.87l-.36,0a3.11,3.11,0,0,1-2.25,1.49c-.53-.5-1.17-.53-1.56-1.17,1.3-.45,4.09-2.34,4.19-3.54-1.26-.17-1.14-.73-2.11-1,.09-.37.07-.34.21-.53.18.09,1-.09,1.81-.07l.17-2.7-.36,0c-.19-.14-.17-.12-.53-.21-.2.84-.46,1.65-1.2,1.91-.5-.41-.62-.27-1.43-.26.14-.56,1.49-4.05,1.51-4.06.17.1,1.38.11,1.58.63s-.63,1.06.09,1.63a2.07,2.07,0,0,0,.43-1.23c-.12-.2-.1-.18-.14-.55Z"/><path class="cls-3" d="M34.65,163.48l.72,0c-1,4.18,1.13,5.95,1.42,9.29a3,3,0,0,0-1.27.1c-.41-.72-1.12-1.32-1.5-2.07-.89-1.78-.86-4-1.09-5.84a6.14,6.14,0,0,1-3-.37c-.17-.8-.48-.5-.65-1.3A1.16,1.16,0,0,0,30,163a8.59,8.59,0,0,1,2.49.7c0-.43-.07-.85-.11-1.27a6,6,0,0,1,2.18-.23l0,.36a1.65,1.65,0,0,1,.13.91Z"/><path class="cls-3" d="M45.9,168.3a5.38,5.38,0,0,1-1.42-.26c-.45-.29-.21,0-.33-.57.33-.51-.06-2.12-.19-2.89l.9,0a7.12,7.12,0,0,0,1.06.43,12.06,12.06,0,0,1,0,3.24Z"/><path class="cls-3" d="M52.59,165.1c1.15.24,3.34.23,5,.66l0,.72a3.53,3.53,0,0,0-1.21,2.09,2.45,2.45,0,0,1,2,2.11,3.54,3.54,0,0,1-1.64.26,1,1,0,0,0-.34-.38l0,.9a4.78,4.78,0,0,1-.17,2.87,1.13,1.13,0,0,0-.9-.05,24,24,0,0,1-1.09-2.95c-.2.15,0,0-.19.17a11.77,11.77,0,0,0-1.15,1.19c-.53,0-.24-.19-.54,0a2.32,2.32,0,0,1-.83-1.32A17.92,17.92,0,0,0,54.82,167L53,166.75c-.14-.76-.33-1.13-.44-1.65Z"/><path class="cls-3" d="M42.13,168.07c2.42,1.12,3.16.34,5.18.86l0,.54c-.7.36-1.91.68-2.6,1.1.47.94-1.13,2.17-1.61,2.79l.36,0a1.75,1.75,0,0,0,3-1.45c-.14-.19-.06-.05-.16-.37h.18c.19.39.1.35.51.57,0-.44-.12-.09,0-.54h.18c.3,1.3.88.33.74,2.58.42.6.3,1.13.07,2h-.18a1.93,1.93,0,0,0-1.07-.24l-.3-1.1c-1.54.72-3.09.25-4.85-.29-.39-.82-.74-.93-.61-1.84.16-.11,2.64-2.48,2.68-2.55a3.15,3.15,0,0,1-2.06-1.75l.53.21,0-.54Z"/><path class="cls-3" d="M32.94,167.88l-.24.89a4.36,4.36,0,0,0-1.5,1,3,3,0,0,0-.27,1.43h.18a1.61,1.61,0,0,1,.91-.12l0,.54h.18v-.18c.16-.34.16.37.16.37-.5.59-.42,1.18-1.34,1.36-.19.12-.43.13-1.09.11-.4-.73-.91-1-1-2,1-1.46-.28-2.1-.52-3.46,1.33.33,2.82,0,4.51.09Z"/><path class="cls-3" d="M70.43,50.67a5.45,5.45,0,0,1,.86-2.51A1,1,0,0,1,73,48.9a.86.86,0,0,0-.74.49,5.45,5.45,0,0,0-.29.89,2.28,2.28,0,0,1-1.35,1.57A1.51,1.51,0,0,1,70.43,50.67Z"/><path class="cls-3" d="M67.93,49.54A5.49,5.49,0,0,1,68.79,47a1,1,0,0,1,1.74.74.87.87,0,0,0-.74.5,5.33,5.33,0,0,0-.29.88,2.28,2.28,0,0,1-1.35,1.57A1.51,1.51,0,0,1,67.93,49.54Z"/></g></g></svg>