<svg xmlns="http://www.w3.org/2000/svg" viewBox="0 0 81.1 94.31"><defs><style>.cls-1,.cls-2{fill-rule:evenodd;}.cls-2{fill:#fff;}</style></defs><title>アセット 11</title><g id="レイヤー_2" data-name="レイヤー 2"><g id="レイヤー_1-2" data-name="レイヤー 1"><path class="cls-1" d="M75.1,58.83l.33,2.67c-1.22.44-2.69,1.12-4,1.66,0,1.85,0,3.78,0,6.35,2.61-.21,4.45-1.15,7-.67.09,1.18,1.26,1.35.34,2-.72,1.76-4.4,2.55-6.68,2.67.22,2.34.45,4.67.67,7,2.87-.08,4.62-1.28,7.34-1.67a14.34,14.34,0,0,0,1,3c-.87,1.94-6,3.6-8,4.34-3.4,1.26-8.56.71-9-2.67a9.56,9.56,0,0,1,2.34-1.67A97,97,0,0,1,65.08,63.5c-1.15-.57-1.28-.6-1.33-2.34A18.84,18.84,0,0,1,75.1,58.83Z"/><path class="cls-1" d="M0,24.78a4.61,4.61,0,0,1,.33-2.33C2,19.62,6,18.31,8.34,16.1c4.79-4.42,8.09-8.17,14.36-11.34.35-.18,1.31-1.21,1.66-1.34,1.31-.48,1.83.55,2.34.67,3.47-1.9,6.58-2,12-2A43.84,43.84,0,0,0,51.4.42c1.3-.38,4.21-.71,5.34,0-2.19-.11-4.25,0-5,1.33h.67c1.2-.58,6.16-.62,8.34-.67v.34h.34c-.21.9.14,1,0,1.33a3.73,3.73,0,0,1-1,.67v.34h.33l4,3.33c1.75,2.32,3.49,5.52,6,7,1.75,1,4.83,1,6.68,1.67v.67c-1.2.14-.84-.16-1.34.67.83.43.23-.15.67.66h-.67c-1.44,1.25-3.5.3-5.67,1a13.39,13.39,0,0,0-2,.67c-.23.45-.45.89-.67,1.34l-1.34-.34c0,.93.39.73-1,1-.36-.25-4.93-.4-5.34.34v2c2,3.45-.2,18.6-.33,23.36a12.28,12.28,0,0,0-3.67,4.34c-1.2-.32-6.77,1.16-9,1.67l-5,.34c-1.6.34-15.28,1.82-17,1-2.8.21-5.6,1.39-8.68.33-.13-2.31-1-3.3-1.33-5.34-.29-1.63.67-5.69.66-7.34,0-3.3.15-12.16,2-17H14c-1.22-.73-5.13-1-7.68-.34-.9.25-3.42,1.35-4.67,1C1,25.59,1.08,25,0,24.78Z"/><path class="cls-2" d="M62.41,15.1c-2.15-2.35-3.06-7.59-6-9-2.22-1.44-5.35,1.14-7.67.67-1.27-.26-2.61-2.1-5.34-1.34S36.84,8.7,33,8.09c-.2,0-4-.69-5-.33C24.89,8.9,15.34,17.3,13.68,20.11c5.36.18,17.43.26,24.37-2,1.78-.59,6.64-.33,8-.67,4.07-1,9.45.67,10.68-1.67H56.4v-.33h.34c.34-.27.09-.12.67-.34,1,1.6,2.91.83,5,.67V15.1Z"/><path class="cls-1" d="M42.72,62.16l2-.33v.67h-.33v.33a4.83,4.83,0,0,1,1.33-.33c.48,2.11,5.21,10.72,7,11.34.17-3.73,4-12.49,7-13,.34.27.09.12.67.33a6,6,0,0,1,.33,2c-.37.91.67,3,.34,5a36.37,36.37,0,0,0,.66,11.68h-.66c-.36.25-.32.2-1,.34-.75-1.18-1.84-.51-2.67-2-.59-.89-.38-2.09-1.34-2.67-.12,2.24-.57,1.19-1,2s.17,1.7,0,2.33a4.83,4.83,0,0,0-1.33-.33v.33h.33c.64.26-.67.34-.67.34-1-1.18-2.65-1.85-3.67-3-1.31-1.49-2-3.21-3.67-4.34-.46,4.3-.21,8.51-.67,12.69-.58.21-.32.06-.67.33-1.11-.28-1.54-.27-2-1-1-1.38-.17-3.27-.67-5.34-.66-2.79-2.49-9.69-1.33-13.69.45-1.57,1.65-1.77,2-3.67Z"/><path class="cls-2" d="M26.7,51.15c-.36-8-.5-13.32.33-20.69.81-.31.53-.36,1.34-.67,1.71-1.17,1.93,1.07,3.67.67,1.15-.27,2.78-2.23,4.34-1.67,1.06.37-.1.65,1,1a6,6,0,0,1,1.34-2h.66v.66c.83,1.34,0,4,0,5.34,0,5.13.65,10.15.67,16.36C44.71,50,48,48.21,52.4,47.81c1-8.73,2.34-18.12,1-25.7H50.73c-2.54,1.56-6.67.28-10,1-1.65.36-4.61-.12-6.68.34a53.05,53.05,0,0,1-12,1.33v.34h-.34c-.54,8.89-1.21,16.79-1.33,25.36l1,.33c1,.66,3.76.38,5.34.34Z"/><path class="cls-1" d="M38.72,73.18c-.4,3-.46,9.64-4.34,11-.72.34-3.26-.66-4.68-1-2.78-5-5.33-22.12,4.34-22,.84.66.55.44,1.67.34.91,1.22,1.8,1.62,2,3.67,1.47,2.46-.5,5.64,1,8Z"/><path class="cls-2" d="M35,50.81c0-5.18-.35-10.05.67-15H35c-1.21,1.13-3.34,1.69-5,2.33.24,3.17-1.51,10.27.33,12.68.34.27.09.12.67.34.77-.51,2.7-.37,4-.34Z"/><path class="cls-2" d="M35,75.51c-1.2-2-.07-5.82-1.33-7.67a3.3,3.3,0,0,0-1.67-1c0,.84-.77,3-1,4.33-.41,2.47,1.16,6.49,1.67,8.68l.67.34a6.43,6.43,0,0,0,1-1.67c.6-.75.66-1.6.66-3Z"/><path class="cls-1" d="M11.68,80.19v2c-1.55.37-1.7.7-1.67,2.67.71,1.15.78,5.64,1,6.34-1.1.22-.78.33-1.66.67,0,0-.44-1-.67-.67v.33H8.34a7.29,7.29,0,0,1,.34,2.34c-1,.16-1,.66-1.34.33s-.2-.31-.33-1H6v-.66c-1.4-1.62-.33-4.9,0-6.68C3.12,79,4,65.53,5.67,59.16A2.31,2.31,0,0,0,7,58.49a5.16,5.16,0,0,1,2,1c-.27.34-.12.09-.33.67a10.26,10.26,0,0,1,2.33.33c.79,4.58.69,8.08.67,13.69,2.61.19,3.82.45,6,0v-6c1.68-2.82.45-6.34,4.34-7,.34.27.09.12.67.34a4.24,4.24,0,0,0,1.33,2l-.33,5a38.33,38.33,0,0,0,0,16,1.59,1.59,0,0,1-1,2c-.81.49-1.69.09-3,0-1.16-2.11-1.69-6-2-8h-.33c-1.3,1.29-3,1.69-5.68,1.67Z"/></g></g></svg>