<svg xmlns="http://www.w3.org/2000/svg" viewBox="0 0 59.46 72.71"><defs><style>.cls-1,.cls-2{fill-rule:evenodd;}.cls-2{fill:#fff;}</style></defs><title>アセット 8</title><g id="レイヤー_2" data-name="レイヤー 2"><g id="レイヤー_1-2" data-name="レイヤー 1"><path class="cls-1" d="M59.46,60.48c-.42,1.19-.52,1.08-.92,2.14-1.89.24-10,3.37-11.58,1.52-.91-1.08.22-2.62,0-4-.38-2.33,0-15,1.83-16.46,1-.73,1.64-.48,2.74-.31a15.08,15.08,0,0,1-.3,5.49c-.25,1.12.52,2.17.3,3.35-.44,2.33-.71,5.69-1.22,8.23,2.52-.24,5.24-.54,8.84-.61.19.54.06.3.31.61Z"/><path class="cls-1" d="M4,37H2.76v-.3h-.3C2,30,1.24,23.08,1.24,14.76c0-2-.2-5.43,0-6.4C2,4.94,0,2.09,2.46.74c3.26-2.29,7.18,1.51,10.67.92,5.29-.9,20.09.68,25.3-.61a16,16,0,0,1,5.79.3c5.22,1.16,8.92-1.32,12.19.31a2.59,2.59,0,0,1,.3,1.52c-1.47,1.5-.82,3-1.22,5.79-.56,4,.27,14.24-.91,19.2-.66,2.75.06,5.22-1.83,6.1-1.36,1.13-6.44,1-8.53,1.52a72.14,72.14,0,0,1-14.33,1.83c-2.05,0-6.06.84-7,.31-2,.28-6.56.7-7.31.3-4.18.5-7.74,1.22-10.67.61-.47-.75-.7-.69-.92-1.83Z"/><path class="cls-2" d="M27.15,10.5a66,66,0,0,0,8.53-.31c3.69,2.13,6.84.31,9.75-1.52,1.78-1.12,4.16-1.11,4.27-4h-.3V5c-3-.71-7.33,1.71-11.28.91-1.45-.29-5.31.28-7.92-.3C22.89,4,16.19,5,8.25,5v.3c1,1,1.41,2.79,2.44,3.66,3.31,2.83,11,3.1,15.54,4.88a4,4,0,0,0,.61-2.44c.23-.33.19-.29.31-.91Z"/><path class="cls-2" d="M26.84,27.56c-.24-1.44-.7-1.25-.91-2.74A50.43,50.43,0,0,0,29,20.25H27.15c-1.17.8-1.26.09-3,0v-.31h.3c-.46-1.3,0-1.92.31-3-3.36-.07-10.27-2.15-13.11-3.36-1.41-.6-2.51-1.89-4-2.43v2.13c-.24.54.14,3.55.31,4.57-1,2.63.85,12.52.91,16.76.81.36.64.59,1.52.92,1.9-.84,6.66.17,9.15-.31s8.45.17,11.88-.61c2.53-.56,4,0,6.71-.61a72.23,72.23,0,0,1,10.67-1.82c.53-6.59.89-16.31.91-21.34h-.61c-2.86,2.85-7.6,4.42-12.19,5.49-.75,2.91-6.94,11-10.06,11.27Z"/><path class="cls-1" d="M41.47,62h1.22a2.67,2.67,0,0,0,.92.91v.3H43.3a9.09,9.09,0,0,1-3.35,3c-.41-.7-.37-.55-.61-.61-.46.26-.23.87-.61.31a10,10,0,0,0-1.22-1.22c.61-3.07-.14-12.52.61-14,.44-.78-.07-.35.91-.61.76-.5,2.72-.34,4-.31.47.88.74.84.91,2.14-2,.86-2,2-1.83,4.87-.53,1-.51,4-.61,5.19Z"/><path class="cls-1" d="M35.38,67.8c-.29,1-.12.94-1.22,1.22-.6-.64-.82-.28-1.83-.61-.51-1.22-1.26-4.58-2.44-5.19-1.07,1-4.11.93-4.88,2.14-.53.59-.32.91-.61,1.22a2.21,2.21,0,0,1-1.21.61c-.66-5.08,1.52-10.62,3.35-14.33,1.16,0,1.63,0,2.13-.3a5,5,0,0,1-.3-3.05c.7-.49.46-.65,1.52-.92.79-.45,1.12-.22,1.52.61.85,1.32.16,3.26.92,4.88,1.54,3.27.48,10.52,3.05,13.72Z"/><path class="cls-2" d="M29.89,60.79c-.2-1.53-.41-3-.61-4.58h-.61v.61c-1,.86-1.88,3.4-2.13,4.88h.61a6.22,6.22,0,0,1,2.74-.91Z"/><path class="cls-1" d="M7.34,47.07c0,1.86-.9,3.27-.61,4.57.73,3.28,3.29,5.6,3.65,9.45h.92c.67-2.61,2.64-4.4,4.27-6.1.53.2.29.06.6.31a9.19,9.19,0,0,1,1.83.91c.23,2.69.71,12.27-.61,12.81-.81-1.3-.7-.07-1.22-.92-2.14-1.56-.54-4.36-1.82-6.4V62H14c-.55,1.13-1.25,1.67-1.52,3,.68.73.33.11.3,1.22-.73.26-.5.12-.91.61-1-.44-1,.06-1.83-.3C7.68,64.87,7.67,60,5.2,58.65v1.83C3.54,63.14,4.34,70,4,72.37l-.91.3a12.74,12.74,0,0,1-2.13,0A5.83,5.83,0,0,0,0,71.45c-.15-5.7.46-20.18,4.27-24.68a19.81,19.81,0,0,0,3.05.3Z"/></g></g></svg>