<svg xmlns="http://www.w3.org/2000/svg" viewBox="0 0 111.81 158.69"><defs><style>.cls-1,.cls-2{fill-rule:evenodd;}.cls-2{fill:#fff;}</style></defs><title>アセット 2</title><g id="レイヤー_2" data-name="レイヤー 2"><g id="レイヤー_1-2" data-name="レイヤー 1"><path class="cls-1" d="M45.74,73.07c.46-.06.42,0,.66-.18.63-.77.29-1.64.55-2.37s1-2,1.46-3.2c-2.11-1.51-3.11-5.2-3.54-8-.17-1.07.78-2.94,1-3.65.87-2.36.4-4.18.51-6.28l-1.52-.07A3.13,3.13,0,0,1,44,50.58a2.24,2.24,0,0,1-1.68-1.17c.52-.32.52-.29.7-1-4.5-2.94-4.61-9.56-5.8-15.51-.46-2.31.63-7,1.43-7.33.8-1.1,2.35-1.61,4.21-1.54.24.37.81,1,1.05.7s.08-.05.24-.42c-2.27-3.11.35-7.68,1.42-11.68.78,0,.73,0,1.11-.39a3.15,3.15,0,0,0,.74-1.92c-.54,0-.11.14-.65,0l-.15-1.53C49.06,7,49.31,1.91,52.4.93a4.32,4.32,0,0,0,2.11,1.41l0-.44c.19-.25.09-.19.25-.64a1.26,1.26,0,0,0,.45-.41c.63.37.69.7,1.48.94.39-.46.55-.52,1.33-.59.79,1,1.25.46,1.87,1.83.19-.22.08-.06.24-.43C60.72,2,60.84.67,61.57.28c.57-.26,1,.17,1.94.31a4.46,4.46,0,0,0,1.63,2.25,2.68,2.68,0,0,1,2.71-2c.29.56.11.47.84.69.39-.27.37-.36.66-.18l1.05.91A4.34,4.34,0,0,1,71.15.07c.59.43.58.72,1.48.94A11.37,11.37,0,0,0,74.2,0c0,.78-.13.54.39.89.53-.24,1.88.53,2.58.77a7.87,7.87,0,0,0,2,3.14c.62.5.72-.14,1.28.5,1.37,2.18,1.15,6.29,1.08,9.41l.65,0c-.11,1.86.47,2.36.92,3.52a27.36,27.36,0,0,1,.67,4.38c6-.5,5.68,12.45,2.87,17.54-.91,1.66-1.14,3.4-3.64,3.31-.21-.18,0-.08-.42-.23l-.1,2.17a5.74,5.74,0,0,1,.29,3.06C84.71,55,81.22,63.7,75.67,66a31,31,0,0,1-.19,8.48h.22v.22a20.9,20.9,0,0,1,5.6,1.35c1.14.34,3.86-.27,5.63.48,2.41,1,6.27,1.75,8.59,2.36,1.48.39,3.68,0,4.56.22,2.9.68,6.41.78,8.38,2.35,3.27,2.62,2.53,9.47,3.06,13.42.28,2.06.78,10.57-.8,12.36-.17.18-.28.23-.45.41-.56-.16-.41-.12-1.09-.05a5.41,5.41,0,0,1-.77-2c1-.34,1.45-2.94,1.08-4.52-.62-2.66-.19-5.39-.71-8.08-.32-1.66.56-3.61-.66-4.39-1.13.71-5.08.94-6.1.15-2.33-.83-2.46-2.83-3-5.36-.12-.55-.56-1.25-.37-1.54.34-.4.69-.44.48-.85-1.27-.84-3.78-.26-5.41-.69l-6.23-1.6c-.22,4.4-2.76,7.3-6.88,7.51-.57-.56-1.6-.79-2.11-1.4-1.26-1.5-1.69-5.31-1.85-7,.72-.15.33.12.68-.41h.21v-.21h-.21A3.68,3.68,0,0,0,75,76.62a24.93,24.93,0,0,0-3.26,9.2c-.81.23-.72.5-1.77.57a2.6,2.6,0,0,0-1.06-.48c-1.11-5-6-7.53-10-4a9.33,9.33,0,0,1-1.7-1,6.28,6.28,0,0,0-4.52,3.49c.34.31.24.15.41.67l.43,0c.4-2.18,2.4-3.44,4.53-3.7l1,1.57a10.3,10.3,0,0,1-.56,2.59l.66,0C59.59,84.8,60,84,61.33,84c.35-.25.12-.13.43,0,.25.32.3.62.61.9-1,1.83-2.23,4.43-4.16,5.24-3.32,1.41-6.35-1.66-7-4H51c-.48,1.35-1.63,2.34-2.34,3.59a7.91,7.91,0,0,0-2,.12l0-.43c.34-.55-.4-3.55-.66-4.39l-.12-2.18a30.32,30.32,0,0,1-1.42-6.81c-2.35,0-4.18,1.54-6,2.33a51.91,51.91,0,0,1-9.06,3.06l0,.43c1.53,0,1.95.93,3.18,1.67l0,.65.65,0c.44,2,1,2.77.84,5.27-.77.8-1.12,2.15-2.08,2.73-1.62,1-4.95,1-6.31-.08a3.38,3.38,0,0,1-2-3.36c-.43-.73,0-1.83.13-2.82a17.53,17.53,0,0,0,3-3.34h-.22a29.5,29.5,0,0,1-6,2.76l-.43-.24c-2.51,1.59-5.95,2.7-8.67,4C10,89.79,8,90,7,91.27c-1.24,1.69-2.2,7-2.41,9.68l.43,0c.5-.52,1.21-1.61,1.39-1.68a11.72,11.72,0,0,1,1.77-.79c.32.39-.27.27.41.68.21.18.05.08.42.23.12-1.08.35-1,.53-1.93.44,0,1.17-.62,1.75-.35,3.68,1.12,4.27,7.23,2.34,10.55s-6,4.26-10.58,2.77l0,.87c.23.73-.43,4.92-.57,7.58l-.44,0a7.44,7.44,0,0,0-1.51-.28c-1.48-5.36.48-14,2.17-18.4a12.54,12.54,0,0,0,.42-4.33c1-2.39,1.52-5.34,3.37-6.8s4.28-1.83,6.66-2.74c4.57-1.73,9.82-4,14.21-6.07,2.17-1,4.43-1.07,6.83-1.86,1.88-.61,4-1.82,5.78-2.55,1.47-.6,3.4-.69,4-2.21a2,2,0,0,1-.36-1.76c.29-.84.75-1,1.58-1.23l.41.68a15.42,15.42,0,0,1,.13,1.74Z"/><path class="cls-1" d="M4.46,109a6.32,6.32,0,0,0,3.68.39v-.22c-.48-.6-.31-1.54-.77-2.21-.35-.51-1.35-.34-1.7-1s.1-1.5-.55-2l0,.65c-.41.52-.59,2.66-.63,4.32Z"/><path class="cls-1" d="M9.24,99.86c3.07,1.64,1.79,4.82,1.14,8.1h.22v-.21h.21c1.4-2,3-7.79-.91-8.31-.18.14-.5.26-.67.4Z"/><path class="cls-1" d="M26.27,89.35a3.31,3.31,0,0,0,.84.47,13.12,13.12,0,0,1-.07-3A11.94,11.94,0,0,1,28.6,86l0-.43-.43,0v.22c-1.1.29-1.58,1.07-1.64,2.53a1.85,1.85,0,0,0-.27,1.08Z"/><path class="cls-1" d="M29.65,105.39c.18-4.32,1.85-4.5,4.23-6.77a12.56,12.56,0,0,1,3.67.61,15.5,15.5,0,0,0,1.85,2.26c.16,4.37-2.52,10.66-7.22,10.11a21.14,21.14,0,0,1-2.39-4.68c-.19-.56.08-1.15-.14-1.53Z"/><path class="cls-1" d="M32.17,102.68a9.45,9.45,0,0,0,2.46-1.41c1.13.48,1.55,1.4,2.52,1.86l0-.87c-.14-.17-.26-.5-.4-.67a1.79,1.79,0,0,0-1.49-.72c-.35-.2-.56-.08-1.3-.06-.65.73-1.42.8-1.83,1.87Z"/><path class="cls-1" d="M32.42,106.61a2.34,2.34,0,0,1,.4.67H33l0-.65c-.14-.23-.24-.89-.38-1.11l-.27,1.08Z"/><path class="cls-1" d="M32.72,109.45l1.08,0,0-.44h-.22c-.23-.17-.2-.14-.64-.24l-.25.64Z"/><path class="cls-1" d="M33.83,104.28a3.41,3.41,0,0,0,.86.26,1.33,1.33,0,0,1,.46-.42c-.12-.38,0-.21-.2-.44-.26-.55.1-.15-.42-.46a4,4,0,0,0-.7,1.06Z"/><path class="cls-2" d="M44.81,46.7l.65,0a2.91,2.91,0,0,0,.17.88,3.28,3.28,0,0,1,.88-.18c0-3.84-.07-7.69-.11-11.53A20.61,20.61,0,0,0,45,33.22c-.91-1.89-1.52-4-2.14-5.54a2.63,2.63,0,0,1-1.08-.05c0-.79.26-1.13-.58-1.55-2.81,4.8-1.33,11.79.73,16.79.6,1.45.41,2.87,2,3.36,0-.75-.16-.74.7-1.06a1.51,1.51,0,0,0,.41.46l-.26,1.07Z"/><path class="cls-1" d="M43,35.08a3.27,3.27,0,0,1,1.5.51l.42.24a32.53,32.53,0,0,0-1.07,4.3,2.34,2.34,0,0,0-.67.4l-.44,0a4,4,0,0,0-.61-.9A21.42,21.42,0,0,1,43,35.08Z"/><path class="cls-2" d="M68.2,7.33c-1.58.17-1,.4-3.06.29,0-.57-.2-.45-.6-1.11-.51.4-1,.62-1.57,1-.57.54-.39.85-.72,1.27-1,.8-1.23,0-1.94-.31l-3.7,0c0,.44.1.87.16,1.31h-.22c-.22-.12-1.72-.51-1.72-.51-.88.2-1.06.34-1.15,1.46-.07.14.06.11-.23.21-.42.44-.66.41-1.54.36L52,10.27c-.52,0-.92-.68-1.91-1-.26.78-.51,1.57-.77,2.36l.43.23.06,3.27c.26,1.11.9,1.66.94,3.09-1.53,1.49-3.32,7.22-5.36,7.58a2.14,2.14,0,0,0-.63-.46c-.15.37,0,.2-.24.42.92,3.71,3.47,6.9,4.3,10.43.3,1.28-.25,2.92-.17,3.69.45,4.59.14,9.46.47,13.07.2,2.19-1.09,3.82-1.34,5.38-.58,3.55,1,7.08,3.3,8.42a16.1,16.1,0,0,0,11,1.83l2.61.12a25.83,25.83,0,0,0,9.78-4.54c1.43-1,2.84-.82,4-2.43,3-4,3-9.07,2-14.48-.45-2.36.05-3.95-.36-6.11-.17-.86.36-2.09.34-2.59,0-1.1-.61-2.83-.25-4.15.65-2.32,1.41-5.12,1.88-7.53.23-1.14,0-1.88.16-3.25-.54-.16-.92-.08-1.51-.29-.92-2.23-2.36-5.37-4.26-6.73.18-.64.35-1.29.53-1.93l.43,0a5.9,5.9,0,0,0,1.4-1.89c-.52-.73-.65-2.39-1.39-2.9-.24.29-.14-.06-.64-.25-.21-.3-.14.06-.66.19-.15-.71.12-.33-.41-.67,0,0-.08.85-.23.42l0-.43c-.87-.78-.72-2.58-.9-4h-.22C74,5.94,74.2,6.32,73,6.47c-.37-.25-.46-.15-1.07-.27-.24.73-.12.67-.91.83-.48-.28-2.07,0-2.81-.35l0,.65Z"/><path class="cls-1" d="M46.47,20.67c.64-.43,2-2.54,1-3.21a24,24,0,0,0-1,3.21Z"/><path class="cls-2" d="M46.28,75.49c.86,1.44,1.41,6.24,1.81,7.92.33,1.41,0,2.67.69,3.73v-.22c1.41-1.45,2.37-3.3,3.71-4.83s3-1.86,4-2.64c-.16-.23-.07-.06-.2-.44-3.69-1.06-6-3.94-9.55-5-.17.8-.32.7-.51,1.5Z"/><path class="cls-1" d="M47.12,108.6c.18-4.85,2.58-7.47,7.3-7.27.86,1.41,1.88,1.57,1.77,4,1,1.55-2,6.74-3.18,7.47a4.78,4.78,0,0,1-2.63.52c-.43-.44-1.26-.49-1.7-.95-.9-.93-.84-2.65-1.56-3.77Z"/><path class="cls-1" d="M56,48.53c0,.7.19.71-.05,1.09-.58.68-5.35,1.38-6.16,1.45v-.22c.76-.24.71-.68,1.16-1.46,1.81-.18,2.69-.93,5-.86Z"/><path class="cls-2" d="M49,72.79c1.94,1.11,3.82,2.66,5.7,3.75l2.36.76c.69.47,1.34,2.23,2.05,2.49s3.32-1.5,3.79-1.78c2.37-1.4,5.12-2.63,7.57-3.77.72-.34,1.7-.25,2.21-.77.71-.72.77-2,.82-3.44a3.9,3.9,0,0,0,.13-2.83c-.63,1.09-2.37,1.32-3.56,1.8a25.34,25.34,0,0,1-20-.29c-.24,1.32-.8,2.61-1.06,4.08Z"/><path class="cls-1" d="M52.05,8.31c.5-.34.57-.5.71-1.27l-.43,0V6.8h-.22l-.07,1.52Z"/><path class="cls-1" d="M57.13,29.88a10.69,10.69,0,0,1,3.22.8v.22c-.71.75-.08,1.11-.07,1.52a19.88,19.88,0,0,1-5.36,3c-1.09.22-1.9-.4-2.8-.57a10.28,10.28,0,0,1-.13-2c.51-.92.73-1.77,2.05-1.87A17.76,17.76,0,0,1,56.86,31l0-.43c.18-.23.14-.2.25-.64Z"/><path class="cls-1" d="M54.55,38.46c.06.45,0,.42.19.66C56,37.48,58.31,38,60.43,38.3l1.44,1.81c-.12,4-3,6.77-7.25,6.18-.83-1-2.21-1.22-2.49-2.72-.33-.69,0-2,.15-3a4.83,4.83,0,0,0,1.62-2.1l.65,0Z"/><path class="cls-1" d="M51.9,62.48c-.55-2.77-.42-3.47.92-5.83A24.32,24.32,0,0,1,58.2,58c1.78.51,3.77-.59,5.06-1.07,4.21-1.54,6-6.21,11.6-6.19.6,1,1.32,1.17,1.4,2.67C77,55,74.57,57,73.87,57.86A22.25,22.25,0,0,1,60.23,65.7c-4.11.71-5.54-2.72-8.33-3.22Z"/><path class="cls-1" d="M49.5,108.93c.75.8.35,1.85,1.63,2.25.22-.51.25-.33.48-.84-1.28-.32-1-1.15-2.1-1.63v.22Z"/><path class="cls-1" d="M50.33,105.05c1.09.25,1.27.81,2.56,1.21l.08-1.73c-.17-.23-.08-.07-.2-.45a4.08,4.08,0,0,0-1.29-.28c-.45.53-.84.51-1.15,1.25Z"/><path class="cls-2" d="M57.88,60.15c.06.46,0,.42.19.66l0-1.08-.44,0a9.36,9.36,0,0,0-3.44-.82c-.59.31-.51.82-.51,1.72,1.18,1.33,1.69,2.64,3.76,3.22l0-.43c-.43-.77.25-1.93.12-2.61,0-.12-.32-.29-.4-.67l.65,0Z"/><path class="cls-2" d="M54.52,43.68a3.75,3.75,0,0,1,.61.9c1.92-.34,4.23-.63,4.31-3.72-.47-.49-.5-.84-1.25-1.14-2.53,1.3-3.6-.49-3.67,4Z"/><path class="cls-1" d="M55.94,42.13l0-.87a18.61,18.61,0,0,0,1.81-1.43l.43,0c.16.74.54,1.15.37,1.54a4.91,4.91,0,0,1-2.05,1.86c-.09-.78-.12-.74-.6-1.12Z"/><path class="cls-1" d="M55.12,86.57a7.11,7.11,0,0,1,.38,1.1l.43,0,.07-1.3c-.38-.15-.21,0-.43-.24l-.43,0,0,.44Z"/><path class="cls-2" d="M63.07,60.83l.65,0c.12.66.23,1.32.35,2h.21a17,17,0,0,1,3.58-2c-.78-1.09-1.59-1.43-1.59-3.34-1.93.16-4,1.53-5.75,2.12-.82.29-1.73-.12-2.2.55.61,1,.24,3.33,1.11,4,.85-.51,2.62.1,3.31-.93-.91-.55-.89-2.69-1.13-3.75h.22a2.68,2.68,0,0,0,.83.91c-.06-.64-.34-.29.25-.64l0,.43c.15.24.12.21.18.66Z"/><path class="cls-1" d="M61,44.85c.46-.06.42,0,.67-.18-.17-.23-.08-.07-.2-.45l.87,0c.24-.15.21-.12.66-.18l0,.43c.48.82.1,3.15,0,4.35a2.73,2.73,0,0,1,2.27,2.72c-1,.24-.89.66-2,.78l.06-1.31a2.43,2.43,0,0,1-.63-.46l-.43,0c-.46,1-1,1.91-1.44,2.76-1,0-1,.28-2,.34v-.22c.57-.51,0-.8.51-1.71,1.18-2.13,1.92-3.27,1.63-6.89Z"/><path class="cls-1" d="M62.72,40.58c.93-1.36,4.71-5.35,6.93-4a3.26,3.26,0,0,1,2.52,2.07,3.84,3.84,0,0,1,.06,3.27c-1,2.81-7.81,5-9,.88-.44-.73.11-1.51-.55-2.2Z"/><path class="cls-2" d="M65.24,42.44c.65.48.6.78,1.7,1,.25.19.35.19.86.26.77-.78,1.68-1.53,2.5-2.28-.12-.38,0-.21-.2-.44a3.51,3.51,0,0,0-2.27-2.72c-1.1.81-2,1-2.51,2.49h.22c.26-.16.37-.15.88-.17l.7-1.06a3.74,3.74,0,0,0,1.74.08v.22h.21c.08,1,.37,1.32-.51,1.72a3.67,3.67,0,0,1-3.26-.15l0,.65h.22l-.24.42Z"/><path class="cls-1" d="M67.07,31.21c.52-2,3.81-5.31,7.64-5.08a7.67,7.67,0,0,1,.57,1.77c-1.61,1.82-2.61,4.54-5.87,4.51a6.11,6.11,0,0,0-2.34-1.2Z"/><path class="cls-2" d="M65.26,79c2.51.43,3.87,2.67,4.79,4.58h.22c.83-3.19,2.47-5.55,3-8.78l-.43,0c-1.71,1.5-6.69,2.23-7.6,4.21Z"/><path class="cls-2" d="M66.94,57.32c1.36.48,1.31,1.68,2,2.7.69-.91,1.81-1.36,2.5-2.27-.69-.2-.67-.59-1-1.36A3.52,3.52,0,0,1,71.78,56a2.72,2.72,0,0,0,1.07.49c.45-1.12,1.21-1.23,1.43-2.77-.44-.55-.29-1-1-1.35-1.19.8-2.41,1.22-3.58,2S68.39,56.26,67,56.66l0,.66Z"/><path class="cls-1" d="M67.59,48c1-1.36,3.28-1.69,5.08-1.5.12.39,0,.21.19.44-.63,1.48-3.74,1.49-5.07,1.51-.12-.39,0-.22-.2-.45Z"/><path class="cls-1" d="M69.81,56.36c.24-.15.21-.12.66-.18v.21l-.65,0Z"/><path class="cls-1" d="M79.83,97.74l.65,0c.26.93.69,1,.77,2.21.94,1.56-2.15,6.7-3.4,7.46a5.21,5.21,0,0,1-3.07.5c-4.09-4.56-2-8.24,1.64-11.67l2.18-.11c.48.65,1,.61,1.23,1.58Z"/><path class="cls-1" d="M75.32,101.22l.43,0,0-.65-.43,0,0,.65Z"/><path class="cls-1" d="M75.32,105.79l1.07.27,0-.43h.22v-.22l-.43,0c-.43.18-.26.07-.87,0l0,.43Z"/><path class="cls-1" d="M76,100c1,.22.44.23,1.29.28l0-.43h-.22c-.25-.55.1-.15-.41-.46-.35.31-.41.15-.68.62Z"/><path class="cls-1" d="M76.89,104.78l.65,0,0-.43h.22v-.22l-.44,0-.2-.23,0,.44c-.19.21-.08,0-.24.42Z"/><path class="cls-1" d="M77.58,103.94c.69-.23.5-.06.69-.84h-.21c-.23.52-.25.34-.48.85Z"/><path class="cls-1" d="M78.84,81.81c1,1.27.67,2.24,3.15,2.32a1.53,1.53,0,0,1,.89-.39l1.43-2.55-.44,0c-.72.62-1.19.43-2.2.55-.29.53-.6,1.41-1.17,1.69a4.23,4.23,0,0,0,.07-1.3c-.17-.15-1.2-.61-1.7-1l0,.65Z"/><path class="cls-1" d="M79,77.47a6.64,6.64,0,0,1,1.64,2.25h.21c.48-.92.82-1,1.18-1.9-.94-.13-2.47-.59-3-.36Z"/><path class="cls-2" d="M82.21,37.8c.42.73.27,3,.25,3.93h.22v-.22h.22c.65-1.19,1.63-2.05,2.12-3.38,1.62-4.46.59-9.87,0-13.49h-.22c-1.13,3-1.37,6.83-2.21,9.9-.29,1.07,0,2.44-.37,3.25Z"/><path class="cls-1" d="M93.15,106c.2-1-.17-2.63.41-4.12.43-1.1,5.14-5.41,6.15-5.8s1.86,0,3,.14a26.41,26.41,0,0,0,2,2.71c.14,4.82-2.83,10.06-7.24,10.54L93.71,108a3,3,0,0,0-.56-2Z"/><path class="cls-1" d="M95,104.32c1,1.63.45,3.12,3.33,3.21l1.57-1v-.21l-.43,0c-1.1-.73-2.74-.37-3.66-.82.34-.74,1.66-4.13.45-5-.36,1-.78,2.63-1.27,3.85Z"/><path class="cls-1" d="M100.39,81.52c.79,1.12,1,3.13,1.53,4.42.39-.12.22,0,.45-.2.83-1.14.3-3.16.86-4.31l-2.82-.35,0,.44Z"/><path class="cls-1" d="M101.75,99c.35.42.3.81.81,1.12l0-.43c-.11-.19-.33-.83-.59-1.34h-.21l0,.66Z"/><path class="cls-1" d="M101.83,101.82c.57-.06.28.17.46-.42l-.44,0,0,.44Z"/><path class="cls-1" d="M101.86,101.17l.44,0,0-.65h-.22c-.08.21-.17.42-.25.64Z"/><path class="cls-1" d="M103.38,87.31a4.33,4.33,0,0,0,2,.1v-.22h-.22l-.82-1.13h-.21a4.06,4.06,0,0,1-.72,1.27Z"/><path class="cls-1" d="M104.92,82.38a9.85,9.85,0,0,1,2.65,3.82l.43,0V86c-.24-.47-.08-.49,0-1.09-.48-.41-.44-.81-.8-1.34l-1.68-1.38c-.45,0-.42,0-.66.18Z"/><path d="M15,137a4.83,4.83,0,0,1,1.48.31c.27-.32.5-.42.78-.71-.17-.32.06-2.66-.1-3,.08-1.83.17-3.65.25-5.47,1.88.74,2.22,2.49,2.54,4.35.71,0,.37-.16.75,0,2.19-.64,2.69-3.13,3.71-4.81.62,1.06-.26,3.07,0,4.49s1.19,1.83,1.34,3.3c.74-.08.84-.09,1.26-.44.44-.14.25,0,.51-.23-1.69-1.92,1.32-10.57.61-12.93-.3-.61.13-.17-.47-.52-.37-.17-.1-.31-.5,0l-1.49-.07c-.5.26,0,1-.32,1.48s-1.39.92-1.81,1.41c-.92,1.07-1.42,2.39-2.4,3.38-.27.19-.07.09-.51.22-.57-1.24-2.19-4.21-3-4.38a2.83,2.83,0,0,1,.54-.72,2.82,2.82,0,0,0-.44-1.27c-.75-.07-.69-.21-1,0-1.22.1-1.62.87-2.07,1.64-.24.42-.52,11.77-.08,12.46A3.83,3.83,0,0,0,15,137Z"/><path d="M37.34,123.82c.15-2.07-.61-2.84-2.08-3.34a14.43,14.43,0,0,0-3.52,5.82l-.39,3c-1,2.21-2.93,4.57-3.09,7.58a5.5,5.5,0,0,0,1.7.83,2.69,2.69,0,0,1,.77-.47c.46-1.14.48-3,1.18-3.93,1.07-.63,2.62-.35,3.54-1.08h.25a5.08,5.08,0,0,0,.6,3.27c.42.18.24.06.48.27a5.26,5.26,0,0,0,1.52-.42C38.44,132,38.42,125.54,37.34,123.82Zm-2.29,6.37-2.27.64c.53-1.78,1.52-3.13,1.73-5.15.76.52.45,1.75.88,2.53A4,4,0,0,1,35.05,130.19Z"/><path d="M38.83,134.6A4.31,4.31,0,0,1,40,136.4c.73.21,2,.58,2.73.13.74-.23.61-.43,1.28-.69,1.07-3.66-.34-5.73-2.37-7.83.1-1,0-1.51.6-2.22,1.07-1.18,2.69-.09,3.51-.33a4.37,4.37,0,0,0,1.5-.18c.1-.24.19-.49.28-.73a2.32,2.32,0,0,1-.69-1c-1.22-.42-2.69-1.39-4-.44-1.52.42-4.19,4.2-3.51,5.82.2,1.36,1.72,2.94,2.56,3.86a5.45,5.45,0,0,1-.33,1.72C40.15,134.2,39.89,133.8,38.83,134.6Z"/><path d="M50.72,136.16c.84-1.42,5.14-7.85,4.19-9.77-.23-.58-.4-.56-.7-1-1.16.14-.84.52-1.49-.07h-.25c-.59,2.11,0,5.15-1.81,6.89l0,.25h-.25a17.56,17.56,0,0,1,.45-4.22c-.19-.26-.09-.06-.22-.51a8,8,0,0,0-2.75.12c-.08,1.41-.32,5.86.18,6.74C48.31,136.12,49.21,136.27,50.72,136.16Z"/><path d="M59,129.57c1,.54,1.2,2.27,1.07,3.79a2.74,2.74,0,0,1,1.2,1l.73.29a4.26,4.26,0,0,1,1-.7c.63-2.38,1.73-7.37,3.18-9.32a4,4,0,0,0-.2-1c-.67-.18-1.14-.44-1.74-.08s-1.9,4-2,4.89l-.5,0c-.36-1-.73-2-1.1-3-.38-.55-.87-.32-1.2-1.06-1.27.13-1,.58-2,.9a50.9,50.9,0,0,1-2.22,10.12c.56.14.27.22.74,0a5.26,5.26,0,0,0,1.76-.17c.3-1.21.5-3.47,1.2-4.42Z"/><path d="M65.47,135.11c1.89-.12,1.52-1.46,2.37-2.63,1.09-.68,2.6-.54,3.55-1.33.74.47.72,2.78.83,3.53l1.48.32a2.46,2.46,0,0,1,.77-.46c.27-1.23,0-10.54-.7-11.75a3.09,3.09,0,0,0-1.67-1.57c-1.57-.65-2.51,2.08-3.16,3.59-1.36,3.17-4.17,6.16-4.7,10A2.2,2.2,0,0,1,65.47,135.11Zm5.68-9.45v-.25l.5,0a4.58,4.58,0,0,0,.14,2.25c-.11,2-1.43,1.95-2.85,2.36C69.66,128.68,70.17,126.8,71.15,125.66Z"/><path d="M82.91,135.18a11.31,11.31,0,0,1,.37,2.76h.25v.25l1.75-.17c.09-2.58.06-7.11.88-8.18.13-1.91,1.13-2,2.13-2.89v-.25c-.57-.17-1-.74-1.72-.58-.07,0-.63.68-.78.71-1.86.5-3.67-.72-4.74.28a3.66,3.66,0,0,1-1-.3c.06-1.81.29-3.3,1.2-4.18.61-.4,1.86-.25,2.52-.63a2.69,2.69,0,0,0,2-.65c0-.25,0-.5,0-.74-4-.67-4.89.37-7.78,1.13C76.91,127.79,77.46,133.64,82.91,135.18Zm.54-6.2c-.2.79-.48,2.18-.61,2.46,0,.5,0,1-.07,1.49l-.5,0c-.52-1.61-1.75-2.39-1.78-4.57Z"/><path d="M90.12,135.52a2.91,2.91,0,0,1,.77-.46c.56-1.4.61-3.32,1.45-4.42a9.79,9.79,0,0,1,3.28-.84,6,6,0,0,0,.62,2.77c.3.81.72.7,1.19,1.3.84-.25.33-.22,1-.2.67-3.22-.86-12.62-2.81-14.34-.84-.35-1.28.68-2,.41-1.34,1.51-4,9.4-4.78,11.73-.41,1.21,0,1.93-.37,2.48C88.61,135.06,89.11,135.26,90.12,135.52Zm4.27-11.26c.86.52.79,2.64.84,3.28a4.54,4.54,0,0,1-2.26.39A13.67,13.67,0,0,0,94.39,124.26Z"/><path d="M15.67,143.34a13.46,13.46,0,0,0-.93,4.69c1.55,1.59,2.3,4,3.76,5.66a4.14,4.14,0,0,1-.56,1.72,3.88,3.88,0,0,1-2.62.37l0-.74a3.91,3.91,0,0,0-1.24,1.19c-.13.13-.43.79-.28,1,.26.67.45.8,1.14,1,1.58,1.21,4.07-.45,5-1,1.65-6.37-2.7-6.22-3.32-10.12-.07-.47.88-.69,1-.95.2-.46-.06-.66,0-1.25,1.89,0,3.54-.12,4,1.43.49-.07.46,0,.72-.21l.47,0C23.51,141,18.54,142.4,15.67,143.34Z"/><path d="M16.09,154.57c-.77.19-.36-.15-.74.47l.71,0Z"/><path d="M28.91,143.71c.66,1,.34,3.62,0,5.73l-3.57.33c0-1.39-.31-2.24.14-3-.32-.32-.64-.41-.91-.79a2.91,2.91,0,0,0-1.48,1.18c-1,1.84.52,6.78,1,8.77l1.18.05a28.54,28.54,0,0,0,.41-3.72,3.55,3.55,0,0,0,2.66-1.12c.33,1.27-.53,3.49-.21,4.48.22.69.46.23.43,1,.84-.14,1,0,1.68-.66.79-.79,1.62-10.26,1.74-11.64a2,2,0,0,1-.67-1C30.31,143.28,30.27,143.65,28.91,143.71Z"/><path d="M33.63,143.94c.07.62.38.78.43,1s-1.16,5.34-1.22,5.68c-.29,1.6.6,2.67-.15,3.23v.25a4.33,4.33,0,0,0,2.17-.9l.54-6.45a13.13,13.13,0,0,0,.86-3.2C34.75,143.36,35.13,143.8,33.63,143.94Z"/><path d="M43.4,142.65a23.31,23.31,0,0,0-.71,4.95c-1.25-.72-1.18-2.69-2.2-3.59-.49-.44-.77,0-1.15-.55a1.52,1.52,0,0,0-1.48,1.17c-.87,1.27-.9,6.08-1.06,7.43.15.22.28.79.43,1l0,.49a4.09,4.09,0,0,0,1.22-.69c.35-1.55.28-4.34.71-4.95l0-.5.24,0c.62,1.89,1.82,3.71,2.57,5.6.42-.14.24,0,.49-.23l1.65.08c.72-2.87.73-7.65,2.35-9.61-.3-.27-.86-.57-1.15-.8A3.88,3.88,0,0,1,43.4,142.65Z"/><path d="M55.08,141a16,16,0,0,0-1.42,4.91h-.23c-.32-1.55-1.13-2.49-1.48-3.8-.91-.08-1-.05-1.39-.57-.73.29-.9.69-1.7.92-.36,4.33-1.76,6.35-1.94,10.87.53.15.26.23.71,0a2,2,0,0,0,1.2-.2c.55-.79,1.21-6.12,1.29-7.41l.7.28a66,66,0,0,1,1.58,6.55,9.46,9.46,0,0,0,1.92-.41c1.11-.62,2.23-8.19,3.09-10.32a5.21,5.21,0,0,0-1.16-.55C55.85,141,55.74,141.1,55.08,141Z"/><path d="M64.73,142.16c-.75-.18-1.68-.31-2.09-.85-5.26.23-4.56,7.16-4,10,.75.25.37-.12.68.53,3.79,0,6.42-3.22,6.53-7.92Zm-4.34,6.77c.17-.88,0-3.44.68-4.45.29-.74.25-.73,1-.95.25-.19.06-.09.49-.23a4.26,4.26,0,0,0,.9.79,21.31,21.31,0,0,1,.14,2.25C62.44,147.6,61.94,149.62,60.39,148.93Z"/><path d="M74.46,141.62a2,2,0,0,0-1.59-1.32c-1.37-1.13-3.06.3-3.81.32-1.52,1.72-.75,4.2-.54,6.45,1,.34.81.86,1.35,1.56-.34,3.63-2.47,2.27-3.68,2.82l-.48,0c.17,1.52.67.84,1.09,2.05,3.27.11,4.08-1.61,5.61-3.48-.11-3.39-1.92-4.39-2.74-7.1a2.28,2.28,0,0,0,.74-.71c1.47.09,1.42.44,2.33.85C73.24,143.37,75.12,142.92,74.46,141.62Z"/><path d="M79.07,143.84c-.1,1.58-.29,3.14-.52,4.71-.08.58-.71,3.42-1.88,2a1.18,1.18,0,0,1-.2-.74l-.25-4.51a.45.45,0,0,0-.09-.32.49.49,0,0,0-.33-.13,4.37,4.37,0,0,0-1.25,0,.58.58,0,0,0-.36.15.58.58,0,0,0-.11.34,21.13,21.13,0,0,0,.07,5.56,1.93,1.93,0,0,0,2,2,3.83,3.83,0,0,0,2-.09c1.17-.48,1.9-2.16,2.31-3.26a16,16,0,0,0,.6-3.29,5.27,5.27,0,0,0-.4-2.86.7.7,0,0,0-.24-.17,2.24,2.24,0,0,0-1.33-.16Z"/><path d="M86.12,145.41a23.24,23.24,0,0,1,.16-3.49,5.34,5.34,0,0,1-1.15-.55c-.6.81-1.37,1.09-1.76,2.16-1.18,1.8-.11,6.88-.86,8.19.13.69-.17.39.45.52-.47,1.34-.08,2,.54,3.51a6.71,6.71,0,0,1,1.67-.17c.12-.51.08-.48.27-.74.06-1.32.12-2.65.19-4l.47,0c1.32,2,1.6,2,3.45,2.15a7.1,7.1,0,0,0-2.61-4.85c.3-1.57,4-4.18,5.42-4.48.1-.58.21-1.16.31-1.73-2.85.16-4.23,2.28-6.56,3.67Z"/><path d="M102.86,146.94c0-.5,0-1,.07-1.49-1.74-.12-3.94-.07-5.92,0,0-.92-.07-1.83-.11-2.75,1.55,0,2.63-.42,3.3.41a6.63,6.63,0,0,0,2-1.16c.17-.18.33-.54.5-.72-2.11-1.84-7.53-.08-9.21-.43a2.17,2.17,0,0,0,1.34,1.8,55.81,55.81,0,0,0-.56,11.94,1.89,1.89,0,0,1,1.4.31c1-.15.87-.07,1-1.19a9.7,9.7,0,0,0,4.48.46l.53-1.23a10.48,10.48,0,0,0-4.89-1.72l.18-3.73C98.52,147.35,100.58,147,102.86,146.94Z"/></g></g></svg>