<svg xmlns="http://www.w3.org/2000/svg" viewBox="0 0 68.11 84.68"><defs><style>.cls-1,.cls-2{fill-rule:evenodd;}.cls-2{fill:#fff;}</style></defs><title>news</title><g id="レイヤー_2" data-name="レイヤー 2"><g id="レイヤー_1-2" data-name="レイヤー 1"><path class="cls-1" d="M62,61.73h-.81c-.21,1.23-1.32,2.14-.81,3.78.69,2.24,3.18,3.11,3.51,5.67.56.87.1,4-1.35,4.59-.73.59-4.83,1.36-5.94.54-.8-.23-1-.37-1.35-1.08-.7-.77-.85-2.28-1.08-3.51a9.57,9.57,0,0,0,1.35-1.35l1.89.54c.59,2,.45,2.56,3.24,2.43a4.1,4.1,0,0,0,.27-1.08c-.31-.37-.05-.92-.54-1.89-.27-.54-1.28-1.11-1.62-1.62a7,7,0,0,1,.81-9.18c1-1.06,1.79-2.12,3.78-2.16.93-.65,1.77-.37,3-.27.39,1,1,.87,1.35,1.89.85,1.08.4,2.22,0,3.78a3.67,3.67,0,0,0-1.35.27c-.3-.64-.26-.48-.81-.81a4.11,4.11,0,0,0-.27-2.16,2.33,2.33,0,0,0-1.35-.27,4.76,4.76,0,0,1-1.62.54A4.14,4.14,0,0,0,62,61.73Z"/><path class="cls-1" d="M34.06,44.52C20.09,43.94,4,40.1.85,28.31-.44,23.5,2.69,18.75,4.36,16.43,10.43,8,18.94,4.92,30.28,1.58,34,.5,41.22-.89,45.67.77c9.69,3.62,16.64,7.48,20.26,17.28,1.2,3.27,2.09,7.44.54,11.07-1.63,3.81-7,9.86-10.26,12.16-1.48,1-3,1.43-4.6,2.43-1.26.78-1.91,3-3,4C46.83,49.57,38,56,35.14,56.13c-.52.26-1.33-.07-2.16-.27-.37-.69-.6-.71-.81-1.62a14.48,14.48,0,0,1,0-2.43c.57-2.38,1.66-4.62,1.89-7.29Z"/><path class="cls-1" d="M56.29,59.84c-.51,4.79-4,7.29-5.67,10.8-.83,1.73-1.19,3.07-1.89,4.86l-.81.27c-.49-1.06-.82-.69-1.08-1.35-.74-1.33,1-2.45.27-3.78-.09-.17-1-.59-1.08-.81C45.55,69,46.09,68,45,67.4v.27c-1.85,1.86-3,4.93-4.59,7-.2-.13-.49-.78-.54-.81-.85-.42-.46.81-1.08.27C37.12,71.91,35.4,63.81,36,60.38a2.74,2.74,0,0,1,1.62-.54c.41-.19,0,0,.81,0a3.18,3.18,0,0,0,.81.54c.1,1.5.93,7.39,1.62,7.83.29-1,3.54-6.44,4.32-6.75h1.89c.5.9,1.21.95,1.62,1.89.75,1.1,0,2.81.81,3.24.36-1.61,3.27-6.81,4.86-7,.74-.47,1.22,0,1.89.27Z"/><path class="cls-2" d="M59.72,22.91c-.87-1.42-.48-3.44-1.08-5.13C57.05,13.35,53.78,8.43,50,6.17c-2.89-1.73-5.51-.53-8.1-.54C27.78,5.58,11.77,12,7.06,24.8a8.36,8.36,0,0,0,3.51,10C14,37.06,18,38.2,22.72,39.39c3.16.79,5.26-.77,8.37,0a21.41,21.41,0,0,0,6.48.81l.27.81c1.67,2.49-.71,5.74-1.08,9.72h.54c1.23-1.85,3.09-2.73,4.86-4A62.77,62.77,0,0,0,54.58,34.52c1.76-2.33,4.24-4,5.14-7.29V22.91Z"/><path class="cls-1" d="M40.81,26.69c-.1-1.36-.32-3-.27-3.78.15-2.23,4.28-9.2,6.75-10,.88,1.43,1.78,0,1.89,2.16-.53.89-.3,2.32-.81,3.24-1.07,1.95-5.18,8.06-7.56,8.37Z"/><path class="cls-1" d="M25.23,63.35a13.93,13.93,0,0,1-.54,3.78h1.08c.95.6,6.39,0,7.29,0-.05.7.6,1.21-.27,1.62-2,1.47-6.28.4-8.37,1.89-.69,1-.78,2.7-1.08,4.32h.54c1.56,1.13,5.16-.47,7.56-.81a6.61,6.61,0,0,0,.81,1.08c-.4.42-.21.5-.81.81-2.14,1.91-6.56,2.41-10,2.16-.31-1.09-1.07-1.54-1.35-2.43-.4-1.28.33-3.32.54-4.32-.84-2.6.59-7.63,1.35-10.8a36,36,0,0,1,6.21-.54c.42.66.62.61.81,1.62-1.39.53-1.76,1.45-3.78,1.62Z"/><path class="cls-1" d="M40.54,13.73a31.15,31.15,0,0,1-4.32,8.91c-.37.55-1.28,1-1.62,1.62s-.14,2.09-.54,2.7c-.33.28-2.54,1.11-1.35,1.89h-.54c-.55-.4-.36,0-1.08.27-.35-.76-.24-1.22-.81-1.62-.17-.07-.12.09-.27-.27.81-1,.27-1.05,0-2.16.25-.78.94-1.08,1.35-1.62L33,19.13c1.4-2.29,3.65-3.81,5.13-5.94.7.17.52.13,1.35,0,.32.72-.24.49.54.81.28-.22.08-.09.54-.27Z"/><path class="cls-1" d="M40.27,30.74a6.4,6.4,0,0,1-1.08,3h-.81v1.08h-.54a5,5,0,0,1-1.08.55c-.37-1-.7-.74-.81-2.17-.16-.26,0-.51,0-1.35,1.19-.9,1.25-1.61,3.51-1.62.4.69-.06.31.81.54Z"/><path class="cls-1" d="M31.09,30.2A15.84,15.84,0,0,1,30,35.34c-.77-.06-.63.06-1.62,0-.32-1.1-.7-1-.81-2.44.36-1-.86-2.76,1.62-3a3.15,3.15,0,0,1,1.89.27Z"/><path class="cls-1" d="M29.74,12.38v.81H30c.29-.2.26-.16.81-.27-.15.63.24,2.65,0,3.51-.74,2.62-2.36,4.85-3.51,7-.72,1.37-.78,3.36-2.43,3.78-.29.21-.26.17-.81.27-.65-1-.24,0-1.08-.54-.24-.2-.31-.34-.54-.54.65-4,2.1-13.28,6.21-14,.33.2.27,0,1.08,0Z"/><path class="cls-1" d="M24.34,30.2c.05,1.68.26,1.42.27,2.7-1.54,1.14-1.64,2.89-4.32,3-.28-.21-.08-.09-.54-.27a20,20,0,0,1-1.35-2.7c.7-.87,1.16-1.64,1.89-2.43,1.14.09,2.24-.25,4.05-.27Z"/><path class="cls-1" d="M17.13,60.92c0,3.64-3,13.66-1.35,15.93a2.31,2.31,0,0,1-1.08.81v.27c-.27.27-.27-.27-.27-.27-.23-.2-.3-.34-.54-.54-.69.58-1.65.13-2.16-.81-.61-1.14-.43-2-1.08-3-1.24-1.89-3.1-3.44-4.32-5.4H5.79v.54c-.82,1.3-.13,3.73-.54,5.4-.89,3.59-.38,4,0,7.83-.47.17-.26.05-.54.27-.71-.2-.65-.32-1.35-.54V82c-.37.73.12,1,.27,2.16-.72.27-.46.35-1.35.54-.67-.89-.43.48-1.08-.27C-.21,83,.55,81,.12,78.47c-.5-3,.72-10.82,1.35-14,.71-3.63-.34-5.68.81-8.1l1.62-.27a15.58,15.58,0,0,0,1.35,3.51c.51-.26.32-.11,1.08,0v1.08c.51.76.14,1.8,0,2.7,3,1.35,3.44,5.92,6.21,7.29V69.56c1.36-2.39.07-8.13,3-8.91.67-.38,1,0,1.62.27Z"/></g></g></svg>