<svg xmlns="http://www.w3.org/2000/svg" viewBox="0 0 75.86 82.13"><defs><style>.cls-1,.cls-2{fill-rule:evenodd;}.cls-2{fill:#fff;}</style></defs><title>アセット 10</title><g id="レイヤー_2" data-name="レイヤー 2"><g id="レイヤー_1-2" data-name="レイヤー 1"><path class="cls-1" d="M67.86,60H66.45c-.69-.88-1-.62-1.14-2.27,2.23-1.4,5-2,8.78-2,.7.86,1.2.5,1.41,2-4,1.73-4.1,2.55-4,7.64,1.74-.09,3.65-.3,4.24.85.23,1.95-2.66,1.89-4.52,2.55a23.86,23.86,0,0,1,.28,5.09h.28a8.28,8.28,0,0,1,2.83-.56,2.75,2.75,0,0,0,1.13.85c0,.87.17,1.14,0,1.41a11.75,11.75,0,0,1-7.35,2.27A3.83,3.83,0,0,1,67.58,75c.32-.19.79-.23.85-.57a24.79,24.79,0,0,0-.85-4,15.86,15.86,0,0,1,.28-6.23V60Z"/><path class="cls-1" d="M61.35,71.28c2.86,0,2.9.57,5.38.28v.57c-.39.28.08.18.28.84-.71.56-.71,1.06-1.7,1.42-1.41.93-3.65.82-5.37,1.41-.33-1.56-1-.93-1.7-2-.9-1.35-.34-4.34-.57-6.22-.14-1.15-.26-5.3-.28-6.23,0-1.21.75-3.67.57-4.52-.28-1.29,1.78-2.38,2.54-2,1.7.56,1.53,2.26,1.42,4.53-.72,1.13-.6,9.4-.57,11.89Z"/><path class="cls-1" d="M63.33,47.51a4.91,4.91,0,0,0-2,.28c-1.7-5.75-3.3-12.72-7.64-15.85a17.66,17.66,0,0,0-5.94-2.26H45.51c-.53-.24-.65-.72-.85-1.41-.16-.21-.41,0-.29-.57h.29c.5-1,1.48-1.21,2-2.27-1.34-2.28.34-7-.29-9.9-.91-4.22-2.62-10.35-8.2-10.75-2.84,1.93-5.59,2.28-7.64,5.09-4.87,6.67-.57,13.91,0,19.53-4.3,1.49-13.59,4.66-15.85,7.92a20.8,20.8,0,0,0-2.83,4.81c-.47,1.59.67,2.35-.28,4.25-.64,1.26-1.9,1.89-2.55,3.39a16.13,16.13,0,0,1-3.68.28c-.15-1.3-.62-3.16,0-4.52.15-.33,1-.72,1.13-1.14.62-1.53.28-3,1.14-4.24,4.27-6.3,10.24-8.8,17.54-12.17q-.84-2.27-1.7-4.53V18.36c0-8.65,2.77-11.66,7.64-15.28C32.92,1.71,36.43-.8,40.41.25a10.91,10.91,0,0,1,4.25,2c.19.38.37.76.56,1.13,1,.81,2.38,1.25,3.12,2.27,1.71,2.36,2,5.16,3.11,8.2a13,13,0,0,1,.85,2.55c0,1.21.62,5.16.28,5.94a18.75,18.75,0,0,0-1.42,4c5.79,2,11.76,10.21,12.74,17l-.57,4.25Z"/><path class="cls-1" d="M55.13,57.41c-.46,2.93-1,8.94-.57,11a20.87,20.87,0,0,1,0,6.22c-.46.66-.41.67-1.41.85-.7-1-.88-.27-1.14-.56-2.72-3.27-1.54-13.39-1.41-18.4a2.63,2.63,0,0,0,.85-1.13c.73,0,.44,0,1.41-.28a5.55,5.55,0,0,0,2.27,2.26Z"/><path class="cls-1" d="M40.13,79.48V78.35h-.28c-.29.23-.08.1-.57.28a10.35,10.35,0,0,0-.85-2.26c-.75-2.43-.85-17.32-.28-19.81s0-4.82,2.26-5.66c1.06.57,3.66.07,5.66,0,.28.76.36.49.57,1.42-.39.29.08.18.28.85-.73.41-1.54,1.36-2.26,1.69s-2.46-.06-2.83.57v2c.78,1.17.61,2.71.56,4.81H43c.77.47,2.42-.2,3.39.28.38.19,1.15.88,1.7,1.14v.56a13.54,13.54,0,0,1-2.83,2l-2.83.29v.85c1.2,1.82-.17,10.09-.56,11.88h-.57c-.33.23-.47.22-1.13.28Z"/><path class="cls-1" d="M43.24,13.27A5.68,5.68,0,0,1,41.83,17c-1.34,1.2-8.75,2.2-9.91,1.41-1.32-.41-1.47-1-1.41-2.83a2.47,2.47,0,0,1,0-2c1.79-2.31,10-1.85,12.73-.28Z"/><path class="cls-1" d="M41.26,23.45c-.19.57-.11.89-.28,1.14a8.09,8.09,0,0,1-5.66,1.69c-.36-.62-.83-1.21-.57-1.69.48-1.41,1.81-1.24,3.68-1.14a3.75,3.75,0,0,1,2.83,0Z"/><path class="cls-2" d="M37.3,14.4v1.7l.85.28A27.86,27.86,0,0,1,40.69,15v-.29h-.56a6,6,0,0,0-2.83-.28Z"/><path class="cls-1" d="M39,19.78a3.13,3.13,0,0,1-.57,1.41c-.51.56-1.48,1.12-2,.85a4.15,4.15,0,0,1-.57-2.26,5,5,0,0,0,1.42-.85,14.18,14.18,0,0,1,1.7.85Z"/><path class="cls-2" d="M35.88,16.66a3.89,3.89,0,0,1,0-2H33.34c-.46.43-.57.44-1.42.57v.28h.29a3.67,3.67,0,0,0-.29,1.13,4.35,4.35,0,0,0,1.13.29,9.1,9.1,0,0,1,2.83-.29Z"/><path class="cls-1" d="M34.75,62.79a41,41,0,0,1-1.13,9.05,4.43,4.43,0,0,1-1.41.29,13.75,13.75,0,0,1-5.1,0c-2.6-4.16-3.16-14,3.68-14.44,1.34,1.25,3,1.75,3.4,4,.18.24.38.89.56,1.13Z"/><path class="cls-2" d="M30.79,69.86c.27-3.21,1.05-5.14.28-8.49l-1.41-.28c-.35,1-.69.91-.85,2.26-.86,1.24.14,5.38.85,6.23v.28Z"/><path class="cls-1" d="M26.55,75.8c-.11.59-.07.55-.29.85-.61-.19-1.62.1-2.83,0-.94-1.25-3.28-3.69-4.81-4.24-.12,2.19,0,2.53,0,5.09-.68.26-.45.3-1.13.57-.52-.58-1.53-1-2.26-1.7-.11.59-.07.54-.29.85v-.28h-.28c-1.52-4.21-2-16.82-1.13-21.23a35.77,35.77,0,0,1,4-1.13c1,1.27,3.69,2.62,5.09,3.4.5,3.3.34,7.6-2.26,9.34,2.21,3,3.5,6.05,6.23,8.48Z"/><path class="cls-2" d="M20.32,60.24c-.95-.47-.82-1-2-1.41v2.54c.52.87,0,3.11.57,4,.32-1.32.87-3.55,1.41-5.09Z"/><path class="cls-1" d="M3.06,80.05H2.21a25.44,25.44,0,0,0-1.13-4c-.91-3.43-.21-9-.85-11.6C-.49,61.6.61,57,1.64,56.56c1.43-1.14,5.91.15,7.64.57,3.57,5.69,2.24,11.3-3.39,13.86.41,1.12.39,6.41.85,6.8-.29.27-1,.18-1.13.56-.47,1,.67,2,0,3.68-.82-.15-.86.28-1.42,0s-.19.12-.56-.57c-.43-.46-.44-.57-.57-1.41Z"/><path class="cls-2" d="M8.44,63.64a7.37,7.37,0,0,0-2.55-2v.84c.36.66.31,3.07.28,4.82h.57V67c1.12-.52,1.54-1.94,1.7-3.39Z"/></g></g></svg>