<svg xmlns="http://www.w3.org/2000/svg" viewBox="0 0 109.15 184.02"><defs><style>.cls-1,.cls-2,.cls-3{fill-rule:evenodd;}.cls-2{fill:#fff;}.cls-3{fill:#6e6e6e;}</style></defs><title>アセット 3</title><g id="レイヤー_2" data-name="レイヤー 2"><g id="レイヤー_1-2" data-name="レイヤー 1"><path class="cls-1" d="M70.91,7.78c-.45,0-.77.43-1.1.3,0-.19-.09-.37-.14-.55-.38-.35-.91-.07-1.07-.25-.45-.93-.5-3-1.57-3.88a7.73,7.73,0,0,0-7.87-1.19c-.76-.84-4.12,1.66-5,2.22C50.15,7,45,14.23,43,19.09c-.1.6-.19,1.2-.29,1.79-1.47,3.85-3,7.23.48,10.13.83.7,1.67,2.06,3.68,1.67a14.58,14.58,0,0,1,1.83-.43,2.66,2.66,0,0,1,.13.91,4.9,4.9,0,0,0-1.69,1.16c.92.38.55.55.28,1.28-1.11-.25-1.43-.72-2.83-.89v.18h-.18c-1,4.65,0,10,5,9.86.47-.53,1.16-.69,1.52-1.35-.48-.6-.11-1-.43-1.83-.54-1.48-2.22-3-2.58-5h.18v-.18c.56,0,.22.32.55-.15-.74,0-.94,0-1.24-.43.94-.29.79-.69,1.34-1.36.68-.84,1.92-1.68,2.5-2.56,1.1-1.64,1.4-3.43,2.31-5.27,1.46-3,2.77-6.22,4.51-9.12.8-1.33,2.15-2.68,2.95-4A15.53,15.53,0,0,1,64.5,9.38c.31-.28.59-.84,1-1,1.48-.71,4.1.23,5.93.35,1.35,3,1.9,5.69,5,7.16-1.2-3-3.81-5.48-3.78-9.07L73.73,6c.31.13.17,0,.35.2.34.29-.12.25.52.39.32-.33.27-.28.92-.3A25.33,25.33,0,0,0,79.84,9.4a2.91,2.91,0,0,1,.1-1.62,18.42,18.42,0,0,1,2.36-.39c.63,2.26,2.8,3.48,2.87,6.3H85v.18l-.54,0c-.18.57.07.28-.39.52-.74-1.39-1.83-2.49-2.47-3.94l-.36,0v.18a5.41,5.41,0,0,1,.92,2.76l-1.08-.07c.13,1.09.86,1.62,1.3,2.43.68,1.26.65,2,1.25,3.14l1.54,1.36a11.72,11.72,0,0,1,3.19,7l-1.1.3c-.22-.85-.77-.77-1.18-1.34-.06-.08.34-.38.22-.7-.61-1.59-1.85-3.89-3.52-4.55v.18h-.18c.53,2.78,2.8,7.11,4.12,9.45-.64,0-.44-.11-.74.32.43.3.39.44,1,.6.91-.55,2,.28,2.68.52,2.51,5.57-2.75,13-8.79,11v.18c1,1-.3,3.48-1,3.92-.48.3-.76.1-1.1.29-.89.87-.44,2.25-1.1,3.18-.54.77-1.41.68-1.73,1.88,1,1.12-1,6.4-1.26,9l.36,0a23,23,0,0,1,9.16-2.34,18.51,18.51,0,0,0,4.19-.65,6.51,6.51,0,0,1,2.5.33l5,.67c1.29.49,2.58,1.51,3.67,2s2.09.66,3,1.44c3.78,3.33,3.62,14.85,3.21,21.67-.22,3.6.51,6.34-.17,8.83a8.12,8.12,0,0,0,0,2.71,14,14,0,0,1-.4,3.58l-.69,5.55c-.19.49-.64,1.15-.83,1.76a2,2,0,0,1,2.43,1.59c-3,2-4.35,5.13-6.44,8.09-1,1.46-2.3,2.76-3.33,4.31-.43.65-2.94,4-2.94,4,.06,2.11-2.13,5.46-3.94,5.54-1.45.85-3.65-.1-5.61.2s-5.19.28-7.25.65c-1.33.24-2.47-.46-4-.24-2.72.4-6.72.09-10.13.47-.68.08-2.22-.54-3.23-.37-.71.12-4.42.65-5.24.23-1.65-.86-5.15-.5-7-.25l-2.87-.35a51.88,51.88,0,0,1-8.14.41c-2-.07-4.47-1.14-6.81-.77-.55.09-2.31,0-2.53,0a9.52,9.52,0,0,1-4.9.43l-2.11-.85c-.45-.86-1.49-2-.7-3.47-.29-.56-1.06-1.13-1.34-1.7-.34-.72-.29-1.34-.6-2-1.17-2.6-2.24-5.14-3.5-7.79s-3.51-4.29-3.5-7.79h.18c.53.73,2.48-.2,4.16-.11,5.62.31,9.48-.47,15.7-.14.46-2.13,2.15-3,3.67-3.93,1.88-1.21,3.83-2.72,5.82-3.8s3.93-1.48,5.58-2.73l.41-.88c1.67-1.07,4.87-1.44,5.79-3.26-.73-.72-.08-1.79.15-2.51-.42-1.08,2.06-4.8,2.55-6.35h-.18c-1,.76-2.44.48-3.84.85-1.68.44-3.43.88-5.15,1.5-2,.73-4.11,2-6.11,2.7-7.26,2.7-13.94,5.14-19.36,9.84-.37-.27-1.07-.33-1.4-.63-.14-.19-.07,0-.16-.37.69-.23.15-.27.58-.68s1.09-.32,1.48-.63a31,31,0,0,1,3.21-2.34c.73-.45,1.66-.48,2.06-1.32a1.1,1.1,0,0,1-.33-.38c2.58-1,3.2-4.25,4.21-7.14,1.55-4.4,4-9.13,4.81-14a3,3,0,0,1,1.78.47c.13.22.12.31.14.73-1,1.42-.63,3.12-1.36,4.61-1.3,2.6-2.33,6.67-3.68,10.06-.55,1.39-1.53,2.69-2,4l.36,0c2-1.42,4.76-1.91,7.2-2.81,3.34-1.24,6.7-2.85,10.17-4.08,2-.72,4.51-.91,6.41-1.6,1.43-.52,7.83-1.52,8.12,0a10.86,10.86,0,0,0-.88,2.65h.18a12.65,12.65,0,0,1,1.87-1c2.83-1.77,5.1-3.69,9.4-3.41.23.4.62.45.86.78.51.72.47,1.71,1,2a6.24,6.24,0,0,1,4.34-.28v.18h.18c0,.48.07,1,.1,1.45-1.05,1-1.43,2.52-3.4,2.5-.27-.15-.61-.07-1.26-.07-.33,3-.31,5.53-1.55,7.84a3.23,3.23,0,0,0-1.26-.07,2,2,0,0,0-.67-1c0,1.58-.41,3-2,3-.44-.51-1.16-.8-1.54-1.35-.65-1.11-.3-3-1-4-.62.64-1.48.11-2.16-.13,0-.48.08-.21-.14-.73-.32.09-.17,0-.37.15-.87.24-1.23,1.06-2.06,1.32-1.71.54-2.52-1.43-2.82-1.07a16,16,0,0,1-3.41,2.68c-.92.4-1.89-.18-2.91.37-1.41.76-2.65,2-4,2.83-2.84,1.71-5.85,3.16-8.59,4.9-1.6,1-6.29,3.41-7,5l1.44.09c.92-.49,2.24.06,3.44-.16,2.37-.43,5.53-.29,8.16-.77l2.88.17,3.64-.5c.75-.11.61.3,1.24.25,2.79-.21,6.46.64,9.91.24,6.73-.78,17.15,1.52,25.06.42l3,.19a36.5,36.5,0,0,0,5.07-.24,2.34,2.34,0,0,1,1.07.24,16.16,16.16,0,0,0,4.49.27c0-1,.51-1,.84-1.93s.3-2.08.53-2.85l.37-6.12c.25-4.16.71-7.76.33-11.52-.09-.89.54-2.63.26-4.32-1-6,.5-12.72-3.14-16.79-1-1.11-5.47-2.63-7.39-3.15a24.11,24.11,0,0,0-7.94.07c-.85.16-2.57-.21-3.8.13-2.07.56-3.86,1.88-6.42,1.78a1.18,1.18,0,0,1-.23.89c.72.13.73.08.85.77s-.55,2.07-.53,2.85a4.18,4.18,0,0,1,.09,1.45c-.11.63-.45,9.46-3.11,9.74-.22.13-.31.12-.73.14-1.49-2.81-2.46-5.61-4.77-7.69v.18c-1.91,1.17-4.52,6.22-6,6.68-.22.13-.31.12-.73.13-.28-.28-.5-.15-.88-.41-.65-.45-.83-1.45-1.32-2.06s-1.23-1-1.71-1.55c-.89.17-.82,0-2-.12-.6.92-1.57,1.63-2.14,2.58-1.43,2.39-1.56,3.72-3.58,5.56-.31-.13-.17,0-.35-.2-3.62-2.3-3.84-11.74-3-15.34.4-1.81.77-3.13,1-4.63a44,44,0,0,1-7-3.13c-1-.51-1.23-.1-2.32-.5-2.17-.81-4.76-1.91-7.35-.8-3.91,1.67-7.4,8.68-9.43,12.78-2.45,5-5.47,9.92-8.1,14.67-1.59,2.88-2.31,5.86-3.94,8.6-.94,1.59-4.26,8.25-4,10A34.42,34.42,0,0,1,2.34,107a11.77,11.77,0,0,0,.78,8c.56,1.1,3.06,3,5.08,2.65a5.35,5.35,0,0,1,2.71-.2c-.36.4-.36.7-.77.86-1.33,1.18-4.4.94-5.95,0-2-1.2-5.1-5.74-3.94-9.62,1.38-4.58,2.07-9.47,4.06-13.46,4-8.08,8.87-16.16,13-24.12,2.81-5.43,6.51-14.39,12-16.42,5.27-1.95,13.49,4.89,18.06,5.77.18-.57.29-.89.6-1,.39.17.43,0,1.09-.12l.63,1.49h.18v-.18c.17-.28,1.26-7.51.89-8.79-.35.22-.17.22-.74.32a9.46,9.46,0,0,1-.51-3.46c.66-.75.31-1.42.34-2.69l-.36,0a3,3,0,0,1-2.7-.16c-3.42-1.35-4.28-4.16-5-7.34-.45-2.1.59-4.52,1.56-5-1.19-1.22-2.84-2-3.57-3.64-1.6-3.56.25-7.66,1.54-10.55.81-1.81,1.06-3.44,1.93-5.12a24.05,24.05,0,0,1,2.93-3.61c2.9-3.69,5.36-6.93,9.57-9.17,4.39-2.34,12.08-2.23,13.89,3h.18V4.29C71.52,3.1,72.69,1.56,74.93,1c2.76-.71,5.61.66,7.32,1.34,1.1.44,2.12.45,3,1.08.52.38,1,1.15,1.53,1.54.83.62,1.81.81,2.43,1.59,1.16,1.45,1.48,3.73,2.39,5.37a15.54,15.54,0,0,1,2.06,4.64,14,14,0,0,1-.2,3.41l0,3.43A15.46,15.46,0,0,1,90,28.78c-.84,1-.92,1.75-2.47,2-.23-.38-.22-.39-.68-.59,0-.45,0-.37-.12-1.09.7.11,3.81-3.39,4.24-4.43s.87-2.49,0-3.07L91,22h-.18l.16.37h-.18c-.59.44-.71.36-1.46.27,0,.41.15.21,0,.54-.18-.15,0-.06-.35-.2.16-1.66,0-6.18-.86-6.73A1.47,1.47,0,0,1,87,16C85.39,13.51,84.1,6,80.79,5.49l-.78,1a1.45,1.45,0,0,0-.72,0l0-.36c.22-.53.43-1,.64-1.58.28-.35.82-.44,1.13-.84-1.45-.24-2.55-1-4.07-1.32-2.6-.62-5.92,2.33-6.1,5.4Z"/><path class="cls-1" d="M46.72,29.06c.3-1.92,1.82-3.42,2.3-5.27l-.36,0V24c-.93.9-1.47,3-3.07,3.06-.23-.47.05-.2-.52-.39.12-5.65,2.6-7.68,4.16-12.2h-.17a2.84,2.84,0,0,1-2.25,1.31c-.18-.58,0-.42-.69-.59.3-2,1.77-2.62,2.76-3.8,2-2.41,4.18-3.63,6.82-5.36.32-.41.65-.81,1-1.21s.93-.26,1.3-.64c.81.51,1.75-.16,2.73-.38,1.16-.25,4.13,1,4.59,1.72a1.87,1.87,0,0,1,.29,1.1c-.79.78-1,2.17-2,2.77v.18c-.19.17-.16-.19-.17-.19-.25-.3-.12-.34-.5-.57V8.57c-.17-.19-.19.16-.19.16-3,1.85-7.25,8.82-9,12.27a17,17,0,0,1-1.05,2.46l-.75.5c-1.12,1.71-3.21,7.64-5,8-.43-.62-.67-.51-.62-1.66A11.37,11.37,0,0,0,46.18,29l.54,0Z"/><path class="cls-1" d="M85.27,6.12c.29.6.9,1.15,1.16,1.69.78,1.63.86,3.42,1.88,4.81a2.7,2.7,0,0,1,1.61.09l0-.35c-1.62-1.85-2.2-5.21-4.67-6.24Z"/><path class="cls-1" d="M50.29,14.66c-.24,2.53-2,5-3,8.12l.36,0v-.18c2.7-2.94,4.78-7.31,6.93-10.23.36-.48,1.14-.86,1.52-1.35,1.23-1.54,2.27-3,3.52-4.48.51-.61,1.19-.85,1.55-1.71H61c-.91.61-2.42.42-3.31,1.06-.16.11-.26.57-.41.7a17.6,17.6,0,0,0-4.06,4.63c-.44-.08-.08-.12-.54,0-.07.17-.15.35-.22.53.23.11.14,0,.17.19v.18l-.35-.21v.18a4.46,4.46,0,0,0-1,1.21c.37.09.34.06.53.21-.16.18-.07,0-.2.35l-.93.3.15.56-.54,0Z"/><path class="cls-1" d="M63.14,5c-.37,1.09-1.34,1.72-2,2.59l.36,0c.84-.72,1.89-.78,2.12-2.22-.13-.19-.06-.05-.16-.37l-.36,0Z"/><path class="cls-1" d="M74.52,7.82c-.22,3.58,3.08,7.44,4.84,9.49l.36,0v-.18c-2.7-3-1.77-7-5.21-9.33Z"/><path class="cls-2" d="M66.28,9.85c-.83.73-1.87,1.22-2.65,2-1.06,1.08-1.49,2.52-2.39,3.82-2.45,3.55-5.94,9.52-7.14,13.65.41.22.31.19.51.57,3.24-1.41,3.22-1.64,7.3-1.37.21.35.33.33.49.75.81,1,.16,2.15-.19,3.24-1,.46-2,1.51-3,1.8-1.45.43-4.73-.7-5.5-1.41-.42-.38-.28-1-.83-1.31l0,.36c-1.39,1.26-2.21,3.11-3.68,4.29-.2.15-.12-.08-.19.17.17.13.7.27.87.41.63.84.73,2.06,1.27,3,.31.52,1.07,1,1.35,1.53,1.17,2.22,1.81,5.08,2.8,7.38.79,1.84.24,3.94,1.68,5.15,3.73,3.16,10.32,3.49,14.74.89a36.18,36.18,0,0,0,4.06-4.45L75.83,49c.3-.85.63-1.59,1.06-2.65C79,41.32,83,35.86,85.08,30.29c-2.74-2.3-3.12-6.8-5-9.87-1.41-2.29-4.89-2.65-7-4.38a13.46,13.46,0,0,1-2.8-4.32c-.27-.73,0-1.14-.45-1.65-.32.35-.79.49-1.13.83a4.09,4.09,0,0,0-2.46-1.05Z"/><path class="cls-1" d="M91.11,20l.54,0c.18-2.07.4-3.32-.25-4.89a20.22,20.22,0,0,1-1.13-2.23l-.36,0v.18c1.07,1.54,1.28,5,1.21,6.93Z"/><path class="cls-1" d="M50.64,14.86c.14.2.06.06.16.37h-.18l0-.36Z"/><path class="cls-1" d="M50.44,15.21c.13.2.06.06.16.37h-.18l0-.36Z"/><path class="cls-1" d="M53.56,17.38c.11.6-.11.27.32.57l0-.54-.36,0Z"/><path class="cls-1" d="M91.1,20.18a1.78,1.78,0,0,0,.29,1.1c.08-.35.17-.71.25-1.06l-.54,0Z"/><path class="cls-1" d="M77,21l1.08.06c.17.44.15.33.5.57a3.19,3.19,0,0,1-1.33,1.19c-.29.25-1.09.52-1.28.28-.68-.29-1-.22-1-1.14.93-.23,1.55-.21,2-1Z"/><path class="cls-1" d="M61.64,20.94c.72.22.82.26.84,1.13l-.36,0c-.75.46-1.56.15-2.53,0a1.63,1.63,0,0,0-.33-.56v-.18h.18c.55-.31,1.64-.1,2.19-.41Z"/><path class="cls-1" d="M80.91,24.62l-1.63.08a1.12,1.12,0,0,0-.34-.38c.17-.37,0-.32.21-.53a1.55,1.55,0,0,1,1.11-.47c.31.65.58.32.65,1.3Z"/><path class="cls-1" d="M59.38,22.61a1.54,1.54,0,0,1,.82,1.31H60v.18a5.86,5.86,0,0,1-2.7-.16v-.18h.18l-.15-.37h.18c.55-.36,1.39-.32,1.85-.79Z"/><path class="cls-1" d="M76.63,23.82a2.11,2.11,0,0,1,.7.23c0,.46,0,.28.13.91a1.88,1.88,0,0,1-1.1.29c-.7.44-1.24.06-2-.3,0-.4-.16-.47,0-.72.6-.31,1.68,0,2.19-.41Z"/><path class="cls-1" d="M61,25.23l0-.72.36,0c.69-.57,1.76-.66,1.76.65l-.36,0c-.61.37-.93.17-1.81.07Z"/><path class="cls-1" d="M56.88,25.16c1.06,0,2.31,0,2.85.53h-.18v.18c-1.38.73-2.25.28-2.66-.7Z"/><path class="cls-1" d="M75.5,27.55a6.64,6.64,0,0,1,2.85.53l-.21.53-.54,0a5.71,5.71,0,0,0-2.49-.51l0-.36c.32-.09.18,0,.37-.15Z"/><path class="cls-1" d="M58.2,27.23l.36,0v.18c-.31-.13-.18-.05-.35-.2Z"/><path class="cls-1" d="M57.83,27.38l.36,0-.41.69-.36,0,0-.18c.3-.22.2-.1.39-.52Z"/><path class="cls-1" d="M81.56,31.7l0,.72c-2.35,1.66-1.64,2.47-6.08,2.16-1.4-1.2-3.79-2-3.92-3.85,2.08-3.42,7.51-1.84,10.1.07a3.16,3.16,0,0,0-.59.87l.53,0Z"/><path class="cls-1" d="M66.57,29c.05.38,0,.35.15.55a2,2,0,0,1,.56-.32,3.75,3.75,0,0,1,.41,2.19,20.88,20.88,0,0,0-.61,4.11c.11.2.74.35.87.59a9,9,0,0,1,.81,4.56h-.18v.18l-1.45.09a29.63,29.63,0,0,0-1-4.39l-.37.16c-1,1.65-1.1,3.58-2.94,3.79-.17-.46-.42-.54-.66-.94.86-.34.79-1.44,1.22-2.27.3-.58,1.09-1,1.35-1.54Q65.38,32.35,66,29l.54,0Z"/><path class="cls-2" d="M74.81,30a2,2,0,0,1-.92.3l0,.72c.32.39.42.81.83,1.14v.18h.18a2.46,2.46,0,0,1,1.39-2.08L74.81,30Z"/><path class="cls-2" d="M77,30.34c.11.19.45.27.51.39.39.72-.07,2,.21,2.54.74-.63,1.53-.6,1.74-1.88h.18v-.18l-.36,0A4.42,4.42,0,0,0,77,30.34Z"/><path class="cls-2" d="M59,29.8a20.93,20.93,0,0,1,0,2.53h.18a2,2,0,0,1,1-.67c.14-.77.6-1.27.27-1.61s-.67-.31-1.42-.26Z"/><path class="cls-2" d="M87.29,32.58c-.33.25-.93.25-1.3.47a15,15,0,0,0-1,2.28c-.78,1.41-1.76,3-2.6,4.35-.28.46-1.22,1.71-1,1.93a6.91,6.91,0,0,0,.51.57c4.64-.59,6.48-3.33,6.49-9a1.64,1.64,0,0,1-.51-.57l-.53,0Z"/><path class="cls-2" d="M56.27,32.34a5.26,5.26,0,0,0-.11-1.27l-.36,0c-.34.14-.13.08-.54,0l0,.54c.25.29.12.34.51.57.18.15.16.12.53.21Z"/><path class="cls-1" d="M72.79,39.65c-.13-1.35-1.08-1.44-1.29-2.6a5.28,5.28,0,0,1,2.33.32c.28.93,1,.82,1.15,1.87l-.55.15a2.35,2.35,0,0,1-1.64.26Z"/><path class="cls-1" d="M59.42,36.86a2.54,2.54,0,0,0,.9.06v.18c-.49.18-.57.34-.77.85.66.19.56-.14.68.58a5.26,5.26,0,0,0-.77.86,4,4,0,0,0-1.81.07l0-.54a7.74,7.74,0,0,0,1.74-2.06Z"/><path class="cls-1" d="M72.66,41.81a5.91,5.91,0,0,1,2.3.68A6.64,6.64,0,0,1,75.24,44c-1.77,1.73-2.41,4.75-4.71,6.21-3,1.87-7.71.59-10.63-.28a5.11,5.11,0,0,1-.52-3.28c1-.25,2-1.13,3-1.44s2.21,0,2.9-.19c.16,0,.45-.46.57-.51,1.58-.66,2.77-.86,4.24-1.54.18-.09.59-.63.77-.68a4.84,4.84,0,0,0,1.83-.43Z"/><path class="cls-2" d="M72.55,43.61c-.76.6-1.81.46-2.76.91s-2.22,1.55-3.37,2c-.76.28-1.6-.15-2.15-.12a11.33,11.33,0,0,0-3.13.89c.1.32,0,.18.16.37a5.84,5.84,0,0,0,.62,1.66c.75,0,1.42.24,2.51.33a4.42,4.42,0,0,1,3.42-2.86c1.2-.22,2.31,1.08,2.84.71a9.94,9.94,0,0,0,2.22-3.83l-.36,0Z"/><path class="cls-1" d="M51.54,44.87a2.87,2.87,0,0,0-.4.7c.32.29.28.51.68.76.18-.38.17-.25.39-.52H52a1.24,1.24,0,0,0-.49-.93Z"/><path class="cls-2" d="M66.6,49.56a5.11,5.11,0,0,0,2.55-.39l.39-.51L69,48.44a2.39,2.39,0,0,0-1.6-.45,1.33,1.33,0,0,1-.76.67l-.05.9Z"/><path class="cls-2" d="M53.24,49.66c-.33,4-2.64,11.79-1.17,16.53a32.54,32.54,0,0,0,2.94,5,14.62,14.62,0,0,0,1.37,1.16l.9.06L60,75.69l.55-.15c.72-1.81,2.51-3.56,3.73-5l1.32-1c0-.24-.09-.49-.14-.73.43-.91,6.5-5.74,7.59-6.22.42-2.68.77-6.23,1.78-8.55h-.18c-4.31,4.76-13.29,5.56-18.84,1.21a7.51,7.51,0,0,1-2-3c-.32-.92,0-1.93-.57-2.56Z"/><path class="cls-2" d="M47.59,62.67a18.1,18.1,0,0,0-.76,12.59c.53,1.87.07,3.15,1.18,4.4v-.18c1.25-.85,2.24-4.22,3.22-5.58.63-.87,2-1.25,2.48-2.2C51.57,70.49,50,65.42,49,62.94l-1.42-.27Z"/><path class="cls-2" d="M72.16,65.05c-1.21,1.63-3.85,2.56-4.44,4.79a9.6,9.6,0,0,1,3.06,3.25c.61,1.06.35,2.22,1.27,2.78l0-.36c1.22-1.73.68-7,1.3-9.48L73,66c-.24.35-.15.33-.57.5a3.61,3.61,0,0,1,.08-1.44l-.36,0Z"/><path class="cls-2" d="M59.74,85.6c-.46,1.59-.91,3.19-1.37,4.79h.18a1.78,1.78,0,0,1,.94-.67v.18h.18c-.31.4-.4.25-.59.87a2.49,2.49,0,0,0,.71.22,7.68,7.68,0,0,1,3.7-1.58,1.38,1.38,0,0,0,.86.77,12.39,12.39,0,0,1,.28-1.78c.63-.25,1.07-.62,1.68-.81l0,.36c1.07,1.59,1,5.4,1.73,7.32.15-.17.07,0,.2-.34.72-1,.57-5.28.39-6.48.86-.11.78-.41,1.83-.43a11.12,11.12,0,0,0,.53,3.1l.36,0,.16-2.51c1-1.79-.58-5.39-1.4-6.76a16.77,16.77,0,0,0-8.37,4.18,12.53,12.53,0,0,1-2-.47Z"/><path class="cls-2" d="M58.8,83.19c-3,.18-4,3.14-5,5.66-.27.69-1,2.34-.72,3,.24.47.06.28.7.4.45-.41,1.19-.4,1.67-.8,1.19-1,3.13-6.52,3.38-8.28Z"/><path class="cls-2" d="M73.31,85l-.1,1.62a2.6,2.6,0,0,0,.71.22c.88-.94,1.67-1.24,2.32-2.57l-.54,0a4.15,4.15,0,0,1-2.39.76Z"/><path class="cls-3" d="M92.79,109.05c-1.45.76-4.91-.27-6.67,0-3.14.42-7.5.1-11.9-.17l-4.12-.43c-3.43.45-10,.24-13,.3-1.43,0-3.15-.84-4.65-.64s-3.51.16-5.08.42l-5.76-.17c-1.36.19-4.22.56-6.19.89-2.42.41-4.74-.28-7.23.11l-2.5-.33c-4.32.64-10.18.18-13.38.46v.18a13.81,13.81,0,0,1,1.61,3.16c1,2,2.51,4.08,3.42,6.16s1.52,4,2.35,5.92c3,.48,7.46-.79,11.54.15a44.58,44.58,0,0,0,12.45,0c2.92-.51,6.12.28,8.85-.18,1.4-.24,3,.29,4,.23,2.67-.16,5.39.11,8.32-.22l1.25.26c2.16-.29,5.18-.35,7.42-.46,1.2-.06,3.52.6,5.21.31,4.34-.72,9.69-.74,12.7-1,0-.56-.08-.27,0-.72l.71.23c.23-2,2.1-2.94,3-4.34a29.77,29.77,0,0,1,1.81-3c.24-.32.89-.53,1.13-.84.84-1.06,1.25-2.53,2-3.67a10.19,10.19,0,0,0,1.38-1.9l-.72,0c-.2.1-7.07-.56-7.9-.66Z"/><path class="cls-2" d="M62.5,111.74a5.83,5.83,0,0,1-.87,2.48l.36,0a2.17,2.17,0,0,1,1.62.1c1.2.41,1.62,1.1,1.45,2.79-1.39,2.08,0,5.16-3.3,5.22a4.45,4.45,0,0,1-2-.27c-.21-.1-.47-.24-.66-.1a.75.75,0,0,0-.21.26c-1.21,1.62-3.83-1.27-4.36-2.17a3.94,3.94,0,0,1-.46-3,4.61,4.61,0,0,1,.61-1.24,2.93,2.93,0,0,1,.77-.87,2.35,2.35,0,0,1,2.16-.17,4.75,4.75,0,0,1,1.76,1.36,3.8,3.8,0,0,1,1.12-1.47c-.31-.25-1-.15-1.44-.22-.05-.13-.1-.25-.16-.37,1.11-.9.94-2.25,3-2.17C62.15,111.77,62.13,111.79,62.5,111.74Z"/><path class="cls-1" d="M92.1,123.63l0,.36.36,0,0-.18-.35-.2Z"/><path class="cls-3" d="M90.16,125.86c-1.46.77-3.15.27-5.09.59a32,32,0,0,1-7.42.46,25.06,25.06,0,0,0-5.76-.35c-3.9.61-8.56-.21-12.29.35-.53.07-1.8-.37-2.5-.34-6.38.3-12.61-.23-19.36.83-1.55.24-3.74-.59-5.38-.51-4,.2-8-.54-11.2.23a2.64,2.64,0,0,0-.23.89c.11.14.21.41.32.56,2.09,2.23,12.52.16,17.06,1.39,2.44.65,6.08-.7,9.21-.17A27.27,27.27,0,0,0,52,129.7a8.26,8.26,0,0,1,1.61.28,17.55,17.55,0,0,0,6.32-.17l5.39.33c3.55-.62,9,0,12.31-.7s9.42.3,11.23-.59a4,4,0,0,0,2.15-2.76h-.18v-.18l-.72,0Z"/><path d="M72.61,142.09a7.19,7.19,0,0,1-1.28,1.47c.22.41.27.28.55.55a3.57,3.57,0,0,1,0,1.1l1.28.37c.3-.7.06-1.59.55-2.39a3.31,3.31,0,0,0-.19-1.1Z"/><path d="M48.93,144.34c-.52-.17-.18-1.12-.38-1.46v-.37H47.08c-.19.14-.17.12-.55.19-.3.64-.4.47-.55.92s.69,1.65.56,2.75c-.09.74-.61,8.48.57,9.73.16.11,1.56.84,2,.55,3-.3,4-6.17,2.73-9.19C51.25,146,50,145.32,48.93,144.34Zm-.17,10.47V155h-.18c-.55-1.9,0-5.89,0-8.82C51.2,148.17,51,152.82,48.76,154.81Z"/><path d="M93.19,145.17c-1.43,1.76-1.93,5.43-.35,7.34.43.52,1.5.66,2,1.1,1,0,1.27-.12,1.66-.74.14-.19.06,0,.18-.36-.16-.14-.21-.23-.37-.37s-1.07.09-1.29,0a3.07,3.07,0,0,1-.92-2.57c1.77.22,3,.59,4.41-.37.55-.37.76-1,1.46-1.29a2.43,2.43,0,0,0-.37-1.66C98.45,144.5,95.05,144.35,93.19,145.17Zm4.6,1.64H97.6c-.12,1.3-.66.94-1.46,1.47a2.9,2.9,0,0,1-2-.73,2.7,2.7,0,0,1,.54-1.28,1.6,1.6,0,0,0,.92-.19,4,4,0,0,1,1.66.18c.44.24.13-.09.36.37C97.61,146.63,98,146.62,97.79,146.81Z"/><path d="M107.53,147.71c-.46-.22-.69-.26-.93-.74-1,0-2.15,0-2.75.74-.61-.12-.62-.26-.37-.55,0-1.54-.53-2.07-1.84-2.2-.21,1.64-.71,7.94-.16,8.64.21.61.5.73.73,1.28.56,0,.52.14.74,0l.55-.18c.27-1.6-.41-2.66.36-4.41.42-.56.85-1.11,1.28-1.66,1,.1,1.82.44,2.39,0C107.7,148.23,107.47,148.14,107.53,147.71Z"/><path d="M82,155.29c0-2.08.22-3.46-.74-4.59,0-.1.48-.48.73-.92-1.17-.61-1.9-1.43-3.68-1.46a5.32,5.32,0,0,1,0-2.57c-.44-.16-.31-.07-.56-.37-1,0-1.57.36-1.83,1.11-.05.33.49.82.55,1.47s-.58,1-.73,1.47c-.39,1.4.47,2.6.74,3.49a11.08,11.08,0,0,0,3.13.36c0,1.91-.26,3.4-.36,5h-.18a27.87,27.87,0,0,1-3.86.74h-.37c0,1-.15,1.91.38,2.57a2.61,2.61,0,0,0,1.29,1.29V163l.55-.19c2.44.76,2.7-1.34,3.85-2.39a3.93,3.93,0,0,1,2,.55c1.28,0,.75-.17,1.47-.56a6.8,6.8,0,0,0-2.94-1.65A11,11,0,0,1,82,155.29Zm-4.76,5.89a1.61,1.61,0,0,1-.92-.18h-.18a2.55,2.55,0,0,1,.36-.74l1.65-.18c0,.36,0,.73,0,1.1C77.77,161.05,77.62,161,77.25,161.18Zm.71-9.55v-.19h-.18a5.22,5.22,0,0,1,.18-1.65c.91.26,2,0,2.75.73h.19C80.43,151.32,78.7,151.57,78,151.63Z"/><path d="M67.85,147.79a4.63,4.63,0,0,0,1.47-.18c-.11-1.82-2.2-1.47-3.31-1.65-.41.4-1,.39-1.47.74s-.65,1-1.1,1.29c.23,2.21,1.65,2.59,2.22,4.22a2.3,2.3,0,0,1-.18,2.2,2.84,2.84,0,0,1-.37.74h-.73v-.55H64c.12.42,0,.72.18,1.1.09.72.18.59.37,1.1,2.46,0,2.3-.92,3.31-2.21a5.79,5.79,0,0,0-2.4-5.14,2.77,2.77,0,0,1,.54-2A2.78,2.78,0,0,1,67.85,147.79Z"/><path d="M58.48,146.53c-1.11.83-3,.63-3.67,1.84a33.48,33.48,0,0,0,.56,5.14,13.08,13.08,0,0,0,1.66,2.2c2,.08,2.51-.2,3.12-1.47H60v-.18a2.7,2.7,0,0,0-1.47.55,6.64,6.64,0,0,1-1.1-.55,14.48,14.48,0,0,0-.56-2.39v-.55c.75.19,1.9.8,2.57.36,1.17-.06,1.32-.46,2-.92.18-.61.36-1.22.55-1.84a7.65,7.65,0,0,1-1.29-1.65A7.78,7.78,0,0,0,58.48,146.53Zm.93,3.12c-.32.12-.18,0-.37.18a3.27,3.27,0,0,1-2-.91s-.37,0-.19-.18H57c.26-.34.61-.45.91-.74h.74a1.79,1.79,0,0,0,.92.55c0,.52-.13.26,0,.55Z"/><path d="M86.4,146.83c-.2.08-.25.75-.73.56-.06-.19-.13-.37-.19-.55a4.59,4.59,0,0,0-2-.37c0,1.38.17,5.05.38,7a7.33,7.33,0,0,0,1.66.73c.28-.33.36-.23.55-.73.52-1-.53-3.46,1.09-4.78v-.18c1,.53.57,3.4.93,4,.09,1.14.61,1.17,1.47,1.47a2.17,2.17,0,0,0,.36-.73c1.3-2-.69-5.55-1.3-6.43Z"/><path d="M71.71,147.6l-.55,2c.06.37.13.74.19,1.1a18.09,18.09,0,0,0-.73,1.66,8.9,8.9,0,0,1,.92,2.39c.38.07.35,0,.55.18.64-.16.5-.26.92-.56-.05-2.38.51-5.3-1.12-6.79Z"/><path d="M37.38,146.18a3.77,3.77,0,0,0-.62-1.7,12.44,12.44,0,0,0-4-.82c-1,.54-2.47.16-3.36.7-.15.25-.07.23.15.56-.26.22-.68.3-.95.49h-.19v.18c.91.53-.83,6.8.2,8.11.44.83.63.1.9.25,3.13,1.66,5.91-1.65,7.77-3.35-.05-.38,0-.36-.14-.56,0-1.25-.66-1.3-1.35-1.93A9.05,9.05,0,0,1,37.38,146.18Zm-6,6.41c-.63-.08-.76-.11-1.07-.44a11.26,11.26,0,0,1,.16-2.38,12.81,12.81,0,0,0,2.42-.39,6.86,6.86,0,0,1,2,.32C34.26,151.33,32.44,151.39,31.43,152.59ZM35,145.65c-.43.33-1.22,1.36-1.57,1.56-.69.38-1.66.14-2.25.58l-.37,0c.07-1,.16-1.64.15-2.2a14.21,14.21,0,0,0,2.24-.4l1.83.12Z"/><path d="M21.51,152.3c.1-.72,0-1.22.29-1.63,0-.37.05-.74.08-1.1.31.14.17,0,.35.2,1.67.16,2.51.18,3.35-.51-.73-.87-2.12-1.12-3.79-1.17a2.72,2.72,0,0,0,.25-.91,5,5,0,0,0,3-.35c.44-.18.35-.15.59-.51.09-.19-.1-.25.05-.74-2.23-.1-4.13.31-5.29-.72-.31.86-.79,1.06-1.91,1a7.73,7.73,0,0,0,.49.95c.12.15.89.26,1.25.64.61,1.37-1,4.11-.6,6.22a4.91,4.91,0,0,1,.3,1.12c1.14,0,.86,0,1.51-.63,1.15,1.58,4-1.23,4.34-1.56l.18,0v-.19C23.94,152.37,23.4,152.93,21.51,152.3Z"/><path d="M16.89,147c-.29-.18-.55,0-.9-.25-.68.39-.2,1-.49,1.81A10.37,10.37,0,0,1,13.8,152v.18h-.18c-.4-2-1.3-4.05-1.83-5.83a4.84,4.84,0,0,1-1.86.43c-.64,1.53-.35,3.39-1.23,4.52-.13.31,0,.17-.2.35C8,150.15,8,147.2,7.2,146c-.35-.59-.63-.77-1.6-.84-.18.26-1,.85-.66,1.61.06.12.63.26.71.42.68,1.4.95,4.59,1.25,6.16.26,1.38-.15,2.38.71,3.17v.19l.38-.16,0,.18h.19L8,156.19c.47.18.42.26.89.43a8.6,8.6,0,0,0,1.81-5l.37,0c.26,1.35,1.09,1.85,1.65,2.87,2.72.24,2.72-1.9,3.73-3.62.37-.61,1.6-2.14,1-3.25C17.23,147.08,17.41,147.27,16.89,147Z"/><path d="M57.29,172.17c-.84-.93-1.15-2.3-1.95-3.25-.5-.6-1.44-.79-1.89-1.44-.74-.08-1.46-.41-2-.11-2.53.41-1.44,2.61-2.56,4.29,1,1.77,2.07,4.11,3.63,5.33-.81.77-1.93,1.21-2.75,2a5.64,5.64,0,0,1-1.12-3.37c-.58.06-.61.17-.71,1l-.49-.19a6,6,0,0,0,1.15,2.87c-.27.88-1.84,1.51-2.89,1.47a14.31,14.31,0,0,0,1.42,1.08,15.46,15.46,0,0,0,2.52-.84c.63-.14,3.88,1.42,4.18,1.73,1.12.1,1.57-.07,1.87-.87.83-1.05-.25-3.57-1.07-4.19C55.66,175.34,57.37,175.83,57.29,172.17Zm-3.17,8.71,0,.33c-1.05-.32-1.69-.87-2.73-1.16v-.16a6.72,6.72,0,0,0,2.07-1.53c.47.38.54.93.91,1.38A2.22,2.22,0,0,1,54.12,180.88Zm-.37-4.81-.32,0c-.54-1.08-1.58-1.88-2.14-2.93-.22-.83-.45-1.67-.67-2.51a2.83,2.83,0,0,1,.43-1.62l1.31.08c.55.6,1.57,1,2,1.6s.49,1.28,1.2,1.89C55.45,174.49,54.57,175,53.75,176.07Z"/><path d="M86.37,178.08c.24-.94,2.06-2,2.93-2.13a3.1,3.1,0,0,0-.1-1c-2.1-.11-2.47.83-3.88,1.42-.32-1.59,0-4.59-1.65-5.54a2.68,2.68,0,0,1-.68.45c.29,1.88.47,4,.79,6s-.54,4.12.33,5.46a3.17,3.17,0,0,0,.45.86l.83-.12v-.16h.16a14.49,14.49,0,0,0-.17-2.65l.07-1.15c.94.32,2.75,2,4.05,1.23l.32,0a1.21,1.21,0,0,0-.28-.68A17.47,17.47,0,0,0,86.37,178.08Z"/><path d="M109.15,174.83c-.11-.76-.43-.83-.74-1.36a6.67,6.67,0,0,0-2-.45c-.46.38-1.31.43-1.7.89s-.49,1.54-1,2.09c.67,1.15,1.65,2.19,1.4,4.2-.15.11-.2.2-.35.31-.44.29-1.78.09-2.8,0,.47.93,2.1,2.27,3.37,1.52a1.82,1.82,0,0,0,1.34-.42c.93-3.21-.37-3.52-.77-6.31.14-.16.06,0,.18-.32l1-.26c.57.72,1.3.73,1.73,1.25h.17C109,175.45,108.88,175.21,109.15,174.83Z"/><path d="M68.74,172.61c0-.89-.23-.86-.4-1.51l-.48-.19a1.26,1.26,0,0,1-.86.61c-.41,1.69.15,2.85,0,5.44-.85,0-1.45.07-2.64,0a41.11,41.11,0,0,0-.37-4.8,1.62,1.62,0,0,0-.73-1.53c-.1-.14-.58.07-.67.13l-.69.45a77.29,77.29,0,0,0,.67,8.12c.21,1.23-.23,2.25.13,3.3L63.77,184l1-.11.19-.48c.22-.51-.45-.46.06-1-.22-.42,0-.19-.47-.35,0-1.27-.07-2.54-.1-3.8a7.43,7.43,0,0,1,2.14,0c.68.51,0,1.71.17,2.65a15.24,15.24,0,0,0,.71,1.86,3.81,3.81,0,0,0,1,.06v-.17h.16c0-1.75.11-4.88-.08-6.76C68.47,175.21,68.92,173.19,68.74,172.61Z"/><path d="M29,170.91a6.38,6.38,0,0,1,2.47,0c-.08.34-.06.32-.19.49v.16c.78-.35.93-1.06.94-1.92a8.48,8.48,0,0,1-1.29-.57c-1.46-.49-2.61.52-3.51.78a18.61,18.61,0,0,0-.83,5.72,3.32,3.32,0,0,0-1.16.09,1.74,1.74,0,0,0,.58,1.19c.2.14.16,0,.66,0-.05,1.8-.12,5.23.78,6.31.13.12.5.25.63.37.16-.18.05-.38.21-.65l.33,0,0-.49-.57-4.32c.09-1.79.39-1.17.95-2.09.14-.16.06,0,.18-.32-.51-.47-.42-.53-1.12-.56A8.07,8.07,0,0,1,29,170.91Z"/><path d="M103,176.11c-.17-.38-.22-.26-.46-.52a5.44,5.44,0,0,0-2.87,1.14c-.39-.58,0-.89-.08-1.48-.06-.37-.44-.72-.6-1a3.29,3.29,0,0,0-1.84.55c.12.4,0,.27.3.51l0,.66c-3-2.11-4.08-2.38-7.54-.78-.2,2.13-.22,5.41,1.94,6.21.61.46,1.55.08,2.14,0a1.29,1.29,0,0,0-.1-1c.28-.15.56-.3.85-.44v-.17a2.78,2.78,0,0,0-1,.27,2.48,2.48,0,0,1-1.78-.6c-.08-.5-.15-1-.24-1.5,2.31.52,4.4.59,5.82-.8l.33,0c-.07,1-.32,2.32.14,3.14.12.62.27.47.44,1a4.66,4.66,0,0,1,1.49-.24c.09-1.4.19-1.84.16-2.62C101,177.72,101.89,176.73,103,176.11Zm-8.1.34a3.15,3.15,0,0,1-2.78-.33l-.33,0v-.17h.17a2.45,2.45,0,0,1,.37-.64c.34,0,.31,0,.5-.13a2.57,2.57,0,0,1,1.61.59c.39.24.12-.07.31.35h.16Z"/><path d="M22.25,171.33a10.56,10.56,0,0,1,2.42,1c.23-.05.46-.5.86-.61a1.86,1.86,0,0,0-.28-.84c-.48-.81-2.64-1.79-3.73-1-2.05.82-.68,5-2.21,6.63v.16a4.67,4.67,0,0,0,1.14.23,22,22,0,0,0,.9,7c.46.09.53,0,.81.21h.17c.43-1.77-.35-4.32-.24-7.1a2.2,2.2,0,0,0,1.5-.24l.33,0a2.06,2.06,0,0,1,.05-.82L22,175.11c-.37-.73.19-3,0-3.63h.16Z"/><path d="M80.2,176.49a3.06,3.06,0,0,1-1.21.91c-.31,1-.74,2.25-.17,3,.11.82.32,0,.43,1a.92.92,0,0,1,1,.23,4.62,4.62,0,0,0,2.32-.36c0-.34,0-.32-.13-.5-.56-.36-.94.18-1.64-.1-.48-.19-.61-.85-.92-1.21a4,4,0,0,1,.4-1.13,1.93,1.93,0,0,1,1.8.28c.74,0,.79,0,1-.6h.16v-.17h-.16C82.8,176.91,81.48,176.51,80.2,176.49Z"/><path d="M42.11,175.49c-2.37-.21-3.45.45-4.57,2-.95-.28-.7-.7-1.24-1.23s-3.42-1.19-4.08-.74a2.72,2.72,0,0,0-1.57,1.39c-1.19,1.13.25,5.81,1.76,6.37v.17c.71.05,1,.09,1.34-.25h.16v-.17a3.82,3.82,0,0,1-1.7-1.91c-.1-.41,0-.74-.1-1l0-.33a4.41,4.41,0,0,0,4.68-1c.71.54.19,1.6.5,2.5.43,1.2,1.48,1.63,2.33,2.45.64,0,.84,0,1.17-.26l.33,0a2.08,2.08,0,0,1-.13-.67,1.24,1.24,0,0,0-1-.06,7.68,7.68,0,0,1-1-3.19c3.08.66,2.16.91,4.82-.7.07-.58.18-.89.07-1.15C43.89,176.32,42.76,176.35,42.11,175.49Zm-7.28,3.19-1.65.06a1.61,1.61,0,0,0-.94-.71c-.05-.83.17-.92.74-1.44,1,.38,1.94.26,2.23,1.29h.17C35.17,178.35,35.05,178.25,34.83,178.68Zm7.25.1a3,3,0,0,1-1.47-.25c-.51-.29-.5-.64-1.1-.89v-.16a4.35,4.35,0,0,1,1.54-.9,7.71,7.71,0,0,0,1.09,1Z"/><path d="M77,178.82c-.46-.49-.7-1.48-1.2-1.89l-1.64-.26c-.83-.43-.91-1.07-2.4-1.14-.13.11-.38.2-.51.3-.6.26-.6.88-1.07,1.26-.15,1.27-.11,2.78,1,3.35.24.33.66.43.94.72,1.92.19,2.83-.52,3.1-2.12.57.41,1.74,1.68,2.73,1.15l.33,0C78.26,178.85,77.54,179.36,77,178.82Zm-3.65.44-.36.47c-1.27-.15-.92-.79-1.56-1.41.13-.11.38-.2.51-.3s0-.34.37-.64c.15-.16.79.48,1.45.58A2,2,0,0,1,73.37,179.26Z"/><path d="M10.29,172.52c-1.17.78-2.71.8-3.57,1.92-1.82,2.37-1.31,7.85,1.11,8.81.36.28,1,.3,1.13.4a2.74,2.74,0,0,0,2.38-1.18h.17v-.16c-2,.1-3.58.27-4-1.73-1.15-1.88.13-5.59,1.68-6,.32-.27,2.88-.84,3.45.21h.16c.08-.66.26-1.14.09-1.48C12.49,172.4,11,172.67,10.29,172.52Z"/><path d="M15.89,174.8a7.17,7.17,0,0,1-1.2.75l-.82,0c-.25.12-.41.6-.7.78-.12,1.37-.88,2.7-.39,3.6,0,1.5.7,1.67,1.51,2.4,3.68.26,3.72-3.82,3.38-6.89A6.23,6.23,0,0,0,15.89,174.8Zm-.69,6.06c-.34-.09-.32-.06-.48-.19-.72-.46-.25-3.14.25-4.27l1.32.08A7.73,7.73,0,0,1,15.2,180.86Z"/></g></g></svg>