<svg xmlns="http://www.w3.org/2000/svg" viewBox="0 0 84.26 79.67"><defs><style>.cls-1,.cls-2{fill-rule:evenodd;}.cls-2{fill:#fff;}</style></defs><title>アセット 9</title><g id="レイヤー_2" data-name="レイヤー 2"><g id="レイヤー_1-2" data-name="レイヤー 1"><path class="cls-1" d="M82.37,64V63.2a3,3,0,0,0-2.16-.81,3.27,3.27,0,0,1-1.63.81c-.17,1-.41,1-.54,2.16.66.78.56,1.72,1.08,2.7,1.08,2,3.62,5.39.27,7-.78.74-1.91.84-3.51.81a11.7,11.7,0,0,1-1.08-1.62,2.26,2.26,0,0,0,.27-1.35l2.16-.27a3.89,3.89,0,0,0,.27-1.35c-1.6-1.63-4.71-9.51-1.62-10.8,1-1.07,2.15-1.15,4.33-1.08.72.5,2.07.46,2.7,1.08s.8,1.77,1.35,2.43c-.17.47-.06.26-.27.54-.49.44-.68.47-1.62.54Z"/><path class="cls-1" d="M73.72,73.46c-.38.86-.71,1-1.89,1.08l-2.43-.81c-.88-.56-1-1.47-2.16-1.89v.54c.6,1.39,0,2.53,0,4.86-.65.24-.43.29-1.08.54v.27h-.27c-.22-.8-.12-.74-.81-1.08.09.77.29.56,0,1.08v-.27c-1.4-1.59-1.33-4.9-1.62-7.56l-.54-11.88a3.18,3.18,0,0,0,.81-.54,21.48,21.48,0,0,0,2.43,0A3.43,3.43,0,0,1,67,60c.45.68.32,3,.27,5.4h.27c1.08-1.3,2.62-2.87,4.86-3l.27.81a2.24,2.24,0,0,1,.27,1.35c-1.21,1.07-2.09,2.39-3.24,3.51v.27h.27a20.27,20.27,0,0,0,3.78,5.13Z"/><path class="cls-1" d="M51.58,60c2.32-.3,3.68.31,5.67.81,1.17,1.74,3.06,4.53,1.62,7.29-.34.65-1,.72-1.35,1.62,1.3.58,4.23,3.77,4.32,5.67a6.68,6.68,0,0,1-2.43.54c-.84-1.25-2-1.29-3.24-2.16-.82-.59-1-1.91-1.89-2.43v2.43c.39.75.36,2.78.27,4.59-.69.18-1.41.84-1.62.54a9.18,9.18,0,0,0-1.08-1.08c.09.77.28.56,0,1.08v-.27h-.27c-1.51-2.67-2.28-8.12-1.35-12.42V61.85c.32-.77,1.06-.83,1.35-1.89Z"/><path class="cls-2" d="M53.74,62.66a36,36,0,0,0,.54,5.94h.27c.87-1.28,1.79-1.6,1.89-3.78-.62-.78-.57-1.48-1.62-1.89-.32-.22-.45-.21-1.08-.27Z"/><path class="cls-1" d="M28.9,23.5a7,7,0,0,0,8.37,5.94c.41.67.62.62.81,1.62-.41.44-.42.55-.54,1.35-.56.1-.52.07-.81.27-4.08,3.86-1.42,7.71-1.08,12.42H34c-.4-1-.84-.43-1.35-1.08-.79-1-.6-2.75-1.35-3.78v.27h-.27c-1.16,2.31-3.49,4.59-4,7.29.95.16,2.72-.28,3.51.27l.27,1.09c1.83,1.63,5.1.85,6.75,3.24.82,1.19,1.05,2.6,1.89,3.78s2.17,2.16,2.43,4a7.43,7.43,0,0,0-1.62.81c-.6-1.13-5.65-8.14-6.48-8.64-1.43-.86-3.24-.51-4.86-1.08-1.15-.41-2.42-1.48-3.51-1.9-.38,1.48-4.91,7.85-6.22,8.11v.81a36,36,0,0,0-3.24,3.51c-2.12,2.12-4.67,4.07-6.48,6.48-1.64,2.19-4,5.54-7,6.21-1,.23-1.26-.29-2.43-.27,0-2.64,1.2-4.08,1.62-5.94.89-4,2.81-11,4.86-14.85.34-.64,1.46-1.28,1.89-1.89C9.2,50.4,9.43,49,10.26,47.8c.81-.71,1.62-1.44,2.43-2.16C14,44,15.17,41.29,17,40.24V40h-.27a7.45,7.45,0,0,0-1.35-.54v.27c.38.45.3.44.27,1.35H13.5c-.91-1.21-2.36-1.62-3-3.24-.78-2.09-.76-5.74.27-7.56.49-.86,1.85-.91,2.43-1.62.9-1.08.9-2.81,1.89-3.78s2.23-.44,2.7-2.16c1-1.73.39-4.79,1.35-6.48,2.69-4.7,9.67-1.79,13.51-2.43.45-1.79,2-2.73,3-4,1.17-1.68,1.81-3.49,3-5.13l1.08-.81c.08-.16-.54-.82-.27-1.35.37-.75,1.26-.78,2.43-.81.27.21.07.09.54.27C42.81,1.12,43,.53,44,.28a3.07,3.07,0,0,1,3,.27C48.43.92,49.11,2,49.15,3.79c.63.87.23,1.61.27,3.24.2.3-.64,2.78-1.08,3.51-1.68,2.77-3.88,5.77-4.86,9.18,6,1.51,11.33,9,9.45,16.2-.44,1.7-.72,3.78-1.35,5.67-.31.92-1.22,2.19-1.35,3.24-.45,3.54,2.7,6.77,2.7,11.35-.53-.13-1.57,0-1.89-.27-1.54-1-1.45-1.91-2.16-3.78-.65-1.71-2.71-4.69-1.89-7.57.77-2.71,3.76-7.83,3.24-11.61-.34-2.42-.81-6.31-3.24-8.1-1.39-1-3.39-1.49-4.59-2.7-.48.17-.26.05-.54.27-.44.43-1.32,2-1.08,2.16C42.33,26,45,26.92,46.72,28.09v.54c-.62.43-.41.58-1.35.81a1.52,1.52,0,0,1-1.35.27A110.47,110.47,0,0,0,33.22,24c-.48-.21-1-.93-1.62-1.08-1.34-.34-1.58.41-2.7.54Z"/><path class="cls-1" d="M48.88,70c-.21,2.6-2.2,7.7-4.05,8.37a3.49,3.49,0,0,1-3.24-.27c-.88-.28-1.06-.48-1.35-1.35-.93-1.16-.39-1.82-.81-3.24-1.5-5.07,1-6.85,3.51-9.45a27.35,27.35,0,0,1,3.51.81c.4.67,1.32,1.48,1.62,2.16.52,1.2.12,2.1.81,3Z"/><path class="cls-2" d="M46.72,3.79c-1.35.82-1.28.7-3,.27V4.6c.59.45.55.76,1.35,1.08A2.42,2.42,0,0,0,46.45,6V5.68h.27V3.79Z"/><path class="cls-2" d="M46.18,8.38c-3.19,0-3.47-1.27-5.67-1.62-1.5,3.07-3.6,5.69-5.4,8.64-1.06,1.74-2.88,2.87-3.51,5.13,2.73.17,4.61,1.76,6.75,2.7.58-2.4,2.33-4.55,3.51-6.48,1.57-2.59,3-5.8,4.32-8.37Z"/><path class="cls-2" d="M45.37,69.14a5.73,5.73,0,0,1-1.08-1.62,2.53,2.53,0,0,0-1.08.81c-1,1.25-.63,5.34-.27,7h.27c1.19-2,2.17-2.81,2.16-6.21Z"/><path class="cls-1" d="M38.62,65.9c-1.17,1.93-4.8,10.14-5.94,10.53-.41-.7-.6-.73-1.35-1.08.14-2.13-1.47-3.73-2.43-5.67h-.27V70c-1.85,2.61-2.76,8.17-5.41,9.72-.11-1,.13-.68-.54-1.08-.31.56-.18.51-.81.81v-.54c-1.29-1.67-1-4-1.62-6.48C19.9,70.9,19,69.69,18.63,68.6c-.77-2.44.42-6.25.81-8.1a6.47,6.47,0,0,0,1.35-1.08c.64.14,1.61.33,1.89.81.64,1.05-.06,1.74-.27,2.43A16.72,16.72,0,0,1,23,67.25c0,.36-.46.45-.27,1.08.09.28.68,1.91.82,2.43.22.87-.39.64,0,1.08.27.22.07.1.54.27.44-1.81,3.31-9,4.86-9.45v.27c2.58,1,1.56,5.5,4.05,7,.4-1.48,1.66-4.5,3-5.13.44-.41.54-.42,1.35-.54a2.53,2.53,0,0,0,1.08.81c.1.56.06.52.27.81Z"/><path class="cls-2" d="M33.49,31.87c-2.81-.17-3.64-1.94-5.67-2.7v.54c-.32.56.05,1.08-.27,2.16a26.47,26.47,0,0,1-2.7,6.75,8,8,0,0,1-3.52,2.43c-.22.06-.8-.59-1.35-.27-1.11.67-1.9,2.72-2.7,3.78-1.53,2.06-4.47,3.94-5.4,6.49l1.89-.27a2.51,2.51,0,0,0,.81.81,4.35,4.35,0,0,0-.27,1.35c1.46-.22,2.24-1,3.51-1.35s1.94.94,2.16.54c1.89-.93,2.06-3.22,3.24-4.86.76-1.05,2-2.11,2.71-3.25,1.14-1.84,1.72-3.7,3-5.4,1.54-2.11,4-3.68,4.59-6.75Z"/><path class="cls-2" d="M30.52,16.48c-3.41-.46-4.51-.72-7.57,0-1.54,3.06-3.85,18-1.35,21.06v.27h.27A38.27,38.27,0,0,0,26.2,26.2c.21-1.31-1.15-2.15-.54-3.24.55-1.67,1.8-1.31,2.7-2.43a32,32,0,0,0,2.16-4.05Z"/><path class="cls-2" d="M18.09,37.54C18,34,17.57,31.4,17.55,27h-.27c-.27.22-.07.1-.54.27-.37,1.21-1.06,2.55-1.35,3.78l.54,5.4c.55.38.56.37.81,1.08Z"/><path class="cls-2" d="M11.07,55.64V54H10.8a21.57,21.57,0,0,0-4.32,8.37c2.15-.66,2.17,1.09,3.51,1.89,1.16-3.11,5.6-4.11,6.75-7.29-.68-.11-.42.15-.54-.81A4.84,4.84,0,0,0,17,54.29h-.54c-1.41,1.81-3.24,1.66-5.4,1.35Z"/></g></g></svg>