<svg xmlns="http://www.w3.org/2000/svg" viewBox="0 0 95.82 128.92"><defs><style>.cls-1,.cls-2,.cls-3,.cls-4{fill-rule:evenodd;}.cls-2{fill:#ff0;}.cls-3{fill:#ae4c26;}.cls-4{fill:#fff;}</style></defs><title>アセット 1</title><g id="レイヤー_2" data-name="レイヤー 2"><g id="レイヤー_1-2" data-name="レイヤー 1"><path class="cls-1" d="M62.43,94c-4.22-.35-8.35.61-11.92,1.28-3,.57-5.55.08-8.41.89a19.31,19.31,0,0,1-5.43,1.15c.31,5.84-2.39,6.35-7.35,4.69l0,.23c.74,1.39-.06,4-.27,5.76a3.15,3.15,0,0,1-1,.38l0-.23A1.37,1.37,0,0,1,27,106.94c-.35-.73.19-1.39.18-2.07,0-1.05-.66-4.78-.07-7.19,1.75-7.05-.06-16.83,1.14-23.74.32-1.84-.35-4.72.59-6.9l-.45,0,0,.23-.23,0-.08.92c-4.18-1-8.85,2.91-10.9,5.54a48,48,0,0,0-5.07,7.66c-1.24,2.55-1.45,5-2.74,7.64-.73,1.5-2.34,3.6-2.78,5.31-.09.36.17,1.41.07,1.86a71.32,71.32,0,0,1-2.23,7c-1.23,3.59-.84,6.24-1.71,9.12a3.78,3.78,0,0,1-1.65.32A2.55,2.55,0,0,0,0,111.77c1.28-3.07.71-6,2-9.33C3,99.63,3.38,96,4.64,93c1.12-2.71,2.68-6,3.73-8.24.6-1.3,1-2.51,1.47-3.58L10,79.75s1.23-.82,1.23-.82c.39-.44.27-1.11.6-1.56,1.29-1.77,2.5-4,4-5.68,1.17-1.35,3.54-2,4.47-3.55l-.23,0c-.56.44-1.27.38-2.33.26-.3-.51-.61-.63-.82-1.23-.46-1.07.72-4.13.51-6-.93-8.46,1.48-22.12,3.73-29.54.49-1.63,3.35-8.14,3.09-9-.59-.6-.77-.26-.8-1.45,2-2.56,2.22-6.58,4.27-9.13a33.78,33.78,0,0,1,8.7-6.88c1-.52,1.94-.25,3.06-.66.74-.27,1.68-1.16,2.44-1.41,2.16-.72,4.2-.27,6.32-.84s4-1.49,6-1.8c3.69-.57,6.79,1,9.11,1.72C69,.36,70.8-1.2,77,1.29c1.79.73,3.2.69,3.73,2.41.4.74,0,2.54-.28,3.22-1.26,3.39-2.7,5-3.92,7.76,1.05.05,1.59-.06,2,.87-.09.08-.73.58-.75.63-.29.73.54,2.44.66,3.07,0,2.39,0,4.79.07,7.18,1.35,8,2.8,20.13.39,27.58-1.12.46-6.24,1.93-6.72,2.66-.14.42,0,2.17.7,2.61.49-.23,3.12.19,4.35.61,1.81.61,3.06.37,4.53,1.09l5.93,3.75c.13-.47.09-.43.29-.67.47.9,1.38,1.43,1.89,2.25,1.21,2,1.64,4.09,2.7,6.25A18.72,18.72,0,0,1,94,75c2.66,8.93,1.72,16.42,1.67,26.08a5.87,5.87,0,0,1-2.15.74c-.28-.85-.61-.41-.86-.77s-.14-.4-.15-.94c.61-.78.5-3.09.61-4.35a29.59,29.59,0,0,0-.33-9.52c0-.92,0-1.85,0-2.78-.3-1.65-.8-3.66-1.17-5.19l-.07-1.86c-3.18-9-8.14-14.6-18.8-15.52l0,.46c1,1.81.19,4.56.57,6.76.46,2.6.32,5.39.71,7.93l-.36,4.14A35.62,35.62,0,0,1,73,92.4L71.55,93c2.09,2.5,2.07,7.14.88,11.19-.41.11-.23,0-.48.19-1.94-1.22-1.59-1.69-1.17-5.2l-.23,0c-1.61,1-5,.79-7,.55a4.56,4.56,0,0,1-.66-3.06A25.22,25.22,0,0,1,62.43,94Z"/><path class="cls-1" d="M25.52,41.52c2-2,7,2,7-1,1.64-5.76,1.93-12.18,2-18.17-2.35.38-5,.72-7.38,1C22.46,33,20.87,44.8,19.6,59.29c.76,1.44.25,5.1.09,6.95l.23,0c1.55-.92,4.31-.25,6.31-.61,1.33-.23,2.77-.28,4.14-.39C26.71,57.41,22.39,49.66,25.52,41.52Z"/><path class="cls-2" d="M39.52,21.89l-.23,0c-2.6-.22-3.85.88-5.25,2.94-1.95,2.86-2.73,5.86-3.68,9.15a3.58,3.58,0,0,0-.18,2,1.22,1.22,0,0,0,1.53.88c.3-.14.52-.45.84-.56.56-.17,1.12.41,1.16,1a3,3,0,0,1-.58,1.62L29.9,44.22a3.83,3.83,0,0,0-.76,2.17c.05.78.81,1.55,1.55,1.3s1-1,1.69-.91a1.1,1.1,0,0,1,.68.78,5.08,5.08,0,0,1-1,4.46c-.91,1.3-2.13,2.36-3,3.66a9.74,9.74,0,0,0-1.44,3.1c-.29,1.08-.08,2.63,1,2.75.92.1,1.78-1,2.63-.58s.63,1.61,1.09,2.39a2,2,0,0,0,2.92.23,4.73,4.73,0,0,0,1.34-3c.69-4.36,1.66-8.92,1.19-13.38-.45-4.3.56-9.54.16-12.49.12-.45.23-.91.35-1.36-.09-.31-.71-.94-.8-1.46-.34-1.86,1.08-3.06,1.51-4C39.17,25.88,39.34,23.88,39.52,21.89Z"/><path class="cls-3" d="M28.09,20.21,28,21.35l.46,0c.8-.53,3.45-.05,4.92-.73l1.29-1.5c2.45-2.31,5.13-4.64,7.76-6.74A57.57,57.57,0,0,1,60.34,3.33l0-.23L56,2.72c-1,.47-2.38.14-3.51.39-1.76.38-3.84,1.25-5.46,1.61-1,.21-2.59-.12-4,.35-7.51,2.54-13.92,6.69-16.58,15l.23,0c.51-.24.64,0,1.38.12Z"/><path class="cls-4" d="M30.42,94.73l3.7.09,0-.46c1.21-1.54,1-6,1.19-8.47.38-4.34.84-8.45.35-12a18.89,18.89,0,0,1,.26-3A17.37,17.37,0,0,1,35.69,66l-.46,0a5.94,5.94,0,0,1-3.55.85c-2,8.13-1.1,17.87-1.26,27.91Z"/><path class="cls-4" d="M32.05,100c.26-1.51,1.15-2.18,1.68-3.33l-.23,0c-.88.49-1.7.15-2.78,0l0,.46c.48.43.66.46.38,1-.41.82-.82.59-1.48,1,.49.54,1,1.18,1.47,1.75l2.05.41c.54-.48.91-.5,1.27-1.28l.23,0,0-.23-.23,0c-.22-.2-.06-.09-.44-.27-.49.5-1,.56-1.9.53Z"/><path class="cls-3" d="M37.34,20.31c3.5.17,7.45-1.16,10.58-1.86,2.21-.49,3.65.18,5.55,0a71.28,71.28,0,0,0,8.93-1.54c3.14-.64,5.37-.4,8-.93,1.24-.25,2.18.25,2.83-.68-.26-1,1.52-2.47,2.14-3.29,1.42-1.87,3.52-5.68,2.81-8.32-1.41-.81-4.85-2.43-6.53-2.19a35.67,35.67,0,0,0-9.07,3.15c-4.95,2.18-9.73,3.75-14.21,6.41-.88.52-1.62,1.57-2.5,2.1-2.17,1.3-7.38,5-8.49,7.13Z"/><path class="cls-4" d="M37.34,65.69l.69.06a2.48,2.48,0,0,1,.34,1.42c-.61.91.28,3.9,0,5.33-1.08,5.35.56,18.91-2.23,23l.69.06c1.22-.71,3-.3,4.47-.77C45.71,93.31,51,93.63,57,92.63c2.86-.47,5-1.13,7.48-.74a4.41,4.41,0,0,0,.35-1.36c-.91-1.89.08-4.73-.08-7.18-.23-3.67.09-10.73-.56-14.87-.32-2.06.68-4.42-.17-6-.22-.21-.05-.09-.44-.27-4,5-12.22,5-19.63,4.78-2,0-3.36-1.73-5.37-2.09-.41.33-.87.43-1.23.82Z"/><path class="cls-4" d="M41.14,29.9c1.48-.28,2.41-1.45,4.06-1.5l2.26.66c.19.38.71.5.86.77.45.82-.69.65.34,1.42l.1-1.15c-.85-1.27-1.29-2.92-3.19-3.28-1.56-1.32-4,.64-4.33,1.93.25.5.1.67-.1,1.15Z"/><path class="cls-4" d="M43.19,51.61l-.06.69c1.12.35,1.2,1,1.95,1.56a21.91,21.91,0,0,0,5.08,2.76c2.23.8,4.49-.5,5.66-1.13,2.46-1.32,4.73-2.31,7-3.79a5,5,0,0,0,2.38-3.09c.56-2,1-4.11,1.4-6.19a7.06,7.06,0,0,0,.24-2.69,10,10,0,0,1,0-2.5l-.46,0c-3.71,3-6.84-.55-10.32-1.12-.11-.87-.59-1-.78-1.69-.06-1-.13-2-.2-3l-.69-.06a3.87,3.87,0,0,1-3,.2c-1,5.71-5.22,7.24-10.73,6.25-.18,1.62.13,3.22,0,4.82,0,.52-.28.93-.31,1.46a11.66,11.66,0,0,0,.06,1.18c.09,1.53.21,3.06.32,4.59A5,5,0,0,0,43.19,51.61Z"/><path class="cls-4" d="M41.22,34.31l-.06.69a4.42,4.42,0,0,0,2.93,1c.37.23.27.23.68.06a3.86,3.86,0,0,0,3-2.75l-.23,0c-.94,1.94-4.08,1.6-6.34,1.07Z"/><path class="cls-4" d="M42.33,21.44a18.7,18.7,0,0,0-.16,1.87c0,.33-.05.66-.08,1,0,.14-.17.53,0,.6a.39.39,0,0,0,.28,0,10.26,10.26,0,0,1,3.32-.11,9.24,9.24,0,0,1,.92.11,7.25,7.25,0,0,1,2.6,1.31,4.86,4.86,0,0,1,1.29,1.49c.11.17.92,1.95.88,1.95l3.94-.12c.07,0,.71-2.12.79-2.31a5.32,5.32,0,0,1,1.46-2.1,12.39,12.39,0,0,1,3.67-1.5,4.52,4.52,0,0,1,2.13-.45c.63.08,1.38-.18,2,.06s1.45.94,2.2,1.34L67.75,22c-.24-.44-.29-2.87-.6-3.76-2.59.64-4.41.09-7.24.76a30.77,30.77,0,0,1-5.2,1.17c-1.15,0-3.19-.48-4.84-.19Z"/><path class="cls-4" d="M42.13,31.84c.16.29.14.4.15.94l.46,0,0,.23.23,0,.42-2.28-.23,0c-.33.36-.67.72-1,1.07Z"/><path class="cls-4" d="M39.68,62.65c6.69,4.94,20.54,3,24.17-3.69,1.24-2.28.64-4.08.81-6.64l-.23,0c-.84,1.05-2,1.34-3.19,2-3.85,2.32-5.94,4.72-11.72,4.31-.29,0-.94-.72-1.09-.79-1.72-.9-3.24-1-4.68-2-1.06-.75-1.75-2.18-3-2.81l-.26,3c.49,1.09-.42,4.32-.81,6.64Z"/><path class="cls-4" d="M41.28,44.27c.51-1.28,1.59-2,2.35-3,.69.47,1.12.45,1.28,1.27a22.55,22.55,0,0,0-1.83,2.39l-1.8-.62Z"/><path class="cls-4" d="M41.64,40.13l0-.46.23,0c-.18.4-.07.22-.27.44Z"/><path class="cls-4" d="M44.75,30.91c.54.55.61.07.59,1.21-.36.53-.37.54.15.94.54-.7.89-.78,1.1-2a2.64,2.64,0,0,0-1.57-.6l-.27.44Z"/><path class="cls-1" d="M50.92,48.16a5,5,0,0,1-1.48-.38,5.61,5.61,0,0,1-1-.65l-1.61-1.2a.28.28,0,0,1-.09-.1.21.21,0,0,1,0-.17,1.2,1.2,0,0,1,.59-.36,15.24,15.24,0,0,0,2.77-1c1-.56,2-1.07,3-1.61A44.56,44.56,0,0,0,58,39.49a3,3,0,0,0,.79-.7,4.57,4.57,0,0,0,.42-.93,4,4,0,0,1,1.09-1.48.75.75,0,0,1,.3-.17.48.48,0,0,1,.33.08,1.89,1.89,0,0,1,.79,1.19,15.44,15.44,0,0,1,.44,2.79,16.3,16.3,0,0,1,.08,3.49,5.39,5.39,0,0,1-1.4,3.13,18.6,18.6,0,0,1-1.58,1.23,5.59,5.59,0,0,1-1.74,1.18,3.63,3.63,0,0,1-1.64,0,8.57,8.57,0,0,1-2.48-.56c-.32-.11-.6-.29-.91-.39a5.58,5.58,0,0,0-1.22-.15Z"/><path class="cls-4" d="M59,41.56c-.29.22-.59.44-.89.63-.72.45-1.46.84-2.18,1.27-.49.3-1.22.45-1.41,1.06a4.52,4.52,0,0,0-1.87.43,1.11,1.11,0,0,0-.34.18,2.65,2.65,0,0,1-.29.29,1.3,1.3,0,0,1-.56.11c-.19,0-.41.13-.42.32.63-.07,1.22.42,1.86.36.07,0,.16,0,.22,0s.05.08.08.11.32.09.49,0a2.16,2.16,0,0,1,.1-.84c.14,0,1.77.64,1.77.67a6.29,6.29,0,0,1,0-1c.06-.43.23-.23.61-.38l.25.32a.43.43,0,0,0,.1.09.53.53,0,0,0,.18,0,.64.64,0,0,1,.42.13c.07,0,.15.11.22.07a.22.22,0,0,0,0-.08c.21-.44,0-.77,0-1.21,0-.13,0-.36.22-.38s.17.25.34.32.23-.06.35,0,.16.18.24.28a.61.61,0,0,0,.39.19,10.09,10.09,0,0,0,0-2.06c.23.13.5.07.75.15,0,.13,0,.28,0,.39a.27.27,0,0,0,.12.09,2.21,2.21,0,0,1,.57.53,3.42,3.42,0,0,0,.2-1.52,13.47,13.47,0,0,0-.41-1.57C59.82,40.9,59.43,41.24,59,41.56Z"/><path class="cls-1" d="M51.14,37a11.57,11.57,0,0,1,3.2.51c.55.91,1.56,3-.51,3.2-.27-.64-.88-.12-1.3-1,.25-.42.11-.26.08-.92l-.23,0c-.35.25-.67.29-1,.61s-.58,1.83-1.35,2.2a4,4,0,0,1-1.42.34l0-.23-.23,0c.64-2.16,2.17-2.87,2.72-4.63Z"/><path class="cls-4" d="M56.21,40.24c.26-.16.07-.07.48-.19l0,.23-.46,0Z"/><path class="cls-4" d="M57.67,28.79c3.57-2.13,6.57-1.89,9.67.61l.16-1.84c-.16-.25-.07-.07-.19-.48-2.33-.88-2.55-1.83-5.85-1.9,0,.05-3.71,2.69-3.71,2.69l-.08.92Z"/><path class="cls-4" d="M58.15,33.93c2.07,1.94,2.85,2.3,6.05,2.37.86-.9,2.28-1.17,2.76-2.53.48-.63.41-1.86.49-3l-.23,0c-1.37,2.47-5.74,4.76-9,2.46l-.06.69Z"/><path class="cls-4" d="M59,29.83l-.12,1.38a2.8,2.8,0,0,1,.84,1c.42-.11.23,0,.48-.19l.71-.17a21.2,21.2,0,0,1,.2-2.3l-.46,0c-.48.37-.76.37-1.65.32Z"/><path class="cls-4" d="M62.46,29.67l.69.06,0,.23a1.82,1.82,0,0,0,.3,1.88l0-.23a2.75,2.75,0,0,0,1.07-1.76,2.6,2.6,0,0,0-1.56-.6c-.22-.2-.06-.09-.44-.27l-.06.69Z"/><path class="cls-4" d="M67.07,91.19c2,.3,3.59.36,3.84-1.52.63-.89.47-7.2.13-9.48q.12-4.16.26-8.31c-.7-4.52-1.17-9.74-1.79-14a10.08,10.08,0,0,0-2.64-1.62,10.48,10.48,0,0,1-1.82,4.94,3.35,3.35,0,0,1,1.57.6c0,9.59,1.17,19.76.45,29.44Z"/><path class="cls-1" d="M69.35,54.35c2.34.2,7.62-1.19,7.92-3.25.64-1.13-.14-8.22-.48-10.46a17,17,0,0,1,.12-4.16,19.16,19.16,0,0,0-.66-3.07c-.52-3.15-.2-5.86-.62-8.85l.28-3.21c-.2-1.27-.71-2.72-.81-4-1.38-.16-4.35.09-4.94,1a84.76,84.76,0,0,0-.32,9c.3,1,1.25,1.89,1.35,3.13.17,2.24-2.3,4.1-2.1,8.15a143.93,143.93,0,0,1,.26,15.77Z"/><path class="cls-4" d="M65.1,98l1.15.1a12.49,12.49,0,0,1,1-3.85,2.36,2.36,0,0,0,1.46-.8L68,93.36c-1.43,1-2.76.19-3,2.75A3.71,3.71,0,0,1,65.1,98Z"/><path class="cls-4" d="M69,96.22l.92.08a2.29,2.29,0,0,1-.58,1.34l.69.06a2.58,2.58,0,0,1,.73-.4l0-.46c-.86-.47-.57-1.07-1.49-1.52l0,.23-.23,0-.06.69Z"/><path d="M23.27,114.63A2.42,2.42,0,0,1,22,113.7l-.44,0c-.84,1.41-2.26,2.42-3,4-.51,1.07-.38,2.12-1.22,2.77v.22l-.43,0c-.25-1.33-.79-5.17-1.46-6.16-.22-.49-.29-.34-.62-.68-2.05-.06-1.66,1.17-1.86,2.52.45.11.42.07.65.25s-.07.75.14,1.53a9.67,9.67,0,0,0,3,4.93c.33.76-.57,3.15-.21,4.56.11.45.46.79.59,1.33a2.49,2.49,0,0,0,1.54-.36c.1-2.19-.29-5.92.59-8S22.27,117,23.27,114.63Z"/><path d="M25.55,117.13c-2.36,2.13-4.5,3-4.92,7.38a6,6,0,0,1,.75,2.65h.21v.22a12.78,12.78,0,0,0,7.93-2c.76-.6,1.08-1.73,1.85-2.31C31.29,119.24,31,117.21,25.55,117.13Zm-1.92,8.4a19.47,19.47,0,0,1,1.59-6c1-.17,2.33-.27,3,.36.52.29.31.4.83.69C29,124,26.81,125.7,23.63,125.53Z"/><path d="M35.72,118.26c2,.15,3.58,1,4.78,0,.19-.22.09,0,.24-.43a5,5,0,0,1-.81-1.12c-1.87-.28-3.53-1.06-5,.2-2.15.56-3.43,4.69-2.26,6.42.1,1.88,1.37,2.21,2.46,3.16a3.64,3.64,0,0,0,2.42-.54c-.05-.51-.09-1-.14-1.53-.56.3-.26-.06-.47.63-3.22,0-2.31-5-1.69-5.73C35.42,118.62,35.48,118.83,35.72,118.26Z"/><path d="M42.21,119a5.26,5.26,0,0,1-2,1.21c-.35,1.91-1,1.72-.86,4.31,1.09,1.23,2.78,3.2,4.69,2a2.44,2.44,0,0,0,2-1c2.14-1.95.87-3.49-.4-5.46C44.24,119.69,43.15,119.79,42.21,119Zm2.57,5.56a2.36,2.36,0,0,0-.67.41,7.41,7.41,0,0,1-2.16-.32c-.27-1.34-.35-1.57.34-2.6a6.76,6.76,0,0,1,2.17.1c0,.9-.09.81.6,1.12C44.83,124.15,44.75,123.85,44.78,124.56Z"/><path d="M60.88,117.09l0-.44c-.39-.29-.67-.91-1-1.13-1.2-.74-7.54-1.08-8.69-.41a5.19,5.19,0,0,0-2.42.54c.07.45,0,.42.19.66a5.32,5.32,0,0,0,3.65,1c-.24,4-1.8,6.94-.68,9.76.55.23,1.15.3,1.49.72l.67-.4c.08-1.34.39-8,1.08-9.09,0-.43.05-.87.07-1.3,2.17-.36,3.28-.41,4.75.66A3.75,3.75,0,0,1,60.88,117.09Z"/><path d="M63,123.5c-.46.5-1.14.6-1.58,1.23a3.41,3.41,0,0,1-.86-.26c.09-1.35.43-4.11,0-4.79l-.19-.66c-1.12,0-1.14.29-2.19.33-.56,3.45-.42,4.65,1.39,7.47l2.38.33c.71-.68,1.84-1.13,2.48-1.85s.77-1.7,1.42-2.32a7.72,7.72,0,0,0-.28-3.5C62.67,120,64.36,122,63,123.5Z"/><path d="M76.24,115.48c-.57.14-.52.24-1.1.38-.18,2.33-.85,3.83-1,6.26-2.13-.86-2.16-3.89-3.21-5.8l-.2-.45-1.31.16a2.34,2.34,0,0,1-.92,1c0,2.44-1.15,4.93-1.65,7.32a12.25,12.25,0,0,0,.29,3.06l1.73.3c.15-2.88,1-3.68,1.38-6.24h.22a9.55,9.55,0,0,0,4.16,4.11c.28-.3.62-.53.91-.83,1-1.27,1.72-7.16,1.72-8.84C76.5,115.89,76.53,116,76.24,115.48Z"/><path d="M82.75,118.54a3.41,3.41,0,0,1-.86-.26,14.67,14.67,0,0,0,.1-2,18.91,18.91,0,0,0,5,0c-.22-.83-.27-.4-.15-1.32-1.14-.47-4.64-1.2-6.49-.76-.71.17-.88.64-1.78.78.25.19.36.2.86.26-.17.18-.28.23-.46.42a3,3,0,0,0,.86.26c-.2,3.81-.65,7.59-.33,10.86.58.09.86,0,1.29.28H81c.09-.43.19-.86.28-1.29,1.4.21,2.4,1.16,3.68.41.63-.22.41,0,.69-.62h.21v-.22h-.21c-.15-.77-.28-.6-.6-1.12-1.56.08-1.67-.41-3.23-.6,0-1.08.11-2.17.16-3.25a31.58,31.58,0,0,0,4.36-.22,5.54,5.54,0,0,1,.29-1.29C85.67,118.47,83.42,118.17,82.75,118.54Z"/><path class="cls-1" d="M46.15,38.77a.39.39,0,0,1,.09-.17c.18-.16.61.25.62.24a.73.73,0,0,0-.21.5,2.9,2.9,0,0,1-.51,0A5.26,5.26,0,0,1,46.15,38.77Z"/><path class="cls-1" d="M44.4,38.94a.43.43,0,0,1,.13-.25c.25-.22.86.37.88.35a1.06,1.06,0,0,0-.29.72,4.54,4.54,0,0,1-.74,0A7.29,7.29,0,0,1,44.4,38.94Z"/><path class="cls-1" d="M41.35,39.14a.26.26,0,0,1,.09-.17c.17-.15.6.26.61.25a.7.7,0,0,0-.2.5,4.43,4.43,0,0,1-.52,0A3.66,3.66,0,0,1,41.35,39.14Z"/><path class="cls-1" d="M42.68,40.56a.31.31,0,0,1,.09-.17c.18-.15.6.25.61.24a.79.79,0,0,0-.2.5,3,3,0,0,1-.52,0C42.68,41,42.64,40.74,42.68,40.56Z"/><path class="cls-1" d="M44.15,40.91a.39.39,0,0,1,.09-.17c.18-.15.61.26.62.25a.71.71,0,0,0-.21.5,4.35,4.35,0,0,1-.51,0A5.41,5.41,0,0,1,44.15,40.91Z"/><path class="cls-1" d="M51.64,34.51a.33.33,0,0,1,.17-.1c.23,0,.37.54.38.54a.74.74,0,0,0-.44.31,3.13,3.13,0,0,1-.42-.29A3.38,3.38,0,0,1,51.64,34.51Z"/><path class="cls-1" d="M53.43,33.8a.33.33,0,0,1,.17-.1c.23,0,.37.54.38.54a.74.74,0,0,0-.44.31,3.13,3.13,0,0,1-.42-.29A3.38,3.38,0,0,1,53.43,33.8Z"/><path class="cls-1" d="M54.52,35.59a.24.24,0,0,1,.17-.09c.22,0,.36.54.38.53a.78.78,0,0,0-.44.31,3,3,0,0,1-.43-.29A4.88,4.88,0,0,1,54.52,35.59Z"/><path class="cls-1" d="M63.6,39.34a.26.26,0,0,1,.17-.09c.23,0,.37.54.38.53a.78.78,0,0,0-.44.31,2.42,2.42,0,0,1-.42-.29A3.38,3.38,0,0,1,63.6,39.34Z"/><path class="cls-1" d="M64.77,37.93a.25.25,0,0,1,.17-.1c.22,0,.36.54.38.54a.7.7,0,0,0-.44.31,4.15,4.15,0,0,1-.43-.3C64.54,38.28,64.64,38.06,64.77,37.93Z"/><path class="cls-1" d="M66,39.63a.35.35,0,0,1,.17-.09c.23,0,.37.54.38.53a.85.85,0,0,0-.44.31,2.86,2.86,0,0,1-.42-.29A4.65,4.65,0,0,1,66,39.63Z"/><path class="cls-1" d="M64.29,41a.36.36,0,0,1,.22-.13c.3,0,.48.7.49.7a1,1,0,0,0-.57.4,3.58,3.58,0,0,1-.55-.38A4.54,4.54,0,0,1,64.29,41Z"/><path class="cls-1" d="M44.87,42.36a.44.44,0,0,1,.22-.12c.3-.05.48.7.5.7a.92.92,0,0,0-.58.4,4.14,4.14,0,0,1-.55-.38A5.38,5.38,0,0,1,44.87,42.36Z"/><path class="cls-1" d="M41.63,42.08a.35.35,0,0,1,.15-.2c.25-.16.72.45.74.44a1,1,0,0,0-.37.6,3.56,3.56,0,0,1-.65-.13A4.51,4.51,0,0,1,41.63,42.08Z"/><path class="cls-1" d="M57.06,36.93a.28.28,0,0,1,.17-.1c.23,0,.36.54.38.54a.7.7,0,0,0-.44.31,4.15,4.15,0,0,1-.43-.3C56.83,37.28,56.93,37.06,57.06,36.93Z"/><path class="cls-1" d="M47.05,41.39a.31.31,0,0,1,.09-.17c.17-.15.6.26.61.25a.7.7,0,0,0-.2.49A3,3,0,0,1,47,42C47.05,41.81,47,41.57,47.05,41.39Z"/><path class="cls-1" d="M46,40.56a.26.26,0,0,1,.09-.17c.17-.15.6.25.61.24a.8.8,0,0,0-.21.5,2.9,2.9,0,0,1-.51,0A3.57,3.57,0,0,1,46,40.56Z"/><path class="cls-1" d="M47.48,39.23a.28.28,0,0,1,.09-.18c.17-.15.6.26.61.25a.7.7,0,0,0-.2.5,3,3,0,0,1-.52,0A3.53,3.53,0,0,1,47.48,39.23Z"/><path class="cls-1" d="M50.09,36.14a.31.31,0,0,1,.09-.17c.18-.15.6.26.61.25a.74.74,0,0,0-.2.49,2.9,2.9,0,0,1-.51,0A3.57,3.57,0,0,1,50.09,36.14Z"/><path class="cls-1" d="M52.22,32.81a.26.26,0,0,1,.09-.17c.17-.15.6.25.61.24a.8.8,0,0,0-.21.5,2.9,2.9,0,0,1-.51,0A3.57,3.57,0,0,1,52.22,32.81Z"/><path class="cls-1" d="M52.8,35.52a.31.31,0,0,1,.09-.17c.17-.16.6.25.61.24a.72.72,0,0,0-.2.5,3,3,0,0,1-.52,0C52.8,35.94,52.76,35.7,52.8,35.52Z"/><path class="cls-1" d="M48.63,37.77a.39.39,0,0,1,.09-.17c.18-.16.6.25.61.24a.77.77,0,0,0-.2.5,2.9,2.9,0,0,1-.51,0A3.46,3.46,0,0,1,48.63,37.77Z"/><path class="cls-1" d="M42.81,43.06a.31.31,0,0,1,.09-.17c.18-.16.6.25.61.24a.79.79,0,0,0-.2.5,2.9,2.9,0,0,1-.51,0A3.46,3.46,0,0,1,42.81,43.06Z"/></g></g></svg>