<?xml version="1.0" encoding="UTF-8" standalone="no"?>
<svg
   xmlns:dc="http://purl.org/dc/elements/1.1/"
   xmlns:cc="http://creativecommons.org/ns#"
   xmlns:rdf="http://www.w3.org/1999/02/22-rdf-syntax-ns#"
   xmlns:svg="http://www.w3.org/2000/svg"
   xmlns="http://www.w3.org/2000/svg"
   xmlns:sodipodi="http://sodipodi.sourceforge.net/DTD/sodipodi-0.dtd"
   xmlns:inkscape="http://www.inkscape.org/namespaces/inkscape"
   viewBox="0 0 107.42399 107.42399"
   height="107.424"
   width="107.424"
   xml:space="preserve"
   id="svg2"
   version="1.1"
   sodipodi:docname="brco-1.svg"
   inkscape:version="0.92.2 5c3e80d, 2017-08-06"><sodipodi:namedview
     pagecolor="#ffffff"
     bordercolor="#666666"
     borderopacity="1"
     objecttolerance="10"
     gridtolerance="10"
     guidetolerance="10"
     inkscape:pageopacity="0"
     inkscape:pageshadow="2"
     inkscape:window-width="1280"
     inkscape:window-height="755"
     id="namedview992"
     showgrid="false"
     inkscape:zoom="2"
     inkscape:cx="62.049344"
     inkscape:cy="80.791864"
     inkscape:window-x="0"
     inkscape:window-y="1"
     inkscape:window-maximized="1"
     inkscape:current-layer="g10"
     fit-margin-top="0"
     fit-margin-left="0"
     fit-margin-right="0"
     fit-margin-bottom="0" /><metadata
     id="metadata8"><rdf:RDF><cc:Work
         rdf:about=""><dc:format>image/svg+xml</dc:format><dc:type
           rdf:resource="http://purl.org/dc/dcmitype/StillImage" /><dc:title></dc:title></cc:Work></rdf:RDF></metadata><defs
     id="defs6"><clipPath
       id="clipPath1026"
       clipPathUnits="userSpaceOnUse"><path
         id="path1024"
         d="m 38.42,399.016 h 80.568 v 80.568 H 38.42 Z"
         inkscape:connector-curvature="0" /></clipPath></defs><g
     transform="matrix(1.3333333,0,0,-1.3333333,-51.226665,639.44532)"
     id="g10"><path
       id="path1018"
       style="fill:#ffffff;fill-opacity:1;fill-rule:nonzero;stroke:none"
       d="m 38.42,479.584 h 80.568 V 399.016 H 38.42 Z"
       inkscape:connector-curvature="0" /><g
       id="g1020"><g
         clip-path="url(#clipPath1026)"
         id="g1022"><g
           transform="translate(87.4604,462.7204)"
           id="g1028"><path
             id="path1030"
             style="fill:#332d2b;fill-opacity:1;fill-rule:nonzero;stroke:none"
             d="m 0,0 c 0,-2.867 0.341,-4.982 1.024,-6.349 0.955,-1.979 2.729,-2.969 5.325,-2.969 2.593,0 4.334,1.059 5.222,3.174 0.614,1.434 0.921,3.653 0.921,6.656 V 7.168 H 0 Z m -28.876,-2.048 c 0,-3.481 0.443,-6.006 1.331,-7.577 1.229,-2.184 3.413,-3.277 6.554,-3.277 3.207,0 5.427,1.162 6.656,3.482 0.955,1.775 1.433,4.438 1.433,7.986 v 8.602 h -15.974 z m 54.373,-0.41 c 0,-6.484 -1.06,-11.535 -3.175,-15.154 -2.662,-4.573 -6.998,-6.861 -13.004,-6.861 -3.21,0 -5.974,0.786 -8.294,2.355 -2.322,1.572 -4.233,3.858 -5.734,6.861 -1.298,-4.368 -3.466,-7.816 -6.502,-10.342 -3.039,-2.525 -6.81,-3.789 -11.315,-3.789 -6.759,0 -11.913,2.322 -15.462,6.963 -3.21,4.234 -4.813,9.83 -4.813,16.793 V 22.63 h 68.299 z"
             inkscape:connector-curvature="0" /></g></g></g></g></svg>