<?xml version="1.0" encoding="UTF-8" standalone="no"?>
<!-- Created with Inkscape (http://www.inkscape.org/) -->

<svg
   xmlns:dc="http://purl.org/dc/elements/1.1/"
   xmlns:cc="http://creativecommons.org/ns#"
   xmlns:rdf="http://www.w3.org/1999/02/22-rdf-syntax-ns#"
   xmlns:svg="http://www.w3.org/2000/svg"
   xmlns="http://www.w3.org/2000/svg"
   xmlns:sodipodi="http://sodipodi.sourceforge.net/DTD/sodipodi-0.dtd"
   xmlns:inkscape="http://www.inkscape.org/namespaces/inkscape"
   width="28.4226mm"
   height="28.4226mm"
   viewBox="0 0 28.4226 28.4226"
   version="1.1"
   id="svg7914"
   inkscape:version="0.92.2 5c3e80d, 2017-08-06"
   sodipodi:docname="brco-15.svg">
  <defs
     id="defs7908">
    <clipPath
       id="clipPath1386"
       clipPathUnits="userSpaceOnUse">
      <path
         inkscape:connector-curvature="0"
         id="path1384"
         d="m 208.23,143.78 h 80.568 v 80.568 H 208.23 Z" />
    </clipPath>
  </defs>
  <sodipodi:namedview
     id="base"
     pagecolor="#ffffff"
     bordercolor="#666666"
     borderopacity="1.0"
     inkscape:pageopacity="0.0"
     inkscape:pageshadow="2"
     inkscape:zoom="0.35"
     inkscape:cx="22.283429"
     inkscape:cy="-440.57372"
     inkscape:document-units="mm"
     inkscape:current-layer="layer1"
     showgrid="false"
     fit-margin-top="0"
     fit-margin-left="0"
     fit-margin-right="0"
     fit-margin-bottom="0"
     inkscape:window-width="1280"
     inkscape:window-height="755"
     inkscape:window-x="0"
     inkscape:window-y="1"
     inkscape:window-maximized="1" />
  <metadata
     id="metadata7911">
    <rdf:RDF>
      <cc:Work
         rdf:about="">
        <dc:format>image/svg+xml</dc:format>
        <dc:type
           rdf:resource="http://purl.org/dc/dcmitype/StillImage" />
        <dc:title></dc:title>
      </cc:Work>
    </rdf:RDF>
  </metadata>
  <g
     inkscape:label="レイヤー 1"
     inkscape:groupmode="layer"
     id="layer1"
     transform="translate(69.395824,-3.8422714)">
    <path
       inkscape:connector-curvature="0"
       id="path1378"
       style="fill:#ffffff;fill-opacity:1;fill-rule:nonzero;stroke:none;stroke-width:0.35277775"
       d="m -69.395824,3.8422714 h 28.4226 V 32.264871 h -28.4226 z" />
    <g
       transform="matrix(0.35277777,0,0,-0.35277777,-142.85474,82.98761)"
       id="g1380">
      <g
         clip-path="url(#clipPath1386)"
         id="g1382">
        <g
           transform="translate(275.1025,178.9021)"
           id="g1388">
          <path
             inkscape:connector-curvature="0"
             id="path1390"
             style="fill:#332d2b;fill-opacity:1;fill-rule:nonzero;stroke:none"
             d="m 0,0 c 1.091,2.39 1.928,4.592 2.509,6.604 0.579,2.014 0.87,4.182 0.87,6.502 0,6.349 -1.997,11.52 -5.99,15.513 -3.993,3.994 -9.131,5.99 -15.41,5.99 -6.282,0 -11.453,-1.927 -15.514,-5.785 -4.062,-3.855 -6.092,-8.89 -6.092,-15.103 0,-4.846 1.16,-9.42 3.481,-13.721 h -14.847 c -1.706,4.915 -2.56,9.728 -2.56,14.438 0,10.376 3.361,18.994 10.086,25.855 6.723,6.86 15.273,10.29 25.65,10.29 10.035,0 18.38,-3.43 25.036,-10.29 6.656,-6.861 9.984,-15.309 9.984,-25.344 0,-2.252 -0.189,-4.607 -0.563,-7.065 C 16.264,5.427 15.734,2.8 15.052,0 Z" />
        </g>
      </g>
    </g>
  </g>
</svg>
