<?xml version="1.0" encoding="UTF-8" standalone="no"?>
<!-- Created with Inkscape (http://www.inkscape.org/) -->

<svg
   xmlns:dc="http://purl.org/dc/elements/1.1/"
   xmlns:cc="http://creativecommons.org/ns#"
   xmlns:rdf="http://www.w3.org/1999/02/22-rdf-syntax-ns#"
   xmlns:svg="http://www.w3.org/2000/svg"
   xmlns="http://www.w3.org/2000/svg"
   xmlns:sodipodi="http://sodipodi.sourceforge.net/DTD/sodipodi-0.dtd"
   xmlns:inkscape="http://www.inkscape.org/namespaces/inkscape"
   width="28.422602mm"
   height="28.4226mm"
   viewBox="0 0 28.422602 28.4226"
   version="1.1"
   id="svg11904"
   inkscape:version="0.92.2 5c3e80d, 2017-08-06"
   sodipodi:docname="br-4.svg">
  <defs
     id="defs11898">
    <clipPath
       id="clipPath1258"
       clipPathUnits="userSpaceOnUse">
      <path
         inkscape:connector-curvature="0"
         id="path1256"
         d="m 294.016,399.016 h 80.568 v 80.568 h -80.568 z" />
    </clipPath>
  </defs>
  <sodipodi:namedview
     id="base"
     pagecolor="#ffffff"
     bordercolor="#666666"
     borderopacity="1.0"
     inkscape:pageopacity="0.0"
     inkscape:pageshadow="2"
     inkscape:zoom="0.70710678"
     inkscape:cx="215.76384"
     inkscape:cy="35.438394"
     inkscape:document-units="mm"
     inkscape:current-layer="layer1"
     showgrid="false"
     fit-margin-top="0"
     fit-margin-left="0"
     fit-margin-right="0"
     fit-margin-bottom="0"
     inkscape:window-width="1280"
     inkscape:window-height="755"
     inkscape:window-x="0"
     inkscape:window-y="1"
     inkscape:window-maximized="1" />
  <metadata
     id="metadata11901">
    <rdf:RDF>
      <cc:Work
         rdf:about="">
        <dc:format>image/svg+xml</dc:format>
        <dc:type
           rdf:resource="http://purl.org/dc/dcmitype/StillImage" />
        <dc:title></dc:title>
      </cc:Work>
    </rdf:RDF>
  </metadata>
  <g
     inkscape:label="レイヤー 1"
     inkscape:groupmode="layer"
     id="layer1"
     transform="translate(-63.991763,-58.656474)">
    <path
       inkscape:connector-curvature="0"
       id="path1250"
       style="fill:#ffffff;fill-opacity:1;fill-rule:nonzero;stroke:none;stroke-width:0.35277775"
       d="m 92.414364,87.079074 h -28.4226 v -28.4226 h 28.4226 z" />
    <g
       transform="matrix(0.35277777,0,0,-0.35277777,-39.730546,227.84304)"
       id="g1252">
      <g
         clip-path="url(#clipPath1258)"
         id="g1254">
        <g
           transform="translate(319.0532,432.365)"
           id="g1260">
          <path
             inkscape:connector-curvature="0"
             id="path1262"
             style="fill:#332d2b;fill-opacity:1;fill-rule:nonzero;stroke:none"
             d="M 0,0 C 0,2.867 -0.477,5.12 -1.434,6.758 -2.662,8.806 -4.608,9.83 -7.27,9.83 -10,9.83 -11.86,8.976 -12.851,7.27 -13.839,5.563 -14.335,3.241 -14.335,0.307 V -6.758 H 0 Z M -27.34,-22.323 V 1.741 c 0,7.235 1.229,12.866 3.687,16.895 3.071,4.982 7.986,7.475 14.744,7.475 4.097,0 7.544,-1.093 10.343,-3.277 2.799,-2.186 4.812,-5.257 6.041,-9.215 1.297,3.071 4.165,5.939 8.601,8.601 1.093,0.681 5.427,2.798 13.005,6.348 5.462,2.594 9.42,5.018 11.877,7.27 V 16.998 C 34.543,14.402 28.092,11.843 21.605,9.318 15.872,6.246 13.004,0.886 13.004,-6.758 h 27.954 v -15.565 z" />
        </g>
      </g>
    </g>
  </g>
</svg>
