<svg xmlns="http://www.w3.org/2000/svg" viewBox="0 0 540.18 74.09"><title>アセット 13</title><g id="レイヤー_2" data-name="レイヤー 2"><g id="レイヤー_1-2" data-name="レイヤー 1"><path d="M529.48,38.23h-.36c-.1-1,.09-7.82.81-8.94,1.94-1.14,5,1.19,7.17-.64.82-.37.78-.61,1.44-1.06.16-1.68.45-2.58,0-3.22a4.83,4.83,0,0,0-.69-2.88,15.24,15.24,0,0,0-7.52.64v-.36c-1.06-1.1.21-9.95-.6-11.46.47-1.66,7.7-1.75,10.41-2-.47-1.18-1.3-4.32-.3-5.73A7.78,7.78,0,0,0,539.55,0l-3.22,0c-1.19.77-16.72,2-16.85,2a4.73,4.73,0,0,1-1.09,2.14c.47,1.17,1,1,2.13,1.45-.14,7,0,11.54-.92,19.32-.35,3,.28,9.45-.12,11.45-.67,3.33.55,5.41-.8,7.51a3.77,3.77,0,0,0,.7,2.16c2.13-.21,2-1.48,3.6-2.11,2.75.82,5.9-.1,8.24-.63,3.25-.74,4.59,1.46,6.8.07h.71c.39-2.38,1.6-6-.28-7.52C538.28,35.72,530.3,37.51,529.48,38.23Z"/><path d="M459.57,14.58c.07-1.68,1.7-8,3.68-9.62a5.47,5.47,0,0,0-.34-1.8c-5.23-.47-13.23,2.23-18.29,3.39-1.32.31-3.88-.13-5.37.3a8.71,8.71,0,0,1-.68-3.94c-2.47.06-2.12.87-3.59,1.75a73.45,73.45,0,0,1-2.38,21.45q-1.22,14.13-2.44,28.25c3.09-.15,3.13-1.73,5-2.81.72-.4,1.65.1,2.51-.33.44-.22.38-1.13.73-1.42.66-.56,1.86-.53,2.51-1,.31-.42,1.08-12.91.87-14.31,2.1-.82,6-1.62,7.19-2.43a4.75,4.75,0,0,0,2.87-.68c-.05-1.92-.08-3.59-.3-5.73l-1.07-.37c-1.35-.93-4.46,1.22-7.18,1.35.08-3.65.79-5.36.82-9.65C449.53,16.83,454.56,15.2,459.57,14.58Z"/><path d="M471.83,6.48c-2-.34-.77-.39-1.42-1.45-.44-.35-.44.08-1.07-.37-1.51.14-1.69.27-2.16,1.41-.17.52.79,3.38.3,5.38C465.87,18,465.74,26,464,32.17c-.85,3.11.06,7-1.53,9.29-.39.27-.34.22-1.08.35l.33,2.86c1.46.1,6.91-1.21,8.61-2.41h.72c0-8.91,1.61-13.73,3.44-21.09.86-3.43-.06-8.07,1.9-10.36C476.16,7.45,473.42,7.44,471.83,6.48Z"/><path d="M500.48,5c-2.11,1.29-5.41,1-7.54,2.07-7.47,3.87-9.85,8.58-12,16.7-1.26,4.78,0,14.12,2.33,17.2a43.48,43.48,0,0,0,5.32,4c1.73.92,3.62.57,5.72,1.13,2.64.71,8.75,1.19,10.38.11a4.73,4.73,0,0,0,2.87-.68c0-2.18-.14-5.08.78-6.44.07-1.59.13-2.51-.68-3.23-1-.61-5.25,1.12-7.88.64a27.29,27.29,0,0,1-9.27-4c-.7-8.58,1-13,7.34-16.75,2-1.19,5.91-2.34,7.52-.28,1.18.05,2.56.12,3.22-.32,1-1.66-.52-2.34.4-3.93l1.08-.35c.54-.71,0-1.42,0-1.79.72-.69.95.05,1.44-1.06.3-.36.14-.08.37-.71-.93-.7-1.18-1.39-2.49-1.82C509.42,5.44,502.17,5.32,500.48,5Z"/><path d="M420.85,20.62c3.37.32,6.21.37,8.6-1,0-1.44.48-8.73,1.89-10a3.69,3.69,0,0,0-.69-2.15c-2.17.06-6.12.8-7.52.28-.88-.33-2.09-1.47-3.2-1.83-1.75-.56-3.63-.52-5-1.12a5.09,5.09,0,0,1-1.81,1.41c-.41,2.22-1.54,6-2.23,8.57-1.57,5.82,0,9-1.23,14.3l-.06,5.73c-1.36,5.3-.23,12.39-2.69,17.15a2.4,2.4,0,0,1,.7,1.44c4.11-.79,6.82-2,10.77-2.39a78.53,78.53,0,0,0-.22-13.61,2.13,2.13,0,0,0,.73-.7c1.8.16,3.05.8,4.65-.31,1.79-.1,1.53-.37,2.52-1,.06-1.47.27-3.76-.31-4.66,0-3-.84-2.19-2.11-3.6-2.15.12-2.46.78-4.3,1,.15-2,.51-5.35,1.5-6.79Z"/><path d="M343.49,13.2c1.21-.52,2.13-4.28,3.29-5.46-.4-2.14-2.07-1.93-3.19-3.27-4.76.12-11.06,2.13-12.93-.46-4.57,0-2.47,3.5-5.24,5.44.18,1.8.85,1.81,1.59,2.93h1a5,5,0,0,0,.31,1.62c.89.17.93.4,1.61,0,1.15.16.82-.16,1.29.66.39.42-.06,5.37-.08,7.76-.05,4.26.25,10.48-.81,14.86-.65,2.73.84,5.51-.4,7.44.13,3.94-.88,3.4-3.28,4.16-.06,2.53-.05,3.55-.06,6.15.52.49,1.12,1.1,1.6,1.63a60.23,60.23,0,0,0,11.35-3.11c1.09-.37,2-1.59,3.24-.94,1.67.06,2,.08,2.6-.94a20.23,20.23,0,0,0,1-6.13,29.93,29.93,0,0,1-5.17.59c-.67-6.38-1-14,.54-20.69.93-4.14-1.05-9.09.77-12C343.09,13.08,343.07,13.5,343.49,13.2Z"/><path d="M399.73,20c-.15-2.36-4.15-4.65-2.42-7.55-4.24-1.81-3.58-5-10.33-5.47-2.24,1.43-4.78,1.39-6.48,3.51a34.15,34.15,0,0,0-6.76,30c.8,3.29.57,5.77,2.06,8.25,2.87,4.75,7.26,3,8.9,5.1,4.82,0,5.57-2.86,7.58-5.64,5.34-7.41,7-11.82,7.75-22.11.09-1.29-.52-1.78-.69-2.52C399,22.38,399.78,20.69,399.73,20Zm-17.18.17c.94-1.48.18-2.08,1.82-2.84.53-.22.16-.44.71,0,7.43-.07,4.54,3.5,5.65,8.29.74,3.23.4,13.37-1.61,16.81-1,1.65-2.82,2.77-4,4.25h-.71c-1.37-1.78-2.83-3.2-3.52-5.76h-1.08C379.19,31.84,378.23,27.07,382.55,20.21Z"/><path d="M234.57,8.82v-1h-.32V7.52H233c-.2,6.29-1.11,15.81-3.14,21.63-1.67.32-7.13.42-8.42,1.2h-1.62v-.65c2.42,0,6.3-.1,7.45-.89,1-.57.88-1.21,2.28-1.59v-1c-.51,0-8.14,1.35-8.43,1.52-.66-.13-.62-.08-1-.33-.43-1.05.67-4.39,1-5.81,1-3.8-.54-6.62,1.07-9.69.19-.35,1.11-.36,1.3-.63.08-.11-.86-1.71-1-2.27-1.79.17-2,.74-3.57,1.25-3.32,1.12-6.92.39-9.39,1.2.22.32.43.65.64,1,1.91.08,2.19.06,4.2.05-.09,2.66-.84,4.15-1,6.45a1.81,1.81,0,0,1-.64-.65c-.33-.61,1-4.19,1-4.19-.17-1.16-.16-.34-.64-1-2.62,1.47-1.83,7.32-2.69,10.64-2.11,8.07-1.07,15.81-2.83,22.61-.59,2.28.32,4.77-.71,6.46.13,1.15-.18.81.63,1.3.33.26.08.12.64.33a9.37,9.37,0,0,0,1-3.23c.56-.2.31-.06.65-.31.87.57.44,1.73.94,2.59,1.14.58,1.75-1,1.65-2.89.57.51.39.65,1.28,1,.24-.28.41-.36.65-.64.73-1,.58-1.68.68-2.9h.32v-.33c1.34.24,1.47.64,2.57,1a3.77,3.77,0,0,1,1-.64c-.17-5.33.16-11.3.49-16.16a44.15,44.15,0,0,1,10-.54c-.47,5.94-4.61,14.83-1.51,20.68,1.59-.3.67-.63,1.3-1,2.15-1.12,3,1.15,4.21.05,1.3.21,1.86.52,2.24,1.64a6,6,0,0,0,1.95-.31c-.29-11,1.59-21.25,4.21-31.64,1-3.88.33-9.47,2.71-11.94a5.08,5.08,0,0,0-.3-1.62C240.46,7.35,238.28,8.64,234.57,8.82Z"/><path d="M269.76,14c-1.18-.87-2.86-2.16-2.88-3.26-2.15-1-2.59-2.31-5.79-2.33-2.16,2.16-5.7,3.62-7.5,6.07-4,5.41-6.8,24.17-2.6,31.33,2.11,3.59,6.45,3.48,9,5.92,1-.14,1.09-.15,1.62-.63,2.9-1.07,3.57-6.37,4.63-9.65,1.57-4.9,1.69-9.4,3.06-14.84C270.62,21.45,268.21,18.63,269.76,14Zm-8,23.52c-.19,3.1-2.61,3.55-4.26,5.13-.66-.14-.62-.09-1-.33-2.35-3,0-13.51.82-16.81.58-2.44,0-5.42.72-6.46,0-1.76.23-1.73,1-2.58,2.4.17,3.46,1,5.49,1.36v.32h.33C264.37,22.28,263.37,35.16,261.75,37.56Z"/><path d="M292.73,13.31c-2.48-1.46-4.6-.59-7.42-1.69-1.38-.54-1.92-1.54-3.87-1.66-.38.26-.54.25-1.29.31-.34,2.06-1,2.31-1.66,4.19-.54,1.64.15,4-.05,4.84-1.1,4.74-.66,10.47-1.78,14.86-.83,3.26,1.25,9.57-.12,11.64.11,3.79,2.44,1.43,4.19,1a9.4,9.4,0,0,1,3.23,0c.17,0,6.5-3.79,6.51-3.81l-.3-1.62c.72-1.15,3.17-1.64,4.23-2.55A56.63,56.63,0,0,0,299,32.46C301.85,26,297.36,16.05,292.73,13.31Zm1.08,19.41c-.84,2-2.93,5.45-4.59,6.75-.66.51-1.68.43-2.28.94h-1.61c.74-3.42.93-7.9,1.73-11.3l.05-4.53a33,33,0,0,0,.68-3.55,23.43,23.43,0,0,1,.38-5.17,3.42,3.42,0,0,1,1.94.67C294.35,18.54,296.17,27.16,293.81,32.72Z"/><path d="M319.47,22c-.63-1.63-2-3.48-2.53-5.2-.2-1.08-.41-2.16-.61-3.24l-1-.33L314.1,10.3h-1.62c.09,1.53.33,2,1.27,2.6v.64c-1.53-.6-1.13-1.47-3.21-1.65-.37,2.2-1.37,3.93-2,5.8-.78,2.32-.54,4.39-1.36,6.78-1.81,5.28-4,10.95-6,16.43a22.86,22.86,0,0,1,3.19,3.26h1l0-1.29a7.12,7.12,0,0,1,2.57,1.32,4.58,4.58,0,0,0,1.3-.31,49.3,49.3,0,0,1,2.36-9.35c1.88-.66,8.32-.81,5.86-3.82v-.32h.65c.53,1.19,1.05,2.39,1.58,3.58v1.29a3.39,3.39,0,0,1-.64-1c-.56.21-.32.06-.65.32.52.81,1.39,4.34,2.2,5.84,2.51,0,2.37-.89,4.22-1.25-.16-6.43-3.28-11.2-5.33-15.9Zm-5.59,9h-1c.75-3.17,1.82-4.81,2-8.39,1.67,1,1.48,4.22,2.52,5.85C316.77,29.87,315.06,30.08,313.88,31Z"/><path d="M152.91,29.09c-1.34-2.13-1.88-4.82-3.06-6.74a40.51,40.51,0,0,0,6.32-4.86c1-1,1.31-2.42,2.72-3.11-.09-1-.07-1.27-.43-1.8,0-3.49-1.18-3.13-2.63-4.95-8.71-.23-12-2.47-20.12-3.35A6.36,6.36,0,0,1,135.29,2l-2.69-.48c-.27.77-.48,2.9-.93,3.57-.67.28-.2.56-.89,0-.35-.65.06-.79.46-1.79a2.74,2.74,0,0,1-.88-.91c-3.63,1-3.87,12.29-5.11,16.52a252,252,0,0,0-6.11,28.15c-.23,1.44-1.44,4.41-1.41,5.81,1.32,2.16,1.83,2.84,3.08,5,3.55-.42,4.75-1.41,7.18-.82a9.53,9.53,0,0,0,1.81-2.22c1.39,0,2.83,0,3.58.48a6,6,0,0,0,1.8-.43c-.27-1.58-1-1.69-1.32-2.7-1.22-4,2.3-10.51,2.38-13,.11-3.5,1.22-7.28,1.45-10.73.77.29.44.09.9.45,3.62,1.78,3.13,7.47,5.26,10.81.87,1.37,3.87,1.32,4.89,2.74a45.84,45.84,0,0,1,6.14,12.15l2.69.48c2.54-2.52,6.15-3,7.24-7.09.92-3.51-2.07-5.05-3.07-6.75C159.05,36.7,155.56,33.29,152.91,29.09ZM139.09,24c.27-3.06,2.75-13.23,4.19-15.18,2.76-1.55,5.77,2.58,7.12,4.11C150.5,19.82,145,23.48,139.09,24Z"/><path d="M192.11,18.39a19.58,19.58,0,0,0-6.17,2.53c-4.39,3.41-8.51,15.56-5.74,23.54.69,2,2.22,3.23,3.18,4.88,4,.92,9.47.53,12.92,1.43.33-.25.08-.12.65-.31-.25-2.86-.24-7.18,2.35-8.06a4.38,4.38,0,0,0-.62-2.6c-.67.13-.63.08-1,.32-4,.19-4,3.93-6.52,5.43-1.12.65-1.59-.26-2.6.94a3.49,3.49,0,0,1-1.61-.67c.26-7.06,2.66-11.9,3.11-19,2-.48,6.61-1.06,7.75,1a5.08,5.08,0,0,0,1.62-.3c.9-3.3,1-6.17,2-8.71-1.17-.49-3.89-.36-5.81-.71C194.81,18.61,193.36,18.09,192.11,18.39Z"/><path d="M82.81,9.55a4.63,4.63,0,0,0-.87-2.7c-1-1.82-4.49-2.08-7.6-1.42-1.61.33-8.6,1-10.31,1.23l-5.37-.5c-.15.44-.31.89-.46,1.34a69.33,69.33,0,0,1-7.63,1.26c-.41.48,0,0-.45.44.44,2.2.87.94,1.32,1.81q-.46,2.89-.95,5.81A74.84,74.84,0,0,1,49,31.13c-1.11,4.69,0,10-1,14.32-1.17,4.82.16,10.24-1,12.09a6.77,6.77,0,0,0,.86,4c3.71-.3,18.52,2.94,23.29-.2l3.13,0c1.11-.54.24-1.65.92-2.68,1.27-1.9,4.46-2.62,5.87-4.42.37-.46.17-.11.46-.89-.36-.46-.16-.11-.44-.9-2.45-.28-14.33.22-15.22-.16a3.89,3.89,0,0,1-2.24-.47c-1.36-1.78-.27-14.19,1.07-16.11,2.51-1.33,7.7,1.34,10.31-.79.36-.46.16-.11.45-.89a2.79,2.79,0,0,0-2.23-.47c.18-1.27.43-.94,0-1.79a7.72,7.72,0,0,1,2.25-1.32l0-1.35c-4,.16-5.36.83-9.87.8a31.06,31.06,0,0,1,1.91-10.29,21,21,0,0,1,5.82.07V19.3c.91-.56.62-1.67,1.37-2.23,1.8-1.33,3.19-.33,4.5-2.19h.45v-.45a25.06,25.06,0,0,1-3.11-1.83h-.45v-.45A25.51,25.51,0,0,1,82.81,9.55Z"/><path d="M110.59,8.5c-3.88.86-14.22,0-17.91-1.09-1,2.95.43,2.72-.51,6.26-1.63,6.15-2.61,13.57-4.24,20.11-1.18,4.75.92,9.29-1,11.64.31,2.79,2.11,2.58,2.64,4.5.46,1.7-.35,1.72.85,4,7.16-.29,20.18,1.81,23.34-4.68.39-1,.35-.5-.43-1.35a2.66,2.66,0,0,0-2.69,0h-.45c.56-1.17.93-1.39,2.26-1.77V44.79c-3.08-.59-9.52.56-11.67,2.56l-2.24,0c1-4.77.37-12.81,2.86-16.54.92-1.72,10.79-4.49,13-5.68a10.94,10.94,0,0,0-1.75-3.61c-2.92-.1-5.27-.07-6.73,1.28l-3.14,0c1.24-3,1.93-4.22,2.32-7.58,3.68-.79,8-2.12,9.91-4.83h.44V9.89h-.45C114.38,8.64,112.84,8,110.59,8.5Z"/><path d="M37.8,30.57C39,28.25,40.91,25.46,40.12,23c-1.47-4.66-9-12.59-13.73-14-3.33-2.07-8.2.91-11.2-.12-.65-.22-.73-.79-2.23-.92-2.57,5.23-3.83,12-5.57,18.31-.33,3.43-.67,6.86-1,10.29C6,37.53,4.65,39.57,4.55,41s1.17.5.87,2.25c-.67,4-2.57,8.27-3.71,12.06s-3.1,13.73-.18,17c.46,1,.76,1,1.33,1.81,2.31-.23,3.15-1.55,3.62-3.55,1.49.1,4.22,1.49,4.46,1.39.16-.44.31-.89.46-1.34,2.17-1,7.86-.06,10.31-.78,9.17-2.69,18.44-10.67,17.7-22.21-3.17-3.5-4.92-6.93-9.77-7.71v-.45C34.79,38.38,35.64,34.71,37.8,30.57ZM25.88,56.87c-1.17,2.82-5.33,3.45-7.23,5.74l-4,0c1.57-5.51,4.72-10.72,5.11-17,2.05,0,3.78.09,4.92.95,1,.47,1,.78,1.77,1.36C26.46,51.25,27.26,54.82,25.88,56.87Zm2.94-24.16c-1.63,1.27-4,1.11-5.4,2.63H22.08c.38-.89.57-5.75,1-6.26s1.48-.42,1.8-.88c-1-2,1.71-7.67,1.46-10.73,2.25.85,3,2.82,5.33,3.64-.69,1.95-.44,6.13-.08,7.61C30.27,29.69,30,31.78,28.82,32.71Z"/></g></g></svg>